SplineFontDB: 3.0
FontName: 3270Medium
FullName: 3270-Medium
FamilyName: IBM 3270
Weight: Medium
Copyright: Copyright (c) 2011-2012, Ricardo Banffy.\nCopyright (c) 1993-2011, Paul Mattes.\nCopyright (c) 2004-2005, Don Russell.\nCopyright (c) 2004, Dick Altenbern.\nCopyright (c) 1990, Jeff Sparkes.\nCopyright (c) 1989, Georgia Tech Research Corporation (GTRC), Atlanta, GA 30332.\nAll rights reserved.\nRedistribution and use in source and binary forms, with or without modification, are permitted provided that the following conditions are met:\n\nRedistributions of source code must retain the above copyright notice, this list of conditions and the following disclaimer.\nRedistributions in binary form must reproduce the above copyright notice, this list of conditions and the following disclaimer in the documentation and/or other materials provided with the distribution.\nNeither the names of Paul Mattes, Don Russell, Dick Altenbern, Jeff Sparkes, GTRC nor the names of their contributors may be used to endorse or promote products derived from this software without specific prior written permission.\nTHIS SOFTWARE IS PROVIDED BY PAUL MATTES, DON RUSSELL, DICK ALTENBERN, JEFF SPARKES AND GTRC "AS IS" AND ANY EXPRESS OR IMPLIED WARRANTIES, INCLUDING, BUT NOT LIMITED TO, THE IMPLIED WARRANTIES OF MERCHANTABILITY AND FITNESS FOR A PARTICULAR PURPOSE ARE DISCLAIMED. IN NO EVENT SHALL PAUL MATTES, DON RUSSELL, DICK ALTENBERN, JEFF SPARKES OR GTRC BE LIABLE FOR ANY DIRECT, INDIRECT, INCIDENTAL, SPECIAL, EXEMPLARY, OR CONSEQUENTIAL DAMAGES (INCLUDING, BUT NOT LIMITED TO, PROCUREMENT OF SUBSTITUTE GOODS OR SERVICES; LOSS OF USE, DATA, OR PROFITS; OR BUSINESS INTERRUPTION) HOWEVER CAUSED AND ON ANY THEORY OF LIABILITY, WHETHER IN CONTRACT, STRICT LIABILITY, OR TORT (INCLUDING NEGLIGENCE OR OTHERWISE) ARISING IN ANY WAY OUT OF THE USE OF THIS SOFTWARE, EVEN IF ADVISED OF THE POSSIBILITY OF SUCH DAMAGE.
UComments: "2011-5-25: Created." 
Version: 001.000
ItalicAngle: 0

StartChar: euro
Encoding: 1 8364 2
Width: 536
VWidth: 0
InSpiro: 1
Flags: HW
HStem: 49 61<281 372> 262 61<54 115 176 416> 384 61<54 114 176 449> 598 62<283 375>
VStem: 115 61<219 262 323 384 445 494>
LayerCount: 2
Back
Fore
SplineSet
54 445 m 1
 114 445 l 1
 116 521 l 1
 255 659 l 1
 401 659 l 1
 466 597 l 1
 471 591 474 583 473 575 c 0
 472 567 469 559 463 554 c 0
 457 549 450 545 442 545 c 0
 434 545 426 548 420 553 c 2
 375 598 l 1
 283 598 l 1
 176 494 l 1
 176 445 l 1
 481 445 l 1
 449 385 l 1
 176 384 l 1
 176 323 l 1
 451 323 l 1
 416 261 l 1
 176 262 l 1
 176 219 l 1
 281 110 l 1
 372 110 l 1
 420 158 l 2
 426 164 435 167 443 167 c 0
 451 167 460 163 466 157 c 0
 472 151 476 143 476 134 c 0
 476 125 472 116 466 110 c 2
 402 49 l 1
 251 49 l 1
 115 189 l 1
 115 262 l 1
 54 262 l 1
 54 293 l 1
 54 323 l 1
 115 323 l 1
 114 384 l 1
 54 385 l 1
 54 445 l 1
  Spiro
    54 445 v
    114 445 v
    116 521 v
    255 659 v
    401 659 v
    466 597 v
    470.256 590.415 o
    472.742 582.918 o
    473 575 o
    471.299 567.119 o
    468.033 559.882 o
    463 554 o
    456.673 549.448 o
    449.659 546.22 o
    442 545 o
    434.082 545.961 o
    426.585 548.707 o
    420 553 [
    375 598 v
    283 598 v
    176 494 v
    176 445 v
    481 445 v
    449 385 v
    176 384 v
    176 323 v
    451 323 v
    416 261 v
    176 262 v
    176 219 v
    281 110 v
    372 110 v
    420 158 ]
    426.844 162.996 o
    434.823 166.002 o
    443 167 o
    451.177 165.743 o
    459.156 162.255 o
    466 157 o
    471.255 150.378 o
    474.743 142.621 o
    476 134 o
    474.743 125.12 o
    471.255 116.881 o
    466 110 [
    402 49 v
    251 49 v
    115 189 v
    115 262 v
    54 262 v
    54 293 v
    54 323 v
    115 323 v
    114 384 v
    54 385 v
    0 0 z
  EndSpiro
EndSplineSet
EndChar

StartChar: eightones
Encoding: 4 -1 6
Width: 536
VWidth: 0
Flags: HW
HStem: 188 269<201 331>
VStem: 136 260<256 390>
LayerCount: 2
Back
Fore
SplineSet
207 442 m 0
 228 452 246 457 265 457 c 0
 339 457 396 385 396 314 c 0
 396 270 375 227 324 201 c 0
 304 191 285 188 267 188 c 0
 192 188 136 261 136 332 c 0
 136 375 157 417 207 442 c 0
EndSplineSet
EndChar

StartChar: hyphen
Encoding: 5 45 7
Width: 536
VWidth: 0
Flags: HW
HStem: 293 61<115 421>
VStem: 115 306<293 354>
LayerCount: 2
Back
Fore
SplineSet
115 354 m 1
 421 354 l 1
 421 293 l 1
 115 293 l 1
 115 354 l 1
EndSplineSet
EndChar

StartChar: greater
Encoding: 6 62 8
Width: 536
VWidth: 0
InSpiro: 1
Flags: HW
VStem: 124 294
LayerCount: 2
Back
Fore
SplineSet
131 549 m 1
 126 555 124 563 124 571 c 0
 124 579 128 586 133 592 c 0
 138 598 145 601 153 602 c 0
 161 603 168 602 175 598 c 1
 418 353 l 1
 418 298 l 1
 176 48 l 1
 170 45 163 44 156 45 c 0
 149 46 143 49 138 54 c 0
 132 59 128 66 127 74 c 0
 126 82 128 90 132 97 c 1
 359 325 l 1
 131 549 l 1
  Spiro
    131 549 v
    126.966 555.585 o
    124.702 563.082 o
    124 571 o
    125.22 578.659 o
    128.448 585.673 o
    133 592 o
    138.623 597.033 o
    145.378 600.299 o
    153 602 o
    160.696 602.297 o
    167.97 601.035 o
    175 598 v
    418 353 v
    418 298 v
    176 48 v
    169.71 45.6683 o
    162.956 44.6663 o
    156 45 o
    146.25 48 o
    138 54 o
    132.708 59.6234 o
    128.96 66.3776 o
    127 74 o
    126.962 81.9551 o
    128.706 89.7113 o
    132 97 v
    359 325 v
    0 0 z
  EndSpiro
EndSplineSet
EndChar

StartChar: less
Encoding: 7 60 9
Width: 536
VWidth: 0
Flags: HW
VStem: 125 294
LayerCount: 2
Back
Fore
SplineSet
411 99 m 2
 416 93 419 85 419 77 c 0
 419 69 415 62 410 56 c 0
 405 50 397 47 389 46 c 0
 381 45 375 46 368 50 c 1
 125 295 l 1
 125 351 l 1
 367 600 l 1
 373 603 380 604 387 603 c 0
 394 602 400 599 405 594 c 0
 411 589 414 581 415 573 c 0
 416 565 415 558 411 551 c 1
 183 323 l 1
 411 99 l 2
EndSplineSet
EndChar

StartChar: bracketleft
Encoding: 8 91 10
Width: 536
VWidth: 0
Flags: HW
HStem: -13 62<237 359> 598 61<237 359>
VStem: 177 182<-13 49 598 659> 177 60<49 598>
LayerCount: 2
Back
Fore
SplineSet
177 659 m 1xe0
 359 659 l 1
 359 598 l 1xe0
 237 598 l 1
 237 49 l 1xd0
 359 49 l 1
 359 -13 l 1
 177 -13 l 1
 177 659 l 1xe0
EndSplineSet
EndChar

StartChar: bracketright
Encoding: 9 93 11
Width: 536
VWidth: 0
Flags: HW
HStem: -13 62<177 298> 598 61<177 298>
VStem: 177 182<-13 49 598 659> 298 61<49 598>
LayerCount: 2
Back
Fore
SplineSet
177 659 m 1xe0
 359 659 l 1
 359 -13 l 1
 177 -13 l 1
 177 49 l 1xe0
 298 49 l 1
 298 598 l 1xd0
 177 598 l 1
 177 659 l 1xe0
EndSplineSet
EndChar

StartChar: parenright
Encoding: 10 41 12
Width: 536
VWidth: 0
InSpiro: 1
Flags: HW
HStem: 49 21G<200 208>
VStem: 300 57<214 434>
LayerCount: 2
Back
Fore
SplineSet
350 467 m 2
 351 466 351 465 352 464 c 0
 353 463 354 462 354 461 c 0
 355 459 356 456 357 454 c 0
 358 451 358 449 358 446 c 2
 357 202 l 2
 357 201 357 199 357 198 c 0
 357 197 356 196 356 195 c 0
 355 193 355 190 354 188 c 0
 353 187 353 186 352 185 c 0
 351 184 350 183 349 182 c 2
 224 57 l 2
 222 55 220 53 218 52 c 0
 216 51 213 50 211 50 c 0
 206 49 201 49 196 50 c 0
 191 51 187 54 184 57 c 0
 180 61 177 65 176 70 c 0
 175 75 174 80 176 85 c 0
 177 87 178 90 179 92 c 0
 180 94 182 95 184 97 c 2
 300 214 l 1
 301 434 l 1
 185 547 l 2
 183 549 181 551 180 553 c 0
 179 555 178 557 177 560 c 0
 176 565 176 569 177 574 c 0
 178 579 181 583 184 587 c 0
 187 591 192 594 197 595 c 0
 202 596 207 596 212 595 c 0
 214 595 217 594 219 593 c 0
 221 592 223 590 225 588 c 2
 350 467 l 2
  Spiro
    350 467 ]
    350.74 466.001 o
    351.26 464.999 o
    352 464 o
    352.962 463.001 o
    353.704 461.999 o
    354 461 o
    354.999 458.743 o
    356.001 456.257 o
    357 454 o
    357.703 451.262 o
    357.963 448.738 o
    358 446 [
    357 202 v
    357 198 o
    356.741 197.001 o
    356.259 195.999 o
    356 195 o
    355.26 192.743 o
    354.74 190.257 o
    354 188 o
    353.26 187.001 o
    352.74 185.999 o
    352 185 o
    349 182 v
    224 57 ]
    222.002 55.0389 o
    219.998 53.2947 o
    218 52 o
    215.743 51.0379 o
    213.257 50.2957 o
    211 50 o
    203.5 49.25 o
    196 50 o
    191.338 51.5905 o
    187.33 54.0769 o
    184 57 o
    180.374 61.0329 o
    177.627 65.3007 o
    176 70 o
    175.112 74.995 o
    174.889 80.005 o
    176 85 o
    176.999 87.2568 o
    178.001 89.7432 o
    179 92 o
    180.295 93.7392 o
    182.039 95.2608 o
    184 97 [
    300 214 v
    301 434 v
    185 547 ]
    183.039 548.998 o
    181.295 551.002 o
    180 553 o
    179.001 555.035 o
    177.999 557.299 o
    177 560 o
    176.334 564.736 o
    176.334 569.264 o
    177 574 o
    178.59 578.699 o
    181.077 582.967 o
    184 587 o
    187.588 590.626 o
    192.079 593.373 o
    197 595 o
    204.5 595.75 o
    212 595 o
    214.257 594.704 o
    216.743 593.962 o
    219 593 o
    220.998 591.705 o
    223.002 589.961 o
    225 588 [
    0 0 z
  EndSpiro
EndSplineSet
EndChar

StartChar: parenleft
Encoding: 11 40 13
Width: 536
VWidth: 0
Flags: HW
HStem: 49 21G<334 342>
VStem: 184 58<214 434>
LayerCount: 2
Back
Fore
SplineSet
192 468 m 2
 317 589 l 2
 323 594 330 596 337 596 c 0
 345 596 352 594 357 588 c 0
 363 582 366 575 366 567 c 0
 366 559 363 553 357 547 c 2
 241 434 l 1
 242 214 l 1
 358 98 l 2
 364 93 367 85 367 77 c 0
 367 69 364 63 358 58 c 0
 352 52 345 49 338 49 c 0
 331 49 323 52 318 58 c 2
 193 183 l 2
 187 189 184 194 184 202 c 2
 183 446 l 2
 183 454 186 462 192 468 c 2
EndSplineSet
EndChar

StartChar: braceright
Encoding: 12 125 14
Width: 536
VWidth: 0
InSpiro: 1
Flags: HW
HStem: -12 60<119 197> 294 60<344 380> 601 60<119 197>
VStem: 242 60<92 251 398 557>
LayerCount: 2
Back
Fore
SplineSet
209 661 m 2
 211 661 213 660 214 660 c 0
 215 660 217 659 218 659 c 0
 219 659 221 658 222 658 c 0
 223 658 225 657 226 656 c 0
 227 655 227 655 228 654 c 0
 229 653 229 653 230 652 c 2
 293 591 l 2
 294 590 295 588 296 587 c 0
 297 586 298 585 299 583 c 0
 300 581 300 578 301 576 c 0
 301 575 302 574 302 573 c 0
 302 572 302 570 302 569 c 2
 302 398 l 1
 344 354 l 1
 380 354 l 1
 380 294 l 1
 344 294 l 1
 302 251 l 1
 302 79 l 2
 302 78 302 77 302 76 c 0
 302 75 301 74 301 73 c 0
 301 72 300 70 300 69 c 0
 300 68 300 66 299 65 c 0
 298 64 297 62 296 61 c 0
 295 60 294 59 293 58 c 2
 230 -3 l 2
 229 -4 229 -4 228 -5 c 0
 227 -6 227 -6 226 -7 c 0
 225 -8 223 -9 222 -9 c 0
 221 -9 219 -10 218 -10 c 0
 217 -10 215 -11 214 -11 c 0
 213 -11 211 -12 209 -12 c 2
 119 -12 l 1
 119 48 l 1
 197 48 l 1
 242 92 l 1
 242 263 l 2
 242 265 242 266 242 268 c 0
 242 270 242 271 243 272 c 0
 244 273 244 274 245 275 c 0
 246 276 246 278 247 279 c 0
 247 280 248 281 248 282 c 0
 248 283 249 283 250 284 c 2
 289 324 l 1
 250 365 l 2
 249 366 248 366 248 367 c 0
 248 368 247 369 247 370 c 0
 246 371 246 373 245 374 c 0
 244 375 244 376 243 377 c 0
 242 378 242 379 242 381 c 0
 242 383 242 384 242 386 c 2
 242 557 l 1
 197 601 l 1
 119 601 l 1
 119 661 l 1
 209 661 l 2
  Spiro
    209 661 ]
    210.961 660.741 o
    212.705 660.259 o
    214 660 o
    215.258 659.741 o
    216.742 659.259 o
    218 659 o
    219.258 658.741 o
    220.742 658.259 o
    222 658 o
    223.258 657.704 o
    224.742 656.962 o
    226 656 o
    228 654 o
    230 652 v
    293 591 ]
    293.999 589.742 o
    295.001 588.258 o
    296 587 o
    296.999 585.964 o
    298.001 584.702 o
    299 583 o
    299.74 580.743 o
    300.26 578.257 o
    301 576 o
    301.259 575.001 o
    301.741 573.999 o
    302 573 o
    302 569 v
    302 398 v
    344 354 v
    380 354 v
    380 294 v
    344 294 v
    302 251 v
    302 79 v
    302 76 o
    301.741 75.001 o
    301.259 73.999 o
    301 73 o
    300.741 71.7422 o
    300.259 70.2578 o
    300 69 o
    299.963 67.7422 o
    299.703 66.2578 o
    299 65 o
    298.001 63.7422 o
    296.999 62.2578 o
    296 61 o
    293 58 v
    230 -3 v
    228 -5 o
    226 -7 o
    224.742 -7.96207 o
    223.258 -8.70426 o
    222 -9 o
    220.742 -9.25881 o
    219.258 -9.74119 o
    218 -10 o
    216.742 -10.2588 o
    215.258 -10.7412 o
    214 -11 o
    212.705 -11.2588 o
    210.961 -11.7412 o
    209 -12 [
    119 -12 v
    119 48 v
    197 48 v
    242 92 v
    242 263 v
    242 268 o
    242.037 269.702 o
    242.297 270.964 o
    243 272 o
    243.74 272.999 o
    244.26 274.001 o
    245 275 o
    245.74 276.258 o
    246.26 277.742 o
    247 279 o
    247.259 279.999 o
    247.741 281.001 o
    248 282 o
    248.296 282.74 o
    249.038 283.26 o
    250 284 [
    289 324 v
    250 365 ]
    249.038 365.74 o
    248.296 366.26 o
    248 367 o
    247.741 367.999 o
    247.259 369.001 o
    247 370 o
    246.26 371.258 o
    245.74 372.742 o
    245 374 o
    244.26 374.999 o
    243.74 376.001 o
    243 377 o
    242.297 378.036 o
    242.037 379.298 o
    242 381 o
    242 386 v
    242 557 v
    197 601 v
    119 601 v
    119 661 v
    0 0 z
  EndSpiro
EndSplineSet
EndChar

StartChar: braceleft
Encoding: 13 123 15
Width: 536
VWidth: 0
Flags: HW
HStem: -14 60<280 358> 293 60<97 133> 599 60<280 358>
VStem: 175 60<90 249 396 555>
LayerCount: 2
Back
Fore
SplineSet
358 659 m 1
 358 599 l 1
 280 599 l 1
 235 555 l 1
 235 384 l 2
 235 374 230 366 227 363 c 2
 188 323 l 1
 227 282 l 2
 230 279 235 271 235 261 c 2
 235 90 l 1
 280 46 l 1
 358 46 l 1
 358 -14 l 1
 268 -14 l 2
 258 -14 250 -8 247 -5 c 2
 184 56 l 2
 177 63 175 73 175 78 c 2
 175 249 l 1
 133 293 l 1
 97 293 l 1
 97 353 l 1
 133 353 l 1
 175 396 l 1
 175 568 l 2
 175 573 177 582 184 589 c 2
 247 650 l 2
 250 654 258 659 268 659 c 2
 358 659 l 1
EndSplineSet
EndChar

StartChar: equal
Encoding: 15 61 17
Width: 536
VWidth: 0
Flags: HW
HStem: 231 62<54 481> 415 61<54 481>
LayerCount: 2
Back
Fore
SplineSet
54 476 m 1
 481 476 l 1
 481 415 l 1
 54 415 l 1
 54 476 l 1
54 293 m 1
 481 293 l 1
 481 231 l 1
 54 231 l 1
 54 293 l 1
EndSplineSet
EndChar

StartChar: quotedbl
Encoding: 17 34 19
Width: 536
VWidth: 0
Flags: HW
HStem: 476 183<115 177 298 359>
VStem: 115 62<476 659> 298 61<476 659>
LayerCount: 2
Back
Fore
SplineSet
115 659 m 1
 177 659 l 1
 177 476 l 1
 115 476 l 1
 115 659 l 1
298 659 m 1
 359 659 l 1
 359 476 l 1
 298 476 l 1
 298 659 l 1
EndSplineSet
EndChar

StartChar: slash
Encoding: 18 47 20
Width: 536
VWidth: 0
InSpiro: 1
Flags: HW
LayerCount: 2
Back
Fore
SplineSet
421 533 m 2
 423 535 425 537 427 538 c 0
 429 539 432 540 435 541 c 0
 440 542 446 542 451 541 c 0
 456 540 461 537 465 533 c 0
 469 529 472 524 473 519 c 0
 474 514 474 509 473 504 c 0
 472 501 471 499 470 496 c 0
 469 493 467 491 465 489 c 2
 107 123 l 2
 105 121 103 119 101 118 c 0
 99 117 96 116 93 115 c 0
 88 114 82 114 77 115 c 0
 72 116 67 119 63 123 c 0
 59 127 57 132 55 137 c 0
 53 142 53 148 54 153 c 0
 55 156 56 159 57 161 c 0
 58 163 60 165 62 167 c 2
 421 533 l 2
  Spiro
    421 533 ]
    422.998 534.961 o
    425.002 536.705 o
    427 538 o
    429.294 538.999 o
    432.04 540.001 o
    435 541 o
    440.254 541.666 o
    445.746 541.666 o
    451 541 o
    455.958 539.373 o
    460.708 536.626 o
    465 533 o
    468.626 528.708 o
    471.373 523.958 o
    473 519 o
    473.75 511.5 o
    473 504 o
    472.001 501.262 o
    470.999 498.738 o
    470 496 o
    468.705 493.299 o
    466.961 491.035 o
    465 489 [
    107 123 ]
    105.002 121.039 o
    102.998 119.295 o
    101 118 o
    98.706 117.001 o
    95.96 115.999 o
    93 115 o
    87.7462 114.334 o
    82.2538 114.334 o
    77 115 o
    72.0419 116.627 o
    67.2917 119.374 o
    63 123 o
    59.5955 127.292 o
    57.0719 132.042 o
    55 137 o
    53.6304 142.254 o
    53.3706 147.746 o
    54 153 o
    54.999 155.96 o
    56.001 158.706 o
    57 161 o
    58.2947 162.998 o
    60.0389 165.002 o
    62 167 [
    0 0 z
  EndSpiro
EndSplineSet
EndChar

StartChar: backslash
Encoding: 19 92 21
Width: 536
VWidth: 0
Flags: HW
LayerCount: 2
Back
Fore
SplineSet
421 123 m 2
 62 489 l 2
 56 495 54 504 54 512 c 0
 54 520 56 527 62 533 c 0
 68 539 77 542 85 542 c 0
 93 542 100 539 106 533 c 2
 465 167 l 2
 471 161 474 153 474 145 c 0
 474 137 471 129 465 123 c 0
 459 117 451 113 443 113 c 0
 435 113 427 117 421 123 c 2
EndSplineSet
EndChar

StartChar: bar
Encoding: 20 124 22
Width: 536
VWidth: 0
Flags: HW
VStem: 237 61<-73 720>
LayerCount: 2
Back
Fore
SplineSet
237 720 m 1
 298 720 l 1
 298 -73 l 1
 237 -73 l 1
 237 720 l 1
EndSplineSet
EndChar

StartChar: brokenbar
Encoding: 21 166 23
Width: 536
VWidth: 0
Flags: HW
HStem: 639 20G<237 298>
VStem: 237 61<-73 231 354 659>
LayerCount: 2
Back
Fore
SplineSet
237 659 m 1
 298 659 l 1
 298 354 l 1
 237 354 l 1
 237 659 l 1
237 231 m 1
 298 231 l 1
 298 -73 l 1
 237 -73 l 1
 237 231 l 1
EndSplineSet
EndChar

StartChar: question
Encoding: 22 63 24
Width: 536
VWidth: 0
InSpiro: 1
Flags: HW
HStem: 50 61<233 300> 476 21G<115 176> 600 62<208 381>
VStem: 115 61<476 568> 237 61<50 111 232 322> 416 62<515 567>
LayerCount: 2
Back
Fore
SplineSet
233 111 m 1
 300 111 l 1
 300 50 l 1
 233 50 l 1
 233 111 l 1
  Spiro
    233 111 v
    300 111 v
    300 50 v
    233 50 v
    0 0 z
  EndSpiro
115 579 m 2
 115 581 115 584 116 586 c 0
 117 588 118 590 119 592 c 0
 120 593 120 594 121 595 c 0
 122 596 122 597 123 598 c 2
 170 652 l 2
 172 654 174 656 176 658 c 0
 178 660 181 660 184 661 c 0
 187 662 190 662 193 662 c 2
 394 662 l 2
 395 662 397 662 398 662 c 0
 399 662 400 661 401 661 c 0
 403 660 406 660 408 659 c 0
 411 658 413 656 415 654 c 2
 470 603 l 2
 472 601 474 599 476 596 c 0
 477 594 478 591 479 588 c 0
 480 585 480 582 480 579 c 2
 478 501 l 2
 478 498 478 496 477 493 c 0
 476 490 475 488 473 485 c 0
 472 483 470 481 468 479 c 2
 298 322 l 1
 298 232 l 1
 237 232 l 1
 237 337 l 2
 237 340 237 342 238 345 c 0
 239 347 240 350 241 352 c 0
 243 354 245 356 247 358 c 2
 416 515 l 1
 418 567 l 1
 381 600 l 1
 208 600 l 1
 176 568 l 1
 176 476 l 1
 115 476 l 1
 115 579 l 2
  Spiro
    115 579 ]
    115.037 581.257 o
    115.297 583.743 o
    116 586 o
    119 592 o
    119.74 592.999 o
    120.26 594.001 o
    121 595 o
    121.74 595.999 o
    122.26 597.001 o
    123 598 [
    170 652 v
    176 658 o
    178.294 659.443 o
    181.04 660.223 o
    184 661 o
    186.997 661.703 o
    190.003 661.963 o
    193 662 [
    394 662 v
    398 662 o
    398.999 661.741 o
    400.001 661.259 o
    401 661 o
    403.257 660.26 o
    405.743 659.74 o
    408 659 o
    410.701 657.705 o
    412.965 655.961 o
    415 654 [
    470 603 ]
    471.998 600.965 o
    474.002 598.701 o
    476 596 o
    476.999 593.706 o
    478.001 590.96 o
    479 588 o
    479.703 585.003 o
    479.963 581.997 o
    480 579 [
    478 501 ]
    477.963 498.262 o
    477.703 495.738 o
    477 493 o
    475.964 490.262 o
    474.702 487.738 o
    473 485 o
    471.705 483.002 o
    469.961 480.998 o
    468 479 [
    298 322 v
    298 232 v
    237 232 v
    237 337 ]
    237.037 339.738 o
    237.297 342.262 o
    238 345 o
    238.999 347.257 o
    240.001 349.743 o
    241 352 o
    247 358 v
    416 515 v
    418 567 v
    381 600 v
    208 600 v
    176 568 v
    176 476 v
    115 476 v
    0 0 z
  EndSpiro
EndSplineSet
EndChar

StartChar: exclam
Encoding: 23 33 25
Width: 536
VWidth: 0
Flags: HW
HStem: 49 61<236 299> 639 20G<237 298>
VStem: 237 61<49 110 231 659>
LayerCount: 2
Back
Fore
SplineSet
236 110 m 1
 299 110 l 1
 299 49 l 1
 236 49 l 1
 236 110 l 1
237 659 m 1
 298 659 l 1
 298 231 l 1
 237 231 l 1
 237 659 l 1
EndSplineSet
EndChar

StartChar: dollar
Encoding: 24 36 26
Width: 536
VWidth: 0
InSpiro: 1
Flags: HW
HStem: 110 61<54 237 298 385> 293 61<149 237 298 386> 476 61<148 237 298 481> 639 20G<237 298>
VStem: 58 60<385 446> 237 61<-12 110 171 293 354 476 537 659> 416 62<201 262>
LayerCount: 2
Back
Fore
SplineSet
416 201 m 1
 416 262 l 1
 386 293 l 1
 298 293 l 1
 298 171 l 1
 385 171 l 1
 416 201 l 1
  Spiro
    416 201 v
    416 262 v
    386 293 v
    298 293 v
    298 171 v
    385 171 v
    0 0 z
  EndSpiro
149 354 m 1
 237 354 l 1
 237 476 l 1
 148 476 l 1
 118 446 l 1
 118 385 l 1
 149 354 l 1
  Spiro
    149 354 v
    237 354 v
    237 476 v
    148 476 v
    118 446 v
    118 385 v
    0 0 z
  EndSpiro
237 659 m 1
 298 659 l 1
 298 537 l 1
 481 537 l 1
 481 476 l 1
 298 476 l 1
 298 354 l 1
 400 353 l 2
 403 353 405 353 408 352 c 0
 410 351 413 350 415 349 c 0
 417 348 419 346 421 344 c 2
 469 297 l 2
 470 296 471 295 472 294 c 0
 473 293 473 291 474 290 c 0
 475 287 476 285 477 282 c 0
 478 279 478 277 478 274 c 2
 476 198 l 2
 476 197 476 195 476 194 c 0
 476 193 475 192 475 191 c 0
 475 190 474 188 474 187 c 0
 474 186 474 185 473 184 c 0
 472 183 472 182 471 181 c 0
 470 180 470 180 469 179 c 2
 425 121 l 2
 424 120 423 119 422 118 c 0
 421 117 419 116 418 115 c 0
 415 113 413 112 410 111 c 0
 407 110 405 110 402 110 c 2
 298 110 l 1
 298 -12 l 1
 237 -12 l 1
 237 110 l 1
 54 110 l 1
 54 171 l 1
 237 171 l 1
 237 293 l 1
 134 294 l 2
 131 294 128 294 125 295 c 0
 122 296 119 297 117 299 c 0
 115 301 113 303 111 305 c 2
 66 363 l 2
 65 365 64 366 63 368 c 0
 62 370 61 373 60 375 c 0
 59 377 59 379 59 381 c 2
 58 458 l 2
 58 461 58 463 58 466 c 0
 58 467 59 469 59 470 c 0
 59 471 60 473 61 474 c 0
 63 476 65 478 67 480 c 2
 114 528 l 2
 116 530 118 532 120 533 c 0
 122 534 125 535 127 536 c 0
 130 537 134 537 137 537 c 2
 237 537 l 1
 237 659 l 1
  Spiro
    237 659 v
    298 659 v
    298 537 v
    481 537 v
    481 476 v
    298 476 v
    298 354 v
    400 353 ]
    402.738 352.963 o
    405.262 352.703 o
    408 352 o
    410.257 351.001 o
    412.743 349.999 o
    415 349 o
    416.998 347.705 o
    419.002 345.961 o
    421 344 [
    469 297 v
    472 294 o
    472.74 292.742 o
    473.26 291.258 o
    474 290 o
    474.999 287.262 o
    476.001 284.738 o
    477 282 o
    477.703 279.262 o
    477.963 276.738 o
    478 274 [
    476 198 v
    476 194 o
    475.741 193.001 o
    475.259 191.999 o
    475 191 o
    474.741 189.742 o
    474.259 188.258 o
    474 187 o
    473.963 186.001 o
    473.703 184.999 o
    473 184 o
    472.26 183.001 o
    471.74 181.999 o
    471 181 o
    469 179 v
    425 121 v
    422 118 o
    420.742 117.001 o
    419.258 115.999 o
    418 115 o
    415.262 113.298 o
    412.738 112.036 o
    410 111 o
    407.262 110.297 o
    404.738 110.037 o
    402 110 [
    298 110 v
    298 -12 v
    237 -12 v
    237 110 v
    54 110 v
    54 171 v
    237 171 v
    237 293 v
    134 294 ]
    131.003 294.037 o
    127.997 294.297 o
    125 295 o
    122.04 296.036 o
    119.294 297.298 o
    117 299 o
    111 305 v
    66 363 ]
    65.001 364.739 o
    63.999 366.261 o
    63 368 o
    62.001 370.257 o
    60.999 372.743 o
    60 375 o
    59.2967 376.998 o
    59.0369 379.002 o
    59 381 [
    58 458 v
    58 466 o
    58.2588 467.258 o
    58.7412 468.742 o
    59 470 o
    59.2957 471.258 o
    60.0379 472.742 o
    61 474 o
    67 480 v
    114 528 ]
    115.998 529.961 o
    118.002 531.705 o
    120 533 o
    122.257 533.999 o
    124.743 535.001 o
    127 536 o
    130.256 536.703 o
    133.744 536.963 o
    137 537 [
    237 537 v
    0 0 z
  EndSpiro
EndSplineSet
EndChar

StartChar: cent
Encoding: 25 162 27
Width: 536
VWidth: 0
InSpiro: 1
Flags: HW
HStem: 232 61<147 237 298 420> 476 61<145 237 298 420> 639 20G<237 298>
VStem: 55 62<325 446> 237 61<111 232 293 476 537 659>
LayerCount: 2
Back
Fore
SplineSet
237 659 m 1
 298 659 l 1
 298 537 l 1
 420 537 l 1
 420 476 l 1
 298 476 l 1
 298 293 l 1
 420 293 l 1
 420 232 l 1
 298 232 l 1
 298 110 l 1
 237 111 l 1
 237 232 l 1
 134 232 l 2
 131 232 128 232 125 233 c 0
 123 234 120 235 118 236 c 0
 116 237 114 239 112 241 c 2
 63 290 l 2
 62 291 61 292 60 293 c 0
 59 294 59 296 58 297 c 0
 57 298 57 299 56 300 c 0
 55 301 55 303 55 304 c 0
 55 305 55 307 55 308 c 0
 55 309 55 311 55 312 c 2
 55 458 l 2
 55 461 55 463 56 466 c 0
 57 468 58 471 59 473 c 0
 60 475 62 477 64 479 c 2
 109 528 l 2
 110 529 111 530 112 531 c 0
 113 532 115 532 116 533 c 0
 118 534 121 535 123 536 c 0
 126 537 129 537 132 537 c 2
 237 537 l 1
 237 659 l 1
  Spiro
    237 659 v
    298 659 v
    298 537 v
    420 537 v
    420 476 v
    298 476 v
    298 293 v
    420 293 v
    420 232 v
    298 232 v
    298 110 v
    237 111 v
    237 232 v
    134 232 ]
    131.003 232.037 o
    127.997 232.297 o
    125 233 o
    122.743 233.999 o
    120.257 235.001 o
    118 236 o
    116.002 237.295 o
    113.998 239.039 o
    112 241 [
    63 290 v
    60 293 o
    59.2598 294.258 o
    58.7402 295.742 o
    58 297 o
    57.2598 297.999 o
    56.7402 299.001 o
    56 300 o
    55.2967 301.258 o
    55.0369 302.742 o
    55 304 o
    55 308 o
    55 312 v
    55 458 ]
    55.0369 460.738 o
    55.2967 463.262 o
    56 466 o
    56.999 468.257 o
    58.001 470.743 o
    59 473 o
    60.2947 474.998 o
    62.0389 477.002 o
    64 479 [
    109 528 v
    112 531 o
    113.258 531.74 o
    114.742 532.26 o
    116 533 o
    118.257 533.999 o
    120.743 535.001 o
    123 536 o
    125.997 536.703 o
    129.003 536.963 o
    132 537 [
    237 537 v
    0 0 z
  EndSpiro
237 476 m 1
 145 476 l 1
 117 446 l 1
 117 325 l 1
 147 293 l 1
 237 293 l 1
 237 476 l 1
  Spiro
    237 476 v
    145 476 v
    117 446 v
    117 325 v
    147 293 v
    237 293 v
    0 0 z
  EndSpiro
EndSplineSet
EndChar

StartChar: sterling
Encoding: 26 163 28
Width: 536
VWidth: 0
InSpiro: 1
Flags: HMW
LayerCount: 2
Back
Fore
SplineSet
326 597 m 1
 268 597 l 1
 237 565 l 1
 237 415 l 1
 359 415 l 1
 359 354 l 1
 237 354 l 1
 236 129 l 1
 271 111 l 1
 385 110 l 1
 428 162 l 1
 473 118 l 1
 420 62 l 2
 419 61 418 60 417 59 c 0
 416 58 415 57 414 56 c 0
 413 55 411 54 410 54 c 0
 409 54 407 53 406 53 c 0
 405 53 404 52 402 52 c 0
 400 52 399 52 397 52 c 2
 258 53 l 2
 257 53 256 53 255 53 c 0
 254 53 254 54 253 54 c 0
 252 54 251 54 250 54 c 0
 249 54 249 55 248 55 c 0
 247 55 245 56 244 57 c 2
 204 79 l 1
 165 55 l 2
 163 54 162 53 160 52 c 0
 158 51 157 50 155 50 c 0
 154 50 153 50 152 50 c 0
 151 50 150 50 149 50 c 2
 82 52 l 2
 79 52 77 52 74 53 c 0
 71 54 68 54 66 56 c 0
 62 59 59 63 56 67 c 0
 55 69 54 71 53 74 c 0
 52 77 52 79 52 82 c 2
 51 144 l 2
 51 147 51 149 51 152 c 0
 51 155 53 157 54 159 c 0
 57 164 60 168 65 171 c 0
 67 173 70 173 73 174 c 0
 76 175 78 175 81 175 c 2
 143 175 l 2
 145 175 146 175 148 175 c 0
 150 175 151 174 153 174 c 0
 154 174 155 173 156 173 c 0
 157 173 157 173 158 172 c 2
 176 160 l 1
 176 354 l 1
 54 354 l 1
 54 415 l 1
 177 415 l 1
 177 580 l 2
 177 583 177 585 178 588 c 0
 179 590 180 593 181 595 c 0
 182 596 182 598 183 599 c 0
 184 600 185 601 186 602 c 2
 233 649 l 2
 235 651 237 653 240 655 c 0
 242 656 245 657 247 658 c 0
 250 659 252 659 255 659 c 2
 341 659 l 2
 343 659 344 659 346 659 c 0
 348 659 349 658 350 657 c 0
 353 656 355 654 358 653 c 0
 359 652 361 651 362 650 c 0
 363 649 364 648 365 647 c 2
 416 584 l 1
 374 542 l 1
 326 597 l 1
  Spiro
    326 597 v
    268 597 v
    237 565 v
    237 415 v
    359 415 v
    359 354 v
    237 354 v
    236 129 v
    271 111 v
    385 110 v
    428 162 v
    473 118 v
    420 62 v
    417 59 o
    414 56 o
    412.742 55.0379 o
    411.258 54.2957 o
    410 54 o
    408.742 53.7412 o
    407.258 53.2588 o
    406 53 o
    404.964 52.7412 o
    403.702 52.2588 o
    402 52 o
    397 52 v
    258 53 v
    255 53 o
    254.26 53.2588 o
    253.74 53.7412 o
    253 54 o
    250 54 o
    249.26 54.2588 o
    248.74 54.7412 o
    248 55 o
    246.742 55.2957 o
    245.258 56.0379 o
    244 57 [
    204 79 v
    165 55 ]
    163.261 54.001 o
    161.739 52.999 o
    160 52 o
    158.261 51.0379 o
    156.739 50.2957 o
    155 50 o
    152 50 o
    149 50 v
    82 52 ]
    79.2618 52.0369 o
    76.7382 52.2967 o
    74 53 o
    71.0399 53.7771 o
    68.2937 54.5566 o
    66 56 o
    62.2997 59.2927 o
    59.0339 63.0409 o
    56 67 o
    55.001 69.0349 o
    53.999 71.2987 o
    53 74 o
    52.2967 76.7382 o
    52.0369 79.2618 o
    52 82 [
    51 144 v
    51 152 o
    51.5546 154.701 o
    52.7791 156.965 o
    54 159 o
    57.0709 163.662 o
    60.5965 167.67 o
    65 171 o
    67.2937 172.443 o
    70.0399 173.223 o
    73 174 o
    75.7382 174.703 o
    78.2618 174.963 o
    81 175 [
    143 175 v
    148 175 o
    149.739 174.741 o
    151.261 174.259 o
    153 174 o
    153.999 173.741 o
    155.001 173.259 o
    156 173 o
    156.74 172.963 o
    157.26 172.703 o
    158 172 [
    176 160 v
    176 354 v
    54 354 v
    54 415 v
    177 415 v
    177 580 ]
    177.037 582.738 o
    177.297 585.262 o
    178 588 o
    178.999 590.257 o
    180.001 592.743 o
    181 595 o
    181.74 596.258 o
    182.26 597.742 o
    183 599 o
    186 602 v
    233 649 ]
    235.035 650.998 o
    237.299 653.002 o
    240 655 o
    242.257 655.999 o
    244.743 657.001 o
    247 658 o
    249.738 658.703 o
    252.262 658.963 o
    255 659 [
    341 659 v
    346 659 o
    347.702 658.704 o
    348.964 657.962 o
    350 657 o
    352.738 655.742 o
    355.262 654.258 o
    358 653 o
    359.258 652.001 o
    360.742 650.999 o
    362 650 o
    365 647 v
    416 584 v
    374 542 v
    0 0 z
  EndSpiro
EndSplineSet
EndChar

StartChar: yen
Encoding: 27 165 29
Width: 536
VWidth: 0
InSpiro: 1
Flags: HW
HStem: 49 21G<237 298> 171 61<54 237 298 481> 354 61<54 237 298 481>
VStem: 237 61<49 171 232 354 415 448>
LayerCount: 2
Back
Fore
SplineSet
267 506 m 1
 429 652 l 1
 471 606 l 1
 297 451 l 1
 298 415 l 1
 481 415 l 1
 481 354 l 1
 298 354 l 1
 298 232 l 1
 481 232 l 1
 481 171 l 1
 298 171 l 1
 298 49 l 1
 237 49 l 1
 237 171 l 1
 54 171 l 1
 54 232 l 1
 237 232 l 1
 237 354 l 1
 54 354 l 1
 54 415 l 1
 237 415 l 1
 236 448 l 1
 62 606 l 1
 103 653 l 1
 267 506 l 1
  Spiro
    267 506 v
    429 652 v
    471 606 v
    297 451 v
    298 415 v
    481 415 v
    481 354 v
    298 354 v
    298 232 v
    481 232 v
    481 171 v
    298 171 v
    298 49 v
    237 49 v
    237 171 v
    54 171 v
    54 232 v
    237 232 v
    237 354 v
    54 354 v
    54 415 v
    237 415 v
    236 448 v
    62 606 v
    103 653 v
    0 0 z
  EndSpiro
EndSplineSet
EndChar

StartChar: paragraph
Encoding: 28 182 30
Width: 536
VWidth: 0
InSpiro: 1
Flags: HW
HStem: 48 21G<52 115> 171 61<237 297 359 419> 355 61<115 265> 598 59<115 266>
VStem: 52 63<48 355 416 598> 298 61<-12 170 232 293 447 567>
LayerCount: 2
Back
Fore
SplineSet
55 659 m 1
 280 658 l 2
 283 658 285 658 288 657 c 0
 290 656 293 655 295 654 c 0
 297 653 299 651 301 649 c 2
 350 603 l 2
 352 601 354 599 355 597 c 0
 357 594 358 592 359 589 c 0
 360 586 360 584 360 581 c 2
 360 434 l 2
 360 432 360 431 360 429 c 0
 360 427 360 426 359 425 c 0
 359 424 358 422 357 421 c 0
 356 420 356 419 355 418 c 0
 354 417 354 415 353 414 c 0
 352 413 351 412 350 411 c 2
 301 366 l 2
 299 364 297 362 295 361 c 0
 293 360 290 359 288 358 c 0
 285 357 283 357 280 357 c 2
 115 354 l 1
 115 48 l 1
 52 48 l 1
 55 659 l 1
  Spiro
    55 659 v
    280 658 ]
    282.738 657.963 o
    285.262 657.703 o
    288 657 o
    290.257 656.001 o
    292.743 654.999 o
    295 654 o
    296.998 652.705 o
    299.002 650.961 o
    301 649 [
    350 603 ]
    351.961 601.002 o
    353.705 598.998 o
    355 597 o
    356.702 594.262 o
    357.964 591.738 o
    359 589 o
    359.703 586.262 o
    359.963 583.738 o
    360 581 [
    360 434 v
    360 429 o
    359.963 427.298 o
    359.703 426.036 o
    359 425 o
    358.704 423.742 o
    357.962 422.258 o
    357 421 o
    356.26 420.001 o
    355.74 418.999 o
    355 418 o
    354.26 416.742 o
    353.74 415.258 o
    353 414 o
    350 411 v
    301 366 ]
    299.002 364.039 o
    296.998 362.295 o
    295 361 o
    292.743 360.001 o
    290.257 358.999 o
    288 358 o
    285.262 357.297 o
    282.738 357.037 o
    280 357 [
    115 354 v
    115 48 v
    52 48 v
    0 0 z
  EndSpiro
115 598 m 1
 115 416 l 1
 265 415 l 1
 298 447 l 1
 298 567 l 1
 266 598 l 1
 115 598 l 1
  Spiro
    115 598 v
    115 416 v
    265 415 v
    298 447 v
    298 567 v
    266 598 v
    0 0 z
  EndSpiro
298 293 m 1
 359 293 l 1
 359 232 l 1
 420 232 l 1
 419 170 l 1
 359 170 l 1
 359 -12 l 1
 298 -12 l 1
 297 171 l 1
 237 171 l 1
 237 232 l 1
 298 232 l 1
 298 293 l 1
  Spiro
    298 293 v
    359 293 v
    359 232 v
    420 232 v
    419 170 v
    359 170 v
    359 -12 v
    298 -12 v
    297 171 v
    237 171 v
    237 232 v
    298 232 v
    0 0 z
  EndSpiro
EndSplineSet
EndChar

StartChar: currency
Encoding: 29 164 31
Width: 536
VWidth: 0
Flags: HW
HStem: 178 48<208 318> 419 47<208 316>
VStem: 118 48<261 383> 358 48<261 383>
LayerCount: 2
Back
Fore
SplineSet
214 187 m 1
 88 59 l 1
 54 92 l 1
 170 212 l 1
 138 238 118 278 118 322 c 0
 118 367 138 407 170 433 c 1
 52 555 l 1
 86 588 l 1
 213 458 l 1
 228 464 245 466 262 466 c 0
 279 466 296 464 311 458 c 1
 437 587 l 1
 472 554 l 1
 355 433 l 1
 386 407 406 366 406 322 c 0
 406 279 386 240 356 214 c 1
 474 92 l 1
 439 59 l 1
 313 188 l 1
 297 182 280 178 262 178 c 0
 245 178 229 182 214 187 c 1
166 322 m 0
 166 269 209 226 262 226 c 0
 315 226 358 269 358 322 c 0
 358 375 315 419 262 419 c 0
 209 419 166 375 166 322 c 0
EndSplineSet
EndChar

StartChar: zero
Encoding: 30 48 32
Width: 536
VWidth: 0
InSpiro: 1
Flags: HW
HStem: 59 57<210 328> 282 141<238 293> 603 57<208 330>
VStem: 58 57<205 504> 237 57<283 422> 420 57<208 507>
LayerCount: 2
Back
Fore
SplineSet
294 311 m 2
 294 308 294 306 293 303 c 0
 292 300 291 298 290 296 c 0
 287 292 284 288 280 286 c 0
 276 283 271 282 266 282 c 0
 261 282 255 283 251 286 c 0
 247 288 244 292 241 296 c 0
 240 298 239 300 238 303 c 0
 237 306 237 308 237 311 c 2
 237 395 l 2
 237 397 237 400 238 402 c 0
 239 404 240 407 241 409 c 0
 242 411 243 413 245 415 c 0
 247 417 249 419 251 420 c 0
 253 421 255 423 258 423 c 0
 261 423 263 423 266 423 c 0
 268 423 271 422 273 422 c 0
 275 422 278 421 280 420 c 0
 282 419 284 417 286 415 c 0
 288 413 289 411 290 409 c 0
 291 407 292 404 293 402 c 0
 294 400 294 397 294 395 c 2
 294 311 l 2
  Spiro
    294 311 ]
    293.963 308.262 o
    293.703 305.738 o
    293 303 o
    292.001 300.299 o
    290.999 298.035 o
    290 296 o
    286.966 292.078 o
    283.7 288.589 o
    280 286 o
    275.708 283.631 o
    270.958 282.37 o
    266 282 o
    260.783 282.37 o
    255.551 283.631 o
    251 286 o
    247.3 288.589 o
    244.034 292.078 o
    241 296 o
    240.001 298.035 o
    238.999 300.299 o
    238 303 o
    237.297 305.738 o
    237.037 308.262 o
    237 311 [
    237 395 ]
    237.037 397.257 o
    237.297 399.743 o
    238 402 o
    238.999 404.257 o
    240.001 406.743 o
    241 409 o
    242.036 410.998 o
    243.298 413.002 o
    245 415 o
    246.998 416.961 o
    249.002 418.705 o
    251 420 o
    253.035 421.221 o
    255.299 422.445 o
    258 423 o
    266 423 o
    268.257 422.741 o
    270.743 422.259 o
    273 422 o
    275.257 421.704 o
    277.743 420.962 o
    280 420 o
    281.998 418.705 o
    284.002 416.961 o
    286 415 o
    287.702 413.002 o
    288.964 410.998 o
    290 409 o
    290.999 406.743 o
    292.001 404.257 o
    293 402 o
    293.703 399.743 o
    293.963 397.257 o
    294 395 [
    0 0 z
  EndSpiro
174 651 m 2
 176 653 178 655 180 656 c 0
 182 657 185 658 187 659 c 0
 190 660 192 660 195 660 c 2
 342 660 l 2
 345 660 347 660 350 659 c 0
 352 658 355 657 357 656 c 0
 359 655 361 653 363 651 c 2
 468 538 l 2
 469 536 471 535 472 533 c 0
 473 531 474 528 475 526 c 0
 476 524 476 521 476 519 c 2
 477 197 l 2
 477 196 477 194 477 193 c 0
 477 192 477 190 477 189 c 0
 477 188 477 186 476 185 c 0
 475 184 475 183 474 182 c 0
 473 180 471 178 469 176 c 2
 360 68 l 2
 358 66 356 64 354 63 c 0
 352 62 350 61 348 60 c 0
 345 59 343 59 340 59 c 2
 199 59 l 2
 197 59 194 59 192 60 c 0
 190 61 187 62 185 63 c 0
 184 64 183 64 182 65 c 0
 181 66 180 66 179 67 c 2
 67 172 l 2
 65 174 63 176 62 178 c 0
 61 180 60 183 59 185 c 0
 58 188 58 190 58 193 c 2
 60 515 l 2
 60 516 60 518 60 519 c 0
 60 520 61 521 61 522 c 0
 61 523 62 525 62 526 c 0
 62 527 62 528 63 529 c 0
 64 531 66 532 67 534 c 2
 174 651 l 2
  Spiro
    174 651 ]
    175.998 652.961 o
    178.002 654.705 o
    180 656 o
    182.257 656.999 o
    184.743 658.001 o
    187 659 o
    189.738 659.703 o
    192.262 659.963 o
    195 660 [
    342 660 ]
    344.738 659.963 o
    347.262 659.703 o
    350 659 o
    352.257 658.001 o
    354.743 656.999 o
    357 656 o
    358.998 654.705 o
    361.002 652.961 o
    363 651 [
    468 538 ]
    469.258 536.261 o
    470.742 534.739 o
    472 533 o
    472.999 530.743 o
    474.001 528.257 o
    475 526 o
    475.703 523.743 o
    475.963 521.257 o
    476 519 [
    477 197 v
    477 193 o
    477 189 o
    476.963 187.742 o
    476.703 186.258 o
    476 185 o
    475.26 184.001 o
    474.74 182.999 o
    474 182 o
    472.705 180.002 o
    470.961 177.998 o
    469 176 [
    360 68 ]
    358.002 66.0389 o
    355.998 64.2947 o
    354 63 o
    348 60 o
    345.262 59.2967 o
    342.738 59.0369 o
    340 59 [
    199 59 ]
    196.743 59.0369 o
    194.257 59.2967 o
    192 60 o
    189.743 60.999 o
    187.257 62.001 o
    185 63 o
    184.001 63.7402 o
    182.999 64.2598 o
    182 65 o
    181.001 65.7402 o
    179.999 66.2598 o
    179 67 [
    67 172 ]
    65.0389 173.998 o
    63.2947 176.002 o
    62 178 o
    61.001 180.257 o
    59.999 182.743 o
    59 185 o
    58.2967 187.738 o
    58.0369 190.262 o
    58 193 [
    60 515 v
    60 519 o
    60.2588 519.999 o
    60.7412 521.001 o
    61 522 o
    61.2588 523.258 o
    61.7412 524.742 o
    62 526 o
    62.0369 526.999 o
    62.2967 528.001 o
    63 529 o
    64.2578 530.739 o
    65.7422 532.261 o
    67 534 [
    0 0 z
  EndSpiro
117 504 m 1
 115 205 l 1
 210 116 l 1
 328 116 l 1
 420 208 l 1
 418 507 l 1
 330 603 l 1
 208 603 l 1
 117 504 l 1
  Spiro
    117 504 v
    115 205 v
    210 116 v
    328 116 v
    420 208 v
    418 507 v
    330 603 v
    208 603 v
    0 0 z
  EndSpiro
EndSplineSet
EndChar

StartChar: one
Encoding: 31 49 33
Width: 536
VWidth: 0
Flags: HW
HStem: 49 21G<241 298>
VStem: 241 57<49 562>
LayerCount: 2
Back
Fore
SplineSet
249 653 m 2
 255 659 262 663 269 663 c 0
 273 663 276 662 280 660 c 0
 292 655 298 646 298 633 c 2
 298 49 l 1
 241 49 l 1
 241 562 l 1
 152 470 l 1
 110 509 l 1
 249 653 l 2
EndSplineSet
EndChar

StartChar: two
Encoding: 32 50 34
Width: 536
VWidth: 0
InSpiro: 1
Flags: HW
HStem: 48 56<149 480> 477 21G<76 116> 596 57<210 389>
VStem: 425 57<459 566>
LayerCount: 2
Back
Fore
SplineSet
176 644 m 2
 176.636 644.684 177.308 645.332 177.998 645.961 c 0
 178.653 646.557 179.304 647.16 180.002 647.705 c 0
 180.628 648.195 181.297 648.629 182 649 c 0
 182.728 649.384 183.489 649.702 184.257 649.999 c 0
 185.09 650.322 185.928 650.636 186.743 651.001 c 0
 187.494 651.337 188.231 651.708 189 652 c 0
 189.883 652.335 190.806 652.554 191.738 652.703 c 0
 192.574 652.837 193.417 652.922 194.262 652.963 c 0
 195.174 653.007 196.087 653 197 653 c 2
 399 653 l 2
 400.333 653.051 401.667 653.031 403 653 c 0
 404 652.977 405 652.994 406 653 c 0
 406.333 653.002 406.667 652.999 406.999 652.963 c 0
 407.344 652.926 407.686 652.849 408.001 652.703 c 0
 408.372 652.531 408.691 652.267 409 652 c 0
 409.314 651.729 409.638 651.465 409.999 651.26 c 0
 410.326 651.074 410.674 650.927 411.001 650.74 c 0
 411.361 650.534 411.685 650.271 412 650 c 0
 412.315 649.729 412.639 649.466 412.999 649.26 c 0
 413.326 649.073 413.674 648.927 414.001 648.74 c 0
 414.361 648.534 414.685 648.271 415 648 c 0
 415.315 647.729 415.639 647.466 415.999 647.26 c 0
 416.326 647.073 416.674 646.926 417.001 646.74 c 0
 417.362 646.535 417.686 646.271 418 646 c 2
 470 601 l 2
 470.434 600.44 470.92 599.922 471.438 599.438 c 0
 471.954 598.955 472.51 598.511 473 598 c 0
 473.288 597.7 473.541 597.366 473.74 597.001 c 0
 473.92 596.67 474.065 596.321 474.26 595.999 c 0
 474.474 595.644 474.75 595.331 475 595 c 0
 475.25 594.67 475.462 594.31 475.618 593.926 c 0
 475.774 593.542 475.882 593.141 475.999 592.743 c 0
 476.252 591.885 476.606 591.06 477.001 590.257 c 0
 477.365 589.518 477.722 588.775 478 588 c 0
 478.319 587.112 478.543 586.192 478.703 585.262 c 0
 478.847 584.428 478.935 583.584 478.963 582.738 c 0
 478.994 581.826 478.979 580.913 479 580 c 2
 482 448 l 2
 482.08 446.668 482.153 445.326 482 444 c 0
 481.951 443.574 481.866 443.152 481.741 442.742 c 0
 481.59 442.244 481.39 441.761 481.259 441.258 c 0
 481.151 440.843 481.087 440.419 481 440 c 0
 480.839 439.224 480.529 438.489 480.26 437.743 c 0
 479.971 436.944 479.829 436.102 479.74 435.257 c 0
 479.698 434.857 479.651 434.456 479.537 434.071 c 0
 479.424 433.686 479.236 433.325 479 433 c 0
 478.756 432.664 478.476 432.355 478.26 432.001 c 0
 478.064 431.68 477.919 431.33 477.74 430.999 c 0
 477.542 430.633 477.289 430.299 477 430 c 0
 476.508 429.49 475.95 429.049 475.432 428.566 c 0
 474.914 428.083 474.43 427.562 474 427 c 2
 149 105 l 1
 480 105 l 1
 480 48 l 1
 80 48 l 2
 79.0049 48.1094 78.002 48.1348 77.001 48.1016 c 0
 76 48.0684 75.001 47.9658 74 48 c 0
 73.4102 48.0205 72.8193 48.1045 72.2607 48.2959 c 0
 71.7266 48.4795 71.2285 48.7549 70.7393 49.0381 c 0
 70.166 49.3701 69.5908 49.7002 69 50 c 0
 67.9961 50.5098 66.96 50.96 66.0029 51.5537 c 0
 64.9424 52.2109 63.9941 53.0303 62.9971 53.7803 c 0
 62.0029 54.5273 60.9492 55.1973 60 56 c 0
 58.9707 56.8711 58.1094 57.9199 57.2988 58.9971 c 0
 56.5449 59.999 55.7949 61.0059 55.0352 62.0029 c 0
 54.3018 62.9648 53.5752 63.9365 53 65 c 0
 52.3252 66.2461 51.8828 67.6084 51.5938 68.9961 c 0
 51.3184 70.3154 51.1621 71.6582 51.0742 73.0039 c 0
 50.9873 74.334 50.9639 75.668 51 77 c 0
 51.0303 78.0898 51.1143 79.1807 51.2959 80.2559 c 0
 51.4932 81.4287 51.7812 82.583 52.0381 83.7441 c 0
 52.2832 84.8516 52.5293 85.9688 53 87 c 0
 53.2783 87.6084 53.6289 88.1816 53.999 88.7393 c 0
 54.335 89.2451 54.6816 89.7441 55.001 90.2607 c 0
 55.3525 90.8291 55.6709 91.418 56 92 c 0
 56.3828 92.6768 56.792 93.3389 57.2578 93.9609 c 0
 57.7158 94.5723 58.2217 95.1465 58.7422 95.7051 c 0
 59.1523 96.1455 59.5742 96.5742 60 97 c 2
 422 459 l 1
 422 567 l 1
 389 596 l 1
 210 596 l 1
 98 476 l 1
 56 515 l 1
 176 644 l 2
  Spiro
    176 644 ]
    177.998 645.961 o
    180.002 647.705 o
    182 649 o
    184.257 649.999 o
    186.743 651.001 o
    189 652 o
    191.738 652.703 o
    194.262 652.963 o
    197 653 [
    399 653 v
    403 653 o
    406 653 o
    406.999 652.963 o
    408.001 652.703 o
    409 652 o
    409.999 651.26 o
    411.001 650.74 o
    412 650 o
    412.999 649.26 o
    414.001 648.74 o
    415 648 o
    415.999 647.26 o
    417.001 646.74 o
    418 646 [
    470 601 v
    473 598 o
    473.74 597.001 o
    474.26 595.999 o
    475 595 o
    475.999 592.743 o
    477.001 590.257 o
    478 588 o
    478.703 585.262 o
    478.963 582.738 o
    479 580 [
    482 448 v
    482 444 o
    481.741 442.742 o
    481.259 441.258 o
    481 440 o
    480.26 437.743 o
    479.74 435.257 o
    479 433 o
    478.26 432.001 o
    477.74 430.999 o
    477 430 o
    474 427 v
    149 105 v
    480 105 v
    480 48 v
    80 48 v
    74 48 o
    72.2608 48.2957 o
    70.7392 49.0379 o
    69 50 o
    66.003 51.5536 o
    62.997 53.7801 o
    60 56 o
    57.2987 58.997 o
    55.0349 62.003 o
    53 65 o
    51.5935 68.996 o
    51.0739 73.004 o
    51 77 o
    51.2957 80.2558 o
    52.0379 83.7442 o
    53 87 o
    53.999 88.7392 o
    55.001 90.2608 o
    56 92 o
    57.2578 93.9611 o
    58.7422 95.7053 o
    60 97 [
    422 459 v
    422 567 v
    389 596 v
    210 596 v
    98 476 v
    56 515 v
    0 0 z
  EndSpiro
EndSplineSet
EndChar

StartChar: three
Encoding: 33 51 35
Width: 536
VWidth: 0
InSpiro: 1
Flags: HW
HStem: 51 57<154 317> 603 57<115 422>
VStem: 412 57<210 262> 422 58<583 603>
LayerCount: 2
Back
Fore
SplineSet
480 660 m 1xd0
 480 603 l 1xd0
 479 572 l 2
 479 569 479 567 478 564 c 0
 477 562 476 559 475 557 c 0
 474 555 472 553 470 551 c 2
 332 413 l 2
 333 413 335 413 336 413 c 0
 337 413 339 413 340 412 c 0
 341 411 342 411 343 410 c 0
 344 409 345 409 346 408 c 0
 347 407 348 407 349 406 c 2
 461 294 l 2
 462 293 462 292 463 291 c 0
 464 290 465 289 465 288 c 0
 466 286 467 283 468 281 c 0
 469 279 469 276 469 274 c 2
 469 198 l 2
 469 197 469 195 469 194 c 0
 469 193 468 192 468 191 c 0
 467 189 467 187 466 185 c 0
 465 184 465 183 464 182 c 0
 463 181 462 180 461 179 c 2
 351 60 l 2
 349 58 347 56 345 55 c 0
 343 54 340 53 338 52 c 0
 335 51 333 51 330 51 c 2
 141 51 l 2
 138 51 136 51 133 52 c 0
 131 53 128 54 126 55 c 0
 125 56 123 56 122 57 c 0
 121 58 120 59 119 60 c 2
 58 129 l 1
 101 167 l 1
 154 108 l 1
 317 108 l 1
 412 210 l 1
 412 262 l 1xe0
 317 357 l 1
 264 357 l 2
 262 357 260 357 258 357 c 0
 256 357 255 358 253 359 c 0
 250 360 247 363 244 365 c 0
 241 368 239 371 237 374 c 0
 235 377 235 381 235 385 c 0
 235 389 236 393 237 396 c 0
 238 398 239 399 240 401 c 0
 241 403 243 405 244 406 c 2
 421 583 l 1
 422 603 l 1
 115 603 l 1
 115 660 l 1
 480 660 l 1xd0
  Spiro
    480 660 v
    480 603 v
    479 572 ]
    478.963 569.262 o
    478.703 566.738 o
    478 564 o
    477.001 561.743 o
    475.999 559.257 o
    475 557 o
    473.705 555.002 o
    471.961 552.998 o
    470 551 [
    332 413 v
    336 413 o
    337.258 412.963 o
    338.742 412.703 o
    340 412 o
    340.999 411.26 o
    342.001 410.74 o
    343 410 o
    343.999 409.26 o
    345.001 408.74 o
    346 408 o
    346.999 407.26 o
    348.001 406.74 o
    349 406 [
    461 294 ]
    461.74 293.001 o
    462.26 291.999 o
    463 291 o
    463.962 290.001 o
    464.704 288.999 o
    465 288 o
    465.999 285.743 o
    467.001 283.257 o
    468 281 o
    468.703 278.743 o
    468.963 276.257 o
    469 274 [
    469 198 v
    469 194 o
    468.741 193.001 o
    468.259 191.999 o
    468 191 o
    467.26 189.002 o
    466.74 186.998 o
    466 185 o
    465.26 184.001 o
    464.74 182.999 o
    464 182 o
    461 179 v
    351 60 ]
    349.002 58.0389 o
    346.998 56.2947 o
    345 55 o
    342.743 54.001 o
    340.257 52.999 o
    338 52 o
    335.262 51.2967 o
    332.738 51.0369 o
    330 51 [
    141 51 ]
    138.262 51.0369 o
    135.738 51.2967 o
    133 52 o
    130.743 52.999 o
    128.257 54.001 o
    126 55 o
    124.742 55.7402 o
    123.258 56.2598 o
    122 57 o
    119 60 v
    58 129 v
    101 167 v
    154 108 v
    317 108 v
    412 210 v
    412 262 v
    317 357 v
    264 357 v
    258 357 o
    256.261 357.296 o
    254.739 358.038 o
    253 359 o
    250.003 360.554 o
    246.997 362.78 o
    244 365 o
    241.299 367.997 o
    239.035 371.003 o
    237 374 o
    235.593 377.293 o
    235.074 381.041 o
    235 385 o
    235.296 388.959 o
    236.038 392.707 o
    237 396 o
    237.999 397.739 o
    239.001 399.261 o
    240 401 o
    241.258 402.961 o
    242.742 404.705 o
    244 406 [
    421 583 v
    422 603 v
    115 603 v
    115 660 v
    0 0 z
  EndSpiro
EndSplineSet
EndChar

StartChar: four
Encoding: 34 52 36
Width: 536
VWidth: 0
InSpiro: 1
Flags: HW
HStem: 49 21G<360 417> 238 57<113 359 417 481> 603 57<335 359>
VStem: 56 57<295 383> 360 57<49 237 295 602>
LayerCount: 2
Back
Fore
SplineSet
359 602 m 1
 335 603 l 1
 113 383 l 1
 113 295 l 1
 359 295 l 1
 359 602 l 1
162 238 m 1
 84 238 l 2
 82 238 79 238 77 239 c 0
 75 240 72 241 70 242 c 0
 66 245 63 248 60 252 c 0
 59 254 58 256 57 259 c 0
 56 262 56 264 56 267 c 2
 56 395 l 2
 56 397 56 400 57 402 c 0
 58 404 59 407 60 409 c 0
 60 410 61 411 62 412 c 0
 63 413 63 414 64 415 c 2
 304 652 l 2
 305 653 306 653 307 654 c 0
 308 655 309 656 310 656 c 0
 312 657 315 658 317 659 c 0
 319 660 322 660 324 660 c 2
 388 659 l 2
 391 659 393 659 396 658 c 0
 399 657 401 656 403 655 c 0
 407 653 411 649 413 645 c 0
 414 643 416 641 416 638 c 0
 416 635 416 633 416 630 c 2
 417 295 l 1
 481 295 l 1
 481 238 l 1
 417 238 l 1
 417 49 l 1
 360 49 l 1
 360 237 l 1
 162 238 l 1
EndSplineSet
EndChar

StartChar: five
Encoding: 35 53 37
Width: 536
VWidth: 0
InSpiro: 1
Flags: HW
HStem: 51 58<54 324> 415 60<115 326> 598 61<115 481>
VStem: 54 61<475 598> 422 57<206 322>
LayerCount: 2
Back
Fore
SplineSet
54 659 m 1
 481 659 l 1
 481 598 l 1
 115 598 l 1
 115 475 l 1
 338 475 l 2
 341 475 343 475 346 474 c 0
 348 473 351 472 353 471 c 0
 355 470 357 468 359 466 c 2
 469 354 l 2
 471 352 473 350 474 348 c 0
 475 347 475 346 476 345 c 0
 477 344 477 342 477 341 c 0
 477 340 477 339 477 338 c 0
 477 337 477 335 477 334 c 2
 479 195 l 2
 479 194 479 192 479 191 c 0
 479 190 479 188 479 187 c 0
 479 186 479 185 478 184 c 0
 477 183 477 182 476 181 c 0
 475 180 475 178 474 177 c 0
 473 176 472 175 471 174 c 2
 357 58 l 2
 355 56 353 54 351 53 c 0
 350 52 349 52 348 51 c 0
 347 50 345 50 344 50 c 0
 343 50 341 50 340 50 c 0
 339 50 337 50 336 50 c 2
 54 51 l 1
 54 109 l 1
 324 107 l 1
 422 206 l 1
 420 322 l 1
 326 418 l 1
 54 415 l 1
 54 659 l 1
EndSplineSet
EndChar

StartChar: six
Encoding: 36 54 38
Width: 536
VWidth: 0
InSpiro: 1
Flags: HW
HStem: 55 57<207 327> 354 61<207 331>
VStem: 59 55<202 263 345 506> 421 57<204 265>
LayerCount: 2
Back
Fore
SplineSet
114 344 m 1
 174 403 l 2
 176 405 178 407 180 408 c 0
 182 409 184 410 186 411 c 0
 189 412 191 412 194 412 c 2
 338 414 l 2
 340 414 343 414 345 413 c 0
 347 412 350 411 352 410 c 0
 353 410 354 409 355 408 c 0
 356 407 357 407 358 406 c 2
 469 297 l 2
 471 295 473 293 474 291 c 0
 475 290 475 289 476 288 c 0
 477 287 477 285 477 284 c 0
 477 283 477 282 477 281 c 0
 477 280 477 278 477 277 c 2
 477 192 l 2
 477 191 477 189 477 188 c 0
 477 187 477 185 477 184 c 0
 477 183 477 181 476 180 c 0
 475 179 475 178 474 177 c 0
 473 175 471 173 469 171 c 2
 358 63 l 2
 356 61 354 59 352 58 c 0
 350 57 348 56 346 55 c 0
 343 54 341 54 338 54 c 2
 195 54 l 2
 193 54 190 54 188 55 c 0
 186 56 183 57 181 58 c 0
 179 59 177 61 175 63 c 2
 68 169 l 2
 66 171 65 172 64 174 c 0
 63 176 62 179 61 181 c 0
 60 183 60 186 60 188 c 2
 56 518 l 2
 56 521 56 524 57 527 c 0
 58 529 59 532 60 534 c 0
 61 536 63 538 65 540 c 2
 191 654 l 1
 228 611 l 1
 113 506 l 1
 114 344 l 1
207 112 m 1
 327 112 l 1
 420 204 l 1
 420 265 l 1
 331 354 l 1
 206 355 l 1
 114 262 l 1
 114 202 l 1
 207 112 l 1
EndSplineSet
EndChar

StartChar: seven
Encoding: 37 55 39
Width: 536
VWidth: 0
InSpiro: 1
Flags: HW
HStem: 49 21G<176 233> 598 61<54 420>
VStem: 176 57<49 315>
LayerCount: 2
Back
Fore
SplineSet
478 572 m 2
 478 571 478 569 478 568 c 0
 478 567 478 565 478 564 c 0
 478 563 478 561 477 560 c 0
 476 559 476 558 475 557 c 0
 474 555 472 553 470 551 c 2
 234 315 l 1
 233 49 l 1
 176 49 l 1
 177 327 l 2
 177 328 177 330 177 331 c 0
 177 332 178 334 178 335 c 0
 179 337 180 339 181 341 c 0
 182 342 182 343 183 344 c 0
 184 345 184 346 185 347 c 2
 420 583 l 1
 420 598 l 1
 54 598 l 1
 54 659 l 1
 478 659 l 1
 478 572 l 2
EndSplineSet
EndChar

StartChar: eight
Encoding: 38 56 40
Width: 536
VWidth: 0
Flags: HW
HStem: 55 56<216 318> 363 56<220 318> 602 57<218 318>
VStem: 57 58<213 254> 117 58<458 554> 359 58<458 560> 421 56<214 254>
LayerCount: 2
Back
Fore
SplineSet
126 583 m 2
 183 649 l 2
 185 651 187 652 189 654 c 0
 191 655 193 657 196 658 c 0
 199 659 202 659 205 659 c 2
 330 660 l 2
 333 660 335 660 338 659 c 0
 340 658 344 657 346 656 c 0
 348 655 349 653 351 651 c 2
 409 591 l 2
 411 589 413 587 414 585 c 0
 415 583 416 580 417 578 c 0
 418 576 418 574 418 571 c 2
 417 446 l 2
 417 443 417 440 416 438 c 0
 415 436 414 434 413 432 c 0
 412 430 410 428 408 426 c 2
 372 392 l 1
 472 285 l 2
 474 283 475 280 476 278 c 0
 477 276 477 273 478 271 c 0
 479 268 479 268 479 265 c 2
 477 200 l 2
 477 198 477 195 476 193 c 0
 475 191 474 189 473 187 c 0
 472 185 472 183 470 181 c 2
 349 62 l 2
 347 60 346 58 344 57 c 0
 342 56 339 56 337 55 c 0
 334 54 333 54 330 54 c 2
 204 55 l 2
 201 55 198 55 196 56 c 0
 194 57 191 58 189 59 c 0
 187 60 185 60 183 62 c 2
 66 181 l 2
 64 183 62 186 61 188 c 0
 60 190 59 192 58 194 c 0
 57 197 57 198 57 201 c 2
 58 266 l 2
 58 268 58 270 59 272 c 0
 60 274 61 277 62 279 c 0
 63 281 65 283 67 285 c 2
 165 390 l 1
 127 424 l 2
 125 426 122 428 121 430 c 0
 120 432 119 435 118 438 c 0
 117 441 117 443 117 446 c 2
 119 565 l 2
 119 567 119 569 120 571 c 0
 121 573 121 576 122 578 c 0
 123 580 124 581 126 583 c 2
116 254 m 1
 115 213 l 1
 216 111 l 1
 318 110 l 1
 421 214 l 1
 422 254 l 1
 318 363 l 1
 220 361 l 1
 116 254 l 1
176 554 m 1
 175 458 l 1
 219 420 l 1
 319 419 l 1
 359 458 l 1
 360 560 l 1
 318 603 l 1
 218 602 l 1
 176 554 l 1
EndSplineSet
EndChar

StartChar: nine
Encoding: 39 57 41
Width: 536
VWidth: 0
InSpiro: 1
Flags: HW
HStem: 294 57<152 259> 603 57<213 377>
VStem: 52 57<403 498> 420 56<149 437 503 558>
LayerCount: 2
Back
Fore
SplineSet
111 498 m 1
 109 403 l 1
 152 351 l 1
 259 351 l 1
 417 503 l 1
 418 558 l 1
 377 603 l 1
 213 601 l 1
 111 498 l 1
181 650 m 2
 182 652 184 653 186 654 c 0
 188 655 191 656 193 657 c 0
 196 658 198 658 201 658 c 2
 389 660 l 2
 392 660 395 660 398 659 c 0
 400 658 403 657 405 656 c 0
 407 655 409 653 411 651 c 2
 468 588 l 2
 469 587 469 586 470 585 c 0
 471 584 471 583 472 582 c 0
 473 580 474 577 475 575 c 0
 476 573 476 570 476 568 c 2
 476 137 l 2
 476 135 476 132 475 130 c 0
 474 128 473 125 472 123 c 0
 471 121 469 120 468 118 c 2
 406 53 l 2
 404 51 402 49 400 48 c 0
 398 47 396 46 393 45 c 0
 388 44 383 44 378 45 c 0
 373 46 369 49 365 52 c 0
 361 55 358 60 357 65 c 0
 356 70 356 74 357 79 c 0
 357 81 358 84 359 86 c 0
 360 88 362 90 364 92 c 2
 420 149 l 1
 421 437 l 1
 290 302 l 2
 288 300 286 298 284 297 c 0
 282 296 280 296 278 295 c 0
 277 295 276 294 275 294 c 0
 274 294 272 294 271 294 c 2
 138 294 l 2
 135 294 132 294 129 295 c 0
 127 296 124 297 122 298 c 0
 120 300 118 302 116 304 c 2
 59 375 l 2
 57 377 56 379 55 381 c 0
 54 383 54 385 53 387 c 0
 53 388 52 389 52 390 c 0
 52 391 52 392 52 393 c 2
 54 510 l 2
 54 513 54 515 55 518 c 0
 55 520 56 522 57 524 c 0
 58 526 60 528 62 530 c 2
 181 650 l 2
EndSplineSet
EndChar

StartChar: ssharp
Encoding: 40 223 42
Width: 536
VWidth: 0
InSpiro: 1
Flags: HW
HStem: 54 57<278.156 380.695> 601 58<214.68 259.602>
VStem: 55 58<48.8281 502.93> 300 58<518.555 557.617> 422 57<152.344 250.977>
LayerCount: 2
Back
Fore
SplineSet
54 515 m 2
 54 518 54 520 55 523 c 0
 56 525 57 528 58 530 c 0
 59 532 61 534 63 536 c 2
 184 650 l 2
 185 651 186 652 187 653 c 0
 188 654 189 654 190 655 c 0
 192 656 194 657 196 657 c 0
 197 657 199 658 200 658 c 0
 201 658 203 658 204 658 c 2
 271 658 l 2
 274 658 276 658 279 657 c 0
 281 656 284 655 286 654 c 0
 288 653 290 651 292 649 c 2
 349 589 l 2
 350 588 351 587 352 586 c 0
 353 585 353 584 354 583 c 0
 355 581 356 579 356 577 c 0
 356 576 357 574 357 573 c 0
 357 572 357 570 357 569 c 2
 357 507 l 2
 357 506 357 504 357 503 c 0
 357 502 356 501 356 500 c 0
 356 499 355 497 355 496 c 0
 355 495 355 494 354 493 c 0
 353 492 353 491 352 490 c 0
 351 489 350 489 349 488 c 2
 309 445 l 1
 471 283 l 2
 473 281 475 279 476 277 c 0
 477 275 478 273 478 271 c 0
 478 270 479 268 479 267 c 0
 479 266 479 264 479 263 c 2
 478 140 l 2
 478 137 478 135 477 132 c 0
 477 130 476 128 475 126 c 0
 474 124 472 122 470 120 c 2
 413 64 l 2
 411 62 409 60 407 59 c 0
 405 58 402 57 400 56 c 0
 398 55 395 55 393 55 c 2
 267 53 l 2
 266 53 264 53 263 53 c 0
 262 53 261 54 260 54 c 0
 258 55 255 56 253 57 c 0
 251 58 249 60 247 62 c 2
 186 122 l 1
 226 162 l 1
 278 111 l 1
 381 112 l 1
 421 152 l 1
 422 251 l 1
 248 424 l 2
 246 426 244 428 243 430 c 0
 242 432 242 435 241 437 c 0
 240 439 240 442 240 444 c 0
 240 446 240 449 240 451 c 0
 240 454 242 456 243 458 c 0
 244 460 246 462 248 464 c 2
 300 519 l 1
 300 558 l 1
 259 601 l 1
 215 601 l 1
 111 503 l 1
 112 49 l 1
 55 49 l 1
 54 515 l 2
EndSplineSet
EndChar

StartChar: section
Encoding: 41 167 43
Width: 536
VWidth: 0
Flags: HW
HStem: -71 57<115 258> 600 57<214 356>
VStem: 55 58<336 437> 116 57<512 556> 298 58<31 73> 357 57<150 251>
LayerCount: 2
Back
Fore
SplineSet
332 126 m 1
 357 150 l 1
 359 251 l 1
 141 459 l 1
 114 437 l 1
 113 336 l 1
 332 126 l 1
356 73 m 1
 356 20 l 2
 356 17 355 15 355 12 c 1
 354 10 353 8 352 6 c 0
 351 4 350 2 348 0 c 2
 292 -61 l 2
 290 -63 288 -65 286 -66 c 0
 283 -67 281 -68 279 -69 c 0
 276 -70 273 -70 271 -70 c 2
 115 -71 l 1
 115 -14 l 1
 258 -13 l 1
 298 31 l 1
 298 79 l 1
 64 303 l 2
 62 305 60 307 59 309 c 0
 58 311 57 314 56 316 c 0
 55 319 55 322 55 324 c 2
 57 450 l 2
 57 453 57 455 58 458 c 0
 59 460 60 463 61 465 c 0
 63 467 65 469 67 471 c 2
 116 512 l 1
 116 567 l 2
 116 570 116 572 117 575 c 0
 117 577 118 579 119 581 c 0
 120 583 122 585 123 587 c 2
 180 648 l 2
 181 650 183 652 186 653 c 0
 188 654 190 655 193 656 c 0
 195 657 198 657 201 657 c 2
 356 658 l 1
 356 601 l 1
 214 600 l 1
 173 556 l 1
 173 508 l 1
 407 284 l 2
 409 282 411 280 412 278 c 0
 414 275 415 273 415 271 c 0
 416 268 416 265 416 263 c 2
 414 137 l 2
 414 134 414 131 413 129 c 0
 412 126 411 124 410 122 c 0
 409 120 407 118 405 116 c 2
 356 73 l 1
EndSplineSet
EndChar

StartChar: numbersign
Encoding: 42 35 44
Width: 536
VWidth: 0
InSpiro: 1
Flags: HW
HStem: 293 61<54 115 177 298 359 420> 476 61<54 114 177 298 360 420> 578 20G<115 177 298 359>
VStem: 115 61<232 292 355 476 538 598> 298 61<233 293 353 476 538 598>
LayerCount: 2
Back
Fore
SplineSet
298 476 m 1
 177 476 l 1
 176 355 l 1
 298 353 l 1
 298 476 l 1
115 598 m 1
 177 598 l 1
 176 538 l 1
 298 537 l 1
 298 598 l 1
 359 598 l 1
 360 538 l 1
 420 536 l 1
 420 476 l 1
 359 476 l 1
 359 353 l 1
 420 353 l 1
 420 294 l 1
 359 293 l 1
 359 233 l 1
 298 232 l 1
 299 293 l 1
 177 294 l 1
 175 232 l 1
 115 232 l 1
 115 292 l 1
 54 293 l 1
 53 354 l 1
 115 354 l 1
 114 476 l 1
 54 476 l 1
 53 537 l 1
 116 537 l 1
 115 598 l 1
EndSplineSet
EndChar

StartChar: at
Encoding: 43 64 45
Width: 536
VWidth: 0
InSpiro: 1
Flags: HW
HStem: 55 57<154 481> 299 57<236 381> 377 98<301 356> 417 57<274 300> 602 57<156 381>
VStem: 57 57<153 559> 178 58<356 380> 301 57<378 417> 421 57<397 558>
LayerCount: 2
Back
Fore
SplineSet
142 55 m 2xdf80
 140 55 137 55 135 56 c 0
 133 57 131 58 129 59 c 0
 128 60 127 60 126 61 c 0
 125 62 124 62 123 63 c 2
 63 119 l 2
 61 121 59 123 58 125 c 0
 57 127 56 130 55 132 c 0
 54 135 54 137 54 140 c 2
 57 570 l 2
 57 571 57 573 57 574 c 0
 57 575 58 577 58 578 c 0
 58 580 59 582 60 584 c 0
 61 586 63 588 65 590 c 2
 123 650 l 2
 125 652 127 654 129 655 c 0
 131 656 134 657 136 658 c 0
 139 659 141 659 144 659 c 2
 393 658 l 2
 395 658 398 658 400 657 c 0
 402 656 405 655 407 654 c 0
 409 653 411 651 413 649 c 2
 472 589 l 2
 474 587 476 585 477 583 c 0
 478 581 479 579 479 577 c 0
 479 576 480 574 480 573 c 0
 480 572 480 570 480 569 c 2
 478 385 l 2
 478 384 478 382 478 381 c 0
 478 380 478 379 478 378 c 0
 478 377 478 375 477 374 c 0
 476 373 476 372 475 371 c 0
 474 369 472 368 471 366 c 2
 413 305 l 2
 411 303 409 301 407 300 c 0
 406 299 405 299 404 298 c 0
 403 297 401 297 400 297 c 0
 399 297 397 297 396 297 c 0
 395 297 393 297 392 297 c 2
 206 299 l 2
 203 299 201 299 198 300 c 0
 195 301 193 301 191 303 c 0
 189 304 187 306 186 308 c 0
 185 310 183 312 182 314 c 0
 181 316 180 319 179 321 c 0
 178 323 178 326 178 328 c 2
 179 393 l 2
 179 396 179 398 180 401 c 0
 181 403 182 406 183 408 c 0
 184 410 186 412 188 414 c 2
 243 466 l 2
 244 467 245 467 246 468 c 0
 247 469 248 469 249 470 c 0
 251 471 253 472 255 473 c 0
 257 474 260 474 262 474 c 2xdf80
 328 475 l 2xef80
 331 475 333 475 336 474 c 0xdf80
 339 473 341 472 343 471 c 0
 347 468 350 465 353 461 c 0
 354 459 355 456 356 454 c 0
 357 452 357 449 357 447 c 2
 358 378 l 1
 301 377 l 1xef80
 300 417 l 1
 274 417 l 1
 236 380 l 1
 236 356 l 1
 381 354 l 1
 421 397 l 1
 423 558 l 1
 381 601 l 1
 156 602 l 1
 114 559 l 1
 111 153 l 1
 154 112 l 1
 482 108 l 1
 481 51 l 1
 142 55 l 2xdf80
  Spiro
    142 55 ]
    139.743 55.0369 o
    137.257 55.2967 o
    135 56 o
    129 59 o
    128.001 59.7402 o
    126.999 60.2598 o
    126 61 o
    125.001 61.7402 o
    123.999 62.2598 o
    123 63 [
    63 119 ]
    61.0389 120.998 o
    59.2947 123.002 o
    58 125 o
    57.001 127.257 o
    55.999 129.743 o
    55 132 o
    54.2967 134.738 o
    54.0369 137.262 o
    54 140 [
    57 570 v
    57 574 o
    57.2588 575.258 o
    57.7412 576.742 o
    58 578 o
    58.2957 579.998 o
    59.0379 582.002 o
    60 584 o
    61.2947 585.998 o
    63.0389 588.002 o
    65 590 [
    123 650 ]
    124.998 651.961 o
    127.002 653.705 o
    129 655 o
    131.257 655.999 o
    133.743 657.001 o
    136 658 o
    138.738 658.703 o
    141.262 658.963 o
    144 659 [
    393 658 ]
    395.257 657.963 o
    397.743 657.703 o
    400 657 o
    402.257 656.001 o
    404.743 654.999 o
    407 654 o
    408.998 652.705 o
    411.002 650.961 o
    413 649 [
    472 589 ]
    473.961 587.002 o
    475.705 584.998 o
    477 583 o
    477.962 581.002 o
    478.704 578.998 o
    479 577 o
    479.259 575.742 o
    479.741 574.258 o
    480 573 o
    480 569 v
    478 385 v
    478 381 o
    478 378 o
    477.963 376.742 o
    477.703 375.258 o
    477 374 o
    476.26 373.001 o
    475.74 371.999 o
    475 371 o
    473.742 369.261 o
    472.258 367.739 o
    471 366 [
    413 305 ]
    411.002 303.039 o
    408.998 301.295 o
    407 300 o
    406.001 299.26 o
    404.999 298.74 o
    404 298 o
    402.742 297.297 o
    401.258 297.037 o
    400 297 o
    396 297 o
    392 297 v
    206 299 ]
    203.262 299.037 o
    200.738 299.297 o
    198 300 o
    195.299 300.777 o
    193.035 301.557 o
    191 303 o
    189.039 304.295 o
    187.295 306.039 o
    186 308 o
    184.742 309.998 o
    183.258 312.002 o
    182 314 o
    181.001 316.257 o
    179.999 318.743 o
    179 321 o
    178.297 323.257 o
    178.037 325.743 o
    178 328 [
    179 393 ]
    179.037 395.738 o
    179.297 398.262 o
    180 401 o
    180.999 403.257 o
    182.001 405.743 o
    183 408 o
    184.295 409.998 o
    186.039 412.002 o
    188 414 [
    243 466 ]
    243.999 466.74 o
    245.001 467.26 o
    246 468 o
    246.999 468.74 o
    248.001 469.26 o
    249 470 o
    255 473 o
    257.257 473.703 o
    259.743 473.963 o
    262 474 [
    328 475 ]
    330.738 474.963 o
    333.262 474.703 o
    336 474 o
    338.701 473.001 o
    340.965 471.999 o
    343 471 o
    346.7 467.966 o
    349.966 464.7 o
    353 461 o
    353.999 458.743 o
    355.001 456.257 o
    356 454 o
    356.703 451.743 o
    356.963 449.257 o
    357 447 [
    358 378 v
    301 377 v
    300 417 v
    274 417 v
    236 380 v
    236 356 v
    381 354 v
    421 397 v
    423 558 v
    381 601 v
    156 602 v
    114 559 v
    111 153 v
    154 112 v
    482 108 v
    481 51 v
    0 0 z
  EndSpiro
EndSplineSet
EndChar

StartChar: percent
Encoding: 44 37 46
Width: 536
VWidth: 0
InSpiro: 1
Flags: HW
HStem: -15 58<357 418> 113 57<358 417> 475 57<115 174> 602 58<115 174>
VStem: 55 57<534 599> 178 58<534 599> 298 57<46 110> 421 58<46 110>
LayerCount: 2
Back
Fore
SplineSet
421 533 m 2
 423 535 425 537 427 538 c 0
 429 539 432 540 435 541 c 0
 440 542 446 542 451 541 c 0
 456 540 461 537 465 533 c 0
 469 529 472 524 473 519 c 0
 474 514 474 509 473 504 c 0
 472 501 471 499 470 496 c 0
 469 493 467 491 465 489 c 2
 107 123 l 2
 105 121 103 119 101 118 c 0
 99 117 96 116 93 115 c 0
 88 114 82 114 77 115 c 0
 72 116 67 119 63 123 c 0
 59 127 57 132 55 137 c 0
 53 142 53 148 54 153 c 0
 55 156 56 159 57 161 c 0
 58 163 60 165 62 167 c 2
 421 533 l 2
388 170 m 0
 404 170 420 166 434 158 c 0
 448 150 458 138 466 124 c 0
 474 110 478 94 478 78 c 0
 478 62 474 46 466 32 c 0
 458 18 448 6 434 -2 c 0
 420 -10 404 -14 388 -14 c 0
 372 -14 356 -10 342 -2 c 0
 329 6 318 18 310 32 c 0
 302 46 297 62 297 78 c 0
 297 94 302 110 310 124 c 0
 318 138 329 150 342 158 c 0
 356 166 372 170 388 170 c 0
355 78 m 0
 355 72 356 66 359 60 c 0
 362 55 366 50 371 47 c 0
 376 44 382 43 388 43 c 0
 394 43 399 44 404 47 c 0
 409 50 413 55 416 60 c 0
 419 66 421 72 421 78 c 0
 421 84 419 91 416 96 c 0
 413 101 409 105 404 108 c 0
 399 111 394 113 388 113 c 0
 382 113 376 111 371 108 c 0
 366 105 362 101 359 96 c 0
 356 91 355 84 355 78 c 0
145 659 m 0
 161 659 177 654 191 646 c 0
 204 638 215 626 223 613 c 0
 231 599 235 583 235 567 c 0
 235 551 231 534 223 520 c 0
 215 507 204 495 191 487 c 0
 177 479 161 474 145 474 c 0
 129 474 113 479 99 487 c 0
 85 495 74 506 66 520 c 0
 58 534 54 551 54 567 c 0
 54 583 58 599 66 613 c 0
 74 627 85 638 99 646 c 0
 113 654 129 659 145 659 c 0
112 567 m 0
 112 561 113 555 116 549 c 0
 119 544 123 539 128 536 c 0
 133 533 139 532 145 532 c 0
 151 532 156 533 161 536 c 0
 166 539 170 544 173 549 c 0
 176 555 178 561 178 567 c 0
 178 573 176 580 173 585 c 0
 170 590 166 594 161 597 c 0
 156 600 151 602 145 602 c 0
 139 602 133 600 128 597 c 0
 123 594 119 590 116 585 c 0
 113 580 112 573 112 567 c 0
EndSplineSet
EndChar

StartChar: underscore
Encoding: 45 95 47
Width: 536
VWidth: 0
Flags: HW
HStem: -13 62<54 481>
LayerCount: 2
Back
Fore
SplineSet
54 49 m 1
 481 49 l 1
 481 -13 l 1
 54 -13 l 1
 54 49 l 1
EndSplineSet
EndChar

StartChar: ampersand
Encoding: 46 38 48
Width: 536
VWidth: 0
InSpiro: 1
Flags: HW
HStem: 53 58<155 256> 298 62<141 177> 538 57<155 198>
VStem: 60 57<152 259 393 496> 177 56<275 298> 237 57<398 498>
LayerCount: 2
Back
Fore
SplineSet
186 242 m 2
 184 244 182 245 181 247 c 0
 180 249 179 251 178 253 c 0
 177 255 177 258 177 260 c 2
 177 298 l 1
 141 298 l 1
 114 259 l 1
 112 152 l 1
 155 111 l 1
 256 110 l 1
 287 141 l 1
 186 242 l 2
65 368 m 2
 64 370 63 371 62 373 c 0
 62 374 61 374 61 375 c 0
 61 376 60 377 60 378 c 0
 60 379 60 380 60 381 c 0
 60 382 60 383 60 384 c 2
 59 507 l 2
 59 508 59 510 59 511 c 0
 59 512 60 513 60 514 c 0
 60 515 61 517 61 518 c 0
 61 519 61 520 62 521 c 0
 63 522 63 523 64 524 c 0
 65 525 66 526 67 527 c 2
 122 586 l 2
 124 588 126 590 128 591 c 0
 130 592 133 593 135 594 c 0
 138 595 140 595 143 595 c 2
 210 594 l 2
 212 594 215 594 217 593 c 0
 219 592 222 591 224 590 c 0
 225 589 226 589 227 588 c 0
 228 587 229 587 230 586 c 2
 286 531 l 2
 287 530 287 529 288 528 c 0
 289 527 290 526 290 525 c 0
 291 523 292 520 293 518 c 0
 294 516 294 513 294 511 c 2
 297 387 l 2
 297 386 297 384 297 383 c 0
 297 382 296 380 296 379 c 0
 295 377 295 374 294 372 c 0
 293 371 293 370 292 369 c 0
 291 368 290 367 289 366 c 2
 233 309 l 1
 233 275 l 1
 328 182 l 1
 433 286 l 1
 474 246 l 1
 368 141 l 1
 471 39 l 1
 431 -1 l 1
 328 101 l 1
 288 61 l 2
 286 59 284 57 282 56 c 0
 280 55 277 54 275 53 c 0
 272 52 270 52 267 52 c 2
 143 53 l 2
 141 53 138 53 136 54 c 0
 134 55 132 56 130 57 c 0
 129 58 128 58 127 59 c 0
 126 60 125 60 124 61 c 2
 64 120 l 2
 62 122 60 124 59 126 c 0
 58 128 57 131 56 133 c 0
 55 136 55 138 55 141 c 2
 57 268 l 2
 57 269 57 270 57 271 c 0
 57 272 57 273 57 274 c 0
 57 275 58 276 58 277 c 0
 58 278 59 278 59 279 c 0
 60 281 61 282 62 284 c 2
 92 328 l 1
 65 368 l 2
240 398 m 1
 237 498 l 1
 198 537 l 1
 155 538 l 1
 116 496 l 1
 117 393 l 1
 139 360 l 1
 201 360 l 1
 240 398 l 1
EndSplineSet
EndChar

StartChar: period
Encoding: 47 46 50
Width: 536
VWidth: 0
Flags: HW
HStem: 49 122<177 298>
VStem: 177 121<49 171>
LayerCount: 2
Back
Fore
SplineSet
177 171 m 1
 298 171 l 1
 298 49 l 1
 177 49 l 1
 177 171 l 1
EndSplineSet
EndChar

StartChar: comma
Encoding: 48 44 51
Width: 536
VWidth: 0
InSpiro: 1
Flags: HW
HStem: -71 242
VStem: 237 122<107 171>
LayerCount: 2
Back
Fore
SplineSet
359 83 m 2
 359 80 359 78 359 75 c 0
 359 72 358 70 357 68 c 0
 355 64 353 60 351 56 c 0
 350 54 349 52 348 50 c 0
 347 48 345 46 343 44 c 2
 227 -71 l 1
 144 8 l 1
 237 107 l 1
 237 171 l 1
 358 171 l 1
 359 83 l 2
EndSplineSet
EndChar

StartChar: colon
Encoding: 49 58 52
Width: 536
VWidth: 0
Flags: HW
HStem: 49 122<177 298> 293 122<177 298>
VStem: 177 121<49 171 293 415>
LayerCount: 2
Back
Fore
SplineSet
177 415 m 1
 298 415 l 1
 298 293 l 1
 177 293 l 1
 177 415 l 1
177 171 m 1
 298 171 l 1
 298 49 l 1
 177 49 l 1
 177 171 l 1
EndSplineSet
EndChar

StartChar: plus
Encoding: 50 43 53
Width: 536
VWidth: 0
Flags: HW
HStem: 293 61<54 237 298 481>
VStem: 237 61<109 293 354 537>
LayerCount: 2
Back
Fore
SplineSet
237 537 m 1
 298 537 l 1
 298 354 l 1
 481 354 l 1
 481 293 l 1
 298 293 l 1
 298 109 l 1
 237 109 l 1
 237 293 l 1
 54 293 l 1
 54 354 l 1
 237 354 l 1
 237 537 l 1
EndSplineSet
EndChar

StartChar: notsign
Encoding: 51 172 54
Width: 536
VWidth: 0
Flags: HW
HStem: 537 61<54 421>
VStem: 421 60<415 537>
LayerCount: 2
Back
Fore
SplineSet
54 598 m 1
 481 598 l 1
 481 415 l 1
 421 415 l 1
 421 537 l 1
 54 537 l 1
 54 598 l 1
EndSplineSet
EndChar

StartChar: macron
Encoding: 52 175 55
Width: 536
VWidth: 0
Flags: HW
HStem: 598 61<54 481>
LayerCount: 2
Back
Fore
SplineSet
54 659 m 1
 481 659 l 1
 481 598 l 1
 54 598 l 1
 54 659 l 1
EndSplineSet
EndChar

StartChar: degree
Encoding: 53 176 56
Width: 536
VWidth: 0
Flags: HW
HStem: 417 57<193 283> 603 57<194 282>
VStem: 120 57<490 587> 299 57<490 587>
LayerCount: 2
Back
Fore
SplineSet
238 660 m 0
 304 660 356 604 356 538 c 0
 356 472 304 417 238 417 c 0
 172 417 120 472 120 538 c 0
 120 604 172 660 238 660 c 0
177 538 m 0
 177 502 205 474 238 474 c 0
 271 474 299 502 299 538 c 0
 299 574 271 603 238 603 c 0
 205 603 177 574 177 538 c 0
EndSplineSet
EndChar

StartChar: periodcentered
Encoding: 54 183 57
Width: 536
VWidth: 0
Flags: HW
HStem: 231 123<177 298>
VStem: 177 121<231 354>
LayerCount: 2
Back
Fore
SplineSet
177 354 m 1
 298 354 l 1
 298 231 l 1
 177 231 l 1
 177 354 l 1
EndSplineSet
EndChar

StartChar: asciicircum
Encoding: 55 94 58
Width: 536
VWidth: 0
InSpiro: 1
Flags: HW
HStem: 487 172
VStem: 124 286
LayerCount: 2
Back
Fore
SplineSet
247 650 m 2
 249 652 251 654 253 655 c 0
 255 656 257 657 260 658 c 0
 265 659 269 659 274 658 c 0
 277 657 279 656 281 655 c 0
 283 654 285 652 287 650 c 2
 410 528 l 1
 370 487 l 1
 267 589 l 1
 165 488 l 1
 124 528 l 1
 247 650 l 2
EndSplineSet
EndChar

StartChar: asciitilde
Encoding: 56 126 59
Width: 536
VWidth: 0
InSpiro: 1
Flags: HW
HStem: 478 57<340 380> 600 57<156 197>
LayerCount: 2
Back
Fore
SplineSet
125 649 m 2
 126 650 127 650 128 651 c 0
 129 652 130 652 131 653 c 0
 133 654 135 655 137 656 c 0
 139 657 142 657 144 657 c 2
 209 658 l 2
 212 658 214 658 217 657 c 0
 219 656 222 655 224 654 c 0
 226 653 228 651 230 649 c 2
 340 535 l 1
 380 535 l 1
 431 587 l 1
 472 547 l 1
 413 487 l 2
 411 485 409 483 407 482 c 0
 405 481 402 480 400 479 c 0
 397 478 395 478 392 478 c 2
 328 478 l 2
 326 478 323 478 321 479 c 0
 319 480 316 481 314 482 c 0
 312 483 310 485 308 487 c 2
 197 600 l 1
 156 600 l 1
 104 549 l 1
 64 590 l 1
 125 649 l 2
EndSplineSet
EndChar

StartChar: diaeresis
Encoding: 57 168 60
Width: 536
VWidth: 0
Flags: HW
HStem: 537 122<54 177 359 481>
VStem: 54 123<537 659> 359 122<537 659>
LayerCount: 2
Back
Fore
SplineSet
114 659 m 1
 177 659 l 1
 177 598 l 1
 114 598 l 1
 114 659 l 1
298 659 m 1
 360 659 l 1
 360 598 l 1
 298 598 l 1
 298 659 l 1
EndSplineSet
EndChar

StartChar: grave
Encoding: 58 96 61
Width: 536
VWidth: 0
InSpiro: 1
Flags: HW
HStem: 480 178
VStem: 179 178
LayerCount: 2
Back
Fore
SplineSet
348 529 m 2
 350 527 352 525 353 523 c 0
 354 521 355 518 356 516 c 0
 357 511 357 506 356 501 c 0
 355 496 352 492 348 488 c 0
 345 485 341 482 336 481 c 0
 331 480 326 480 321 481 c 0
 319 481 316 482 314 483 c 0
 312 484 310 486 308 488 c 2
 187 608 l 2
 185 610 183 612 182 614 c 0
 181 616 180 619 180 621 c 0
 179 626 179 631 180 636 c 0
 181 641 183 645 187 649 c 0
 191 653 195 655 200 656 c 0
 205 657 210 657 215 656 c 0
 217 656 220 655 222 654 c 0
 224 653 226 651 228 649 c 2
 348 529 l 2
EndSplineSet
EndChar

StartChar: acute
Encoding: 59 180 62
Width: 536
VWidth: 0
Flags: HW
HStem: 477 181
VStem: 179 180
LayerCount: 2
Back
Fore
SplineSet
188 486 m 0
 182 492 179 500 179 507 c 0
 179 516 183 524 188 529 c 2
 308 650 l 2
 314 656 322 659 329 659 c 0
 338 659 346 655 351 650 c 0
 356 645 360 637 360 628 c 0
 360 621 357 613 351 607 c 2
 231 486 l 2
 226 481 218 477 209 477 c 0
 202 477 194 480 188 486 c 0
EndSplineSet
EndChar

StartChar: cedilla
Encoding: 60 184 63
Width: 536
VWidth: 0
InSpiro: 1
Flags: HW
HStem: -70 57<116 196>
VStem: 238 57<31 172>
LayerCount: 2
Back
Fore
SplineSet
295 19 m 2
 295 18 295 16 295 15 c 0
 295 14 294 13 294 12 c 0
 294 11 293 9 293 8 c 0
 293 7 293 6 292 5 c 0
 291 4 291 3 290 2 c 0
 289 1 288 0 287 -1 c 2
 229 -61 l 2
 227 -63 225 -65 223 -66 c 0
 221 -67 218 -68 216 -69 c 0
 214 -70 211 -70 209 -70 c 2
 116 -70 l 1
 116 -12 l 1
 196 -12 l 1
 238 31 l 1
 238 172 l 1
 295 172 l 1
 295 19 l 2
EndSplineSet
EndChar

StartChar: igrave
Encoding: 63 236 66
Width: 536
VWidth: 0
InSpiro: 1
Flags: HW
HStem: 49 21G<237 298>
VStem: 237 61<49 415>
LayerCount: 2
Back
Fore
SplineSet
237 476 m 1
 298 476 l 1
 298 49 l 1
 237 49 l 1
 237 476 l 1
EndSplineSet
Refer: 61 96 N 1 0 0 1 -63 59 2
EndChar

StartChar: ydiaeresis
Encoding: 68 -1 71
Width: 536
VWidth: 0
Flags: HW
HStem: 455 20G<55 113 360 419> 598 61<115 177 298 359>
VStem: 56 59<273 474> 115 62<598 659> 298 61<598 659> 360 59<214 475>
LayerCount: 2
Back
Fore
SplineSet
224 78 m 1xec
 65 240 l 2
 62 243 56 250 56 260 c 2
 55 474 l 1
 113 475 l 1
 115 273 l 1
 265 120 l 1
 360 214 l 1
 360 475 l 1
 419 475 l 1
 419 202 l 2
 419 192 413 184 410 181 c 2
 105 -122 l 1
 64 -81 l 1
 224 78 l 1xec
115 659 m 1xdc
 177 659 l 1
 177 598 l 1
 115 598 l 1
 115 659 l 1xdc
298 659 m 1
 359 659 l 1
 359 598 l 1
 298 598 l 1
 298 659 l 1
EndSplineSet
EndChar

StartChar: onequarter
Encoding: 72 188 75
Width: 536
VWidth: 0
Flags: HW
HStem: 113 60<361 421 481 511>
VStem: 146 60<414 594> 421 60<50 113 173 249>
LayerCount: 2
Back
Fore
SplineSet
511 173 m 1
 511 113 l 1
 481 113 l 1
 480 50 l 1
 420 50 l 1
 421 113 l 1
 330 114 l 2
 308 114 300 133 300 144 c 2
 300 145 l 1
 301 201 l 2
 301 210 307 218 310 221 c 2
 401 313 l 2
 407 320 417 322 421 322 c 2
 451 323 l 2
 452 323 452 323 453 323 c 0
 473 323 482 305 482 294 c 0
 482 293 482 294 482 293 c 2
 481 173 l 1
 511 173 l 1
421 173 m 1
 422 249 l 1
 361 187 l 1
 361 174 l 1
 421 173 l 1
206 414 m 1
 146 414 l 1
 147 594 l 1
 138 586 l 1
 96 628 l 1
 156 687 l 2
 159 690 165 696 177 696 c 0
 188 696 207 687 207 666 c 2
 206 414 l 1
424 560 m 2
 430 566 438 569 446 569 c 0
 454 569 462 566 468 560 c 0
 474 554 477 546 477 538 c 0
 477 530 474 522 469 516 c 2
 109 150 l 2
 103 144 96 141 88 141 c 0
 80 141 72 144 66 150 c 0
 60 156 57 164 57 172 c 0
 57 180 60 188 65 194 c 2
 424 560 l 2
EndSplineSet
EndChar

StartChar: onehalf
Encoding: 73 189 76
Width: 536
VWidth: 0
Flags: HW
HStem: 51 60<402 512> 264 60<400 440>
VStem: 146 60<414 594>
LayerCount: 2
Back
Fore
SplineSet
512 111 m 1
 512 51 l 1
 359 51 l 2
 337 51 329 70 329 81 c 2
 329 110 l 2
 329 120 334 128 337 131 c 2
 451 243 l 1
 451 253 l 1
 440 264 l 1
 400 264 l 1
 380 243 l 1
 336 283 l 1
 365 314 l 2
 369 319 377 324 387 324 c 2
 454 323 l 2
 459 323 468 321 475 314 c 2
 502 285 l 2
 506 281 510 274 510 265 c 2
 511 231 l 2
 511 226 509 217 502 210 c 2
 402 111 l 1
 512 111 l 1
206 414 m 1
 146 414 l 1
 147 594 l 1
 138 586 l 1
 96 628 l 1
 156 687 l 2
 159 690 165 696 177 696 c 0
 188 696 207 687 207 666 c 2
 206 414 l 1
424 560 m 2
 430 566 438 569 446 569 c 0
 454 569 462 566 468 560 c 0
 474 554 477 546 477 538 c 0
 477 530 474 522 469 516 c 2
 109 150 l 2
 103 144 96 141 88 141 c 0
 80 141 72 144 66 150 c 0
 60 156 57 164 57 172 c 0
 57 180 60 188 65 194 c 2
 424 560 l 2
EndSplineSet
EndChar

StartChar: threequarters
Encoding: 74 190 77
Width: 536
VWidth: 0
Flags: HW
HStem: 113 60<361 421 481 511> 385 60<127 165> 631 60<55 151>
VStem: 177 60<457 496> 421 60<50 113 173 249>
LayerCount: 2
Back
Fore
SplineSet
55 631 m 1
 55 691 l 1
 206 690 l 2
 226 690 235 673 235 662 c 0
 235 661 235 661 235 660 c 0
 235 650 231 645 231 645 c 1
 185 572 l 1
 228 530 l 2
 235 523 237 513 237 508 c 2
 237 445 l 2
 237 435 231 428 228 425 c 2
 200 395 l 2
 193 387 184 385 179 385 c 2
 114 385 l 1
 104 384 96 390 92 394 c 2
 62 426 l 1
 105 467 l 1
 127 445 l 1
 165 445 l 1
 177 457 l 1
 177 496 l 1
 126 546 l 2
 122 550 117 558 117 567 c 0
 117 572 118 578 122 583 c 2
 151 631 l 1
 55 631 l 1
511 173 m 1
 511 113 l 1
 481 113 l 1
 480 50 l 1
 420 50 l 1
 421 113 l 1
 330 114 l 2
 308 114 300 133 300 144 c 2
 300 145 l 1
 301 201 l 2
 301 210 307 218 310 221 c 2
 401 313 l 2
 407 320 417 322 421 322 c 2
 451 323 l 2
 452 323 452 323 453 323 c 0
 473 323 482 305 482 294 c 0
 482 293 482 294 482 293 c 2
 481 173 l 1
 511 173 l 1
421 173 m 1
 422 249 l 1
 361 187 l 1
 361 174 l 1
 421 173 l 1
424 560 m 2
 430 566 438 569 446 569 c 0
 454 569 462 566 468 560 c 0
 474 554 477 546 477 538 c 0
 477 530 474 522 469 516 c 2
 109 150 l 2
 103 144 96 141 88 141 c 0
 80 141 72 144 66 150 c 0
 60 156 57 164 57 172 c 0
 57 180 60 188 65 194 c 2
 424 560 l 2
EndSplineSet
EndChar

StartChar: idiaeresis
Encoding: 79 239 82
Width: 536
VWidth: 0
Flags: HW
HStem: 49 21G<237 298> 456 20G<237 298> 598 61<115 177 359 421>
VStem: 115 62<598 659> 237 61<49 476> 359 62<598 659>
LayerCount: 2
Back
Fore
SplineSet
237 476 m 1
 298 476 l 1
 298 49 l 1
 237 49 l 1
 237 476 l 1
EndSplineSet
Refer: 60 168 S 1 0 0 1 27 -2 2
EndChar

StartChar: mu
Encoding: 81 956 84
Width: 536
VWidth: 0
Flags: HW
HStem: -135 21G<55.9672 115> 51 58<156 317 433 482> 456 20G<55 113.123 359.938 419>
VStem: 56 59<-135 68 150 475> 359 59<153 476>
LayerCount: 2
Back
Fore
SplineSet
55 475 m 1
 113 476 l 1
 115 150 l 1
 156 109 l 1
 317 109 l 1
 359 153 l 1
 360 476 l 1
 419 476 l 1
 418 141 l 2
 418 138 417 134 415 129 c 1
 433 109 l 1
 482 109 l 1
 482 50 l 1
 421 50 l 2
 411 50 403 55 400 59 c 2
 374 84 l 1
 350 60 l 2
 347 57 339 51 329 51 c 2
 144 51 l 2
 139 51 131 52 124 59 c 2
 115 68 l 1
 115 -135 l 1
 56 -135 l 1
 55 475 l 1
EndSplineSet
EndChar

StartChar: icircumflex
Encoding: 84 238 87
Width: 536
VWidth: 0
Flags: HW
HStem: 49 21G<237 298> 639 20G<262.5 270.5>
VStem: 237 61<49 415>
LayerCount: 2
Back
Fore
SplineSet
237 476 m 1
 298 476 l 1
 298 49 l 1
 237 49 l 1
 237 476 l 1
EndSplineSet
Refer: 58 94 S 1 0 0 1 0 16 2
EndChar

StartChar: multiply
Encoding: 88 215 91
Width: 536
VWidth: 0
Flags: HW
LayerCount: 2
Back
Fore
SplineSet
95 453 m 1
 138 496 l 1
 267 366 l 1
 397 496 l 1
 440 453 l 1
 310 323 l 1
 440 193 l 1
 397 151 l 1
 267 280 l 1
 138 151 l 1
 95 193 l 1
 225 323 l 1
 95 453 l 1
EndSplineSet
EndChar

StartChar: iacute
Encoding: 89 237 92
Width: 536
VWidth: 0
Flags: HW
HStem: 49 21G<237 298>
VStem: 237 61<49 415>
LayerCount: 2
Back
Fore
SplineSet
237 476 m 1
 298 476 l 1
 298 49 l 1
 237 49 l 1
 237 476 l 1
EndSplineSet
Refer: 62 180 S 1 0 0 1 56 59 2
EndChar

StartChar: onesuperior
Encoding: 100 185 103
Width: 536
VWidth: 0
Flags: HW
HStem: 640 20G<266 274>
VStem: 238 60<263 558>
LayerCount: 2
Back
Fore
SplineSet
199 519 m 1
 157 561 l 1
 248 651 l 2
 254 657 262 660 269 660 c 0
 278 660 286 656 290 651 c 1
 299 643 299 634 299 630 c 2
 298 263 l 1
 238 263 l 1
 239 558 l 1
 199 519 l 1
EndSplineSet
EndChar

StartChar: twosuperior
Encoding: 101 178 104
Width: 536
VWidth: 0
Flags: HW
HStem: 264 60<221 389> 600 60<250 289>
VStem: 329 61<520 557>
LayerCount: 2
Back
Fore
SplineSet
199 548 m 1
 156 590 l 1
 216 651 l 2
 223 658 233 660 238 660 c 2
 302 659 l 2
 312 659 320 654 323 650 c 2
 381 589 l 2
 388 582 390 573 390 568 c 2
 388 507 l 2
 388 497 383 489 380 486 c 2
 221 324 l 1
 390 323 l 1
 389 263 l 1
 176 264 l 2
 175 264 176 264 175 264 c 0
 164 265 146 274 146 293 c 0
 146 294 146 294 146 295 c 2
 148 323 l 2
 148 329 150 336 156 343 c 2
 329 520 l 1
 329 557 l 1
 289 599 l 1
 250 600 l 1
 199 548 l 1
EndSplineSet
EndChar

StartChar: threesuperior
Encoding: 102 179 105
Width: 536
VWidth: 0
Flags: HW
HStem: 265 60<219 287> 602 59<146 318>
VStem: 329 60<366 403>
LayerCount: 2
Back
Fore
SplineSet
146 602 m 1
 146 661 l 1
 361 659 l 2
 381 659 390 642 390 631 c 0
 390 630 390 630 390 629 c 0
 390 628 391 629 390 628 c 2
 389 598 l 2
 389 589 384 582 381 578 c 2
 309 504 l 1
 315 502 319 499 320 498 c 2
 381 437 l 2
 388 430 390 420 389 415 c 2
 388 354 l 2
 388 344 383 336 380 333 c 2
 321 273 l 2
 314 265 304 263 299 264 c 2
 207 265 l 2
 198 265 191 269 187 273 c 2
 156 301 l 1
 196 345 l 1
 219 325 l 1
 287 324 l 1
 329 366 l 1
 329 403 l 1
 286 446 l 1
 240 445 l 2
 239 445 227 445 218 453 c 0
 213 458 209 466 209 476 c 0
 209 482 211 489 217 496 c 2
 318 599 l 1
 146 602 l 1
EndSplineSet
EndChar

StartChar: ordfeminine
Encoding: 103 170 106
Width: 536
VWidth: 0
Flags: HW
HStem: 49 60<54 481> 171 60<158 361 420 481> 356 59<159 360> 537 59<116 319>
VStem: 58 59<275 312> 362 58<231 355 414 495>
LayerCount: 2
Back
Fore
SplineSet
361 231 m 1
 360 355 l 1
 159 356 l 1
 117 312 l 1
 117 275 l 1
 158 232 l 1
 361 231 l 1
420 230 m 1
 481 229 l 1
 481 171 l 1
 146 174 l 2
 136 174 128 180 125 183 c 2
 66 243 l 2
 59 250 58 260 58 264 c 2
 58 324 l 2
 58 334 63 341 66 344 c 2
 126 406 l 2
 133 413 142 415 147 415 c 2
 362 414 l 1
 362 495 l 1
 319 537 l 1
 115 540 l 1
 116 598 l 1
 332 596 l 2
 342 596 349 590 352 587 c 2
 412 527 l 2
 419 520 420 512 420 507 c 2
 420 230 l 1
54 109 m 1
 481 109 l 1
 481 49 l 1
 54 49 l 1
 54 109 l 1
EndSplineSet
EndChar

StartChar: masculine
Encoding: 104 -1 107
Width: 536
VWidth: 0
Flags: HW
HStem: 49 60<54 421> 172 58<158 319> 537 59<158 320>
VStem: 55 58<271 493> 359 59<271 493>
LayerCount: 2
Back
Fore
SplineSet
115 493 m 1
 113 271 l 1
 158 230 l 1
 319 229 l 1
 359 271 l 1
 360 493 l 1
 320 537 l 1
 158 537 l 1
 115 493 l 1
65 526 m 2
 126 587 l 2
 133 594 142 596 146 596 c 2
 333 596 l 2
 343 596 351 590 355 586 c 2
 411 523 l 2
 417 517 419 509 419 504 c 2
 418 259 l 2
 418 249 413 241 410 238 c 2
 352 179 l 2
 345 171 336 170 331 170 c 2
 146 172 l 2
 137 172 130 176 126 179 c 2
 64 237 l 2
 56 244 55 253 55 259 c 2
 57 506 l 2
 57 516 62 523 65 526 c 2
54 109 m 1
 421 109 l 1
 421 49 l 1
 54 49 l 1
 54 109 l 1
EndSplineSet
EndChar

StartChar: guillemotleft
Encoding: 105 171 108
Width: 536
VWidth: 0
Flags: HW
LayerCount: 2
Back
Fore
SplineSet
247 561 m 1
 290 519 l 1
 99 325 l 1
 290 133 l 1
 247 91 l 1
 36 304 l 2
 31 309 27 317 27 326 c 0
 27 332 30 340 36 346 c 2
 247 561 l 1
430 560 m 1
 473 518 l 1
 282 324 l 1
 473 132 l 1
 430 90 l 1
 219 303 l 2
 214 308 211 316 211 324 c 0
 211 331 213 338 219 345 c 2
 430 560 l 1
EndSplineSet
EndChar

StartChar: guillemotright
Encoding: 106 187 109
Width: 536
VWidth: 0
Flags: HW
LayerCount: 2
Back
Fore
SplineSet
286 561 m 1
 497 346 l 2
 503 339 505 332 505 325 c 0
 505 317 502 309 497 304 c 2
 286 91 l 1
 243 133 l 1
 433 325 l 1
 243 519 l 1
 286 561 l 1
102 560 m 1
 314 345 l 2
 320 339 322 332 322 325 c 0
 322 316 318 308 314 303 c 2
 102 90 l 1
 60 132 l 1
 250 324 l 1
 60 518 l 1
 102 560 l 1
EndSplineSet
EndChar

StartChar: exclamdown
Encoding: 107 161 110
Width: 536
VWidth: 0
Flags: HW
HStem: 49 21G<237 298> 456 20G<237 298> 598 61<237 298>
VStem: 237 61<49 476 598 659>
LayerCount: 2
Back
Fore
SplineSet
237 659 m 1
 298 659 l 1
 298 598 l 1
 237 598 l 1
 237 659 l 1
237 476 m 1
 298 476 l 1
 298 49 l 1
 237 49 l 1
 237 476 l 1
EndSplineSet
EndChar

StartChar: questiondown
Encoding: 108 191 111
Width: 536
VWidth: 0
Flags: HW
HStem: 50 62<214 387> 601 61<295 362>
VStem: 115 62<145 196> 297 61<390 480 601 662> 419 61<144 236>
LayerCount: 2
Back
Fore
SplineSet
362 601 m 1
 295 601 l 1
 295 662 l 1
 362 662 l 1
 362 601 l 1
480 132 m 2
 480 131 480 130 480 129 c 0
 480 128 479 127 479 126 c 0
 478 124 477 122 476 120 c 0
 475 118 474 116 472 114 c 2
 425 60 l 2
 423 58 421 56 418 54 c 0
 416 52 414 52 411 51 c 0
 408 50 405 50 402 50 c 2
 201 50 l 2
 198 50 197 49 194 50 c 0
 192 51 189 52 187 53 c 0
 185 54 182 56 180 58 c 2
 125 109 l 2
 123 111 120 113 119 116 c 0
 118 118 117 121 116 124 c 0
 115 127 115 130 115 133 c 2
 117 211 l 2
 117 214 117 216 118 219 c 0
 119 222 121 225 122 227 c 0
 123 229 125 231 127 233 c 2
 297 390 l 1
 297 480 l 1
 358 480 l 1
 358 375 l 2
 358 374 358 372 358 371 c 0
 358 370 357 368 357 367 c 0
 356 365 355 362 354 360 c 0
 353 358 350 355 348 353 c 2
 179 196 l 1
 177 145 l 1
 214 112 l 1
 387 112 l 1
 419 144 l 1
 419 236 l 1
 480 236 l 1
 480 132 l 2
EndSplineSet
EndChar

StartChar: a
Encoding: 125 97 128
Width: 536
VWidth: 0
Flags: HW
HStem: 49 60<158 360 419 480> 234 59<159 360> 415 59<115 319>
VStem: 57 59<153 190> 360 59<109 233 292 373>
LayerCount: 2
Back
Fore
SplineSet
360 109 m 1
 360 233 l 1
 159 234 l 1
 116 190 l 1
 116 153 l 1
 158 108 l 1
 360 109 l 1
419 108 m 1
 481 108 l 1
 481 50 l 1
 145 50 l 2
 135 50 127 56 124 59 c 2
 66 121 l 2
 59 128 57 138 57 142 c 2
 57 202 l 2
 57 212 63 220 66 223 c 2
 125 284 l 2
 132 291 141 293 146 293 c 2
 360 292 l 1
 359 373 l 1
 319 415 l 1
 116 415 l 1
 115 474 l 1
 331 474 l 2
 341 474 349 468 352 465 c 2
 411 405 l 2
 418 398 420 390 420 385 c 2
 419 108 l 1
EndSplineSet
EndChar

StartChar: b
Encoding: 126 98 129
Width: 536
VWidth: 0
Flags: HW
HStem: 52 57<115 255> 416 59<115 259> 639 20G<55 115>
VStem: 55 60<109 416 475 659> 361 59<213 312>
LayerCount: 2
Back
Fore
SplineSet
55 52 m 1
 55 659 l 1
 115 659 l 1
 115 475 l 1
 271 475 l 2
 281 475 289 469 292 466 c 2
 411 345 l 2
 418 338 420 329 420 324 c 2
 420 201 l 2
 420 191 414 183 411 180 c 2
 288 59 l 2
 281 52 271 51 267 51 c 2
 55 52 l 1
115 109 m 1
 255 109 l 1
 361 213 l 1
 361 312 l 1
 259 416 l 1
 115 416 l 1
 115 109 l 1
EndSplineSet
EndChar

StartChar: c
Encoding: 127 99 130
Width: 536
VWidth: 0
Flags: HW
HStem: 51 59<219.87 420.179> 416 59<216.665 420.246>
VStem: 55 59<213.444 312.188>
LayerCount: 2
Back
Fore
SplineSet
420 475 m 1
 420 416 l 1
 217 416 l 1
 114 312 l 1
 114 213 l 1
 220 109 l 1
 420 109 l 1
 420 50 l 1
 208 51 l 2
 204 51 194 52 187 59 c 2
 64 180 l 2
 61 183 55 191 55 201 c 2
 55 324 l 2
 55 329 57 338 64 345 c 2
 184 466 l 2
 187 469 194 475 204 475 c 2
 420 475 l 1
EndSplineSet
EndChar

StartChar: d
Encoding: 128 100 131
Width: 536
VWidth: 0
Flags: HW
HStem: 51 58<220 360> 416 59<217 360> 639 20G<360 420>
VStem: 55 59<213 312> 360 60<109 416 475 659>
LayerCount: 2
Back
Fore
SplineSet
420 52 m 1
 208 51 l 2
 204 51 194 52 187 59 c 2
 64 180 l 2
 61 183 55 191 55 201 c 2
 55 324 l 2
 55 329 57 338 64 345 c 2
 184 466 l 2
 187 469 194 475 204 475 c 2
 360 475 l 1
 360 659 l 1
 420 659 l 1
 420 52 l 1
360 109 m 1
 360 416 l 1
 217 416 l 1
 114 312 l 1
 114 213 l 1
 220 109 l 1
 360 109 l 1
EndSplineSet
EndChar

StartChar: e
Encoding: 129 101 132
Width: 536
VWidth: 0
Flags: HW
HStem: 51 58<156 421> 231 62<113 361> 415 59<158 318>
VStem: 54 59<152 231 293 372> 361 59<293 373>
LayerCount: 2
Back
Fore
SplineSet
113 231 m 1
 112 152 l 1
 156 109 l 1
 421 107 l 1
 421 49 l 1
 144 51 l 2
 135 51 127 56 124 59 c 2
 62 119 l 2
 55 126 54 135 54 140 c 2
 56 384 l 2
 56 394 61 401 64 404 c 2
 125 467 l 2
 132 474 142 476 147 476 c 2
 330 474 l 2
 340 474 348 468 351 465 c 2
 410 405 l 2
 417 398 419 390 419 385 c 2
 420 233 l 1
 113 231 l 1
113 293 m 1
 361 293 l 1
 360 373 l 1
 318 415 l 1
 158 417 l 1
 114 372 l 1
 113 293 l 1
EndSplineSet
EndChar

StartChar: f
Encoding: 130 102 133
Width: 536
VWidth: 0
Flags: HW
HStem: 49 21G<176 236.077> 415 61<54.0752 177.405 237.639 358.846> 599 60<277.73 420>
VStem: 178 60<49.1152 414.923 476 557.827>
LayerCount: 2
Back
Fore
SplineSet
278 599 m 1
 238 558 l 1
 238 476 l 1
 359 476 l 1
 359 415 l 1
 237 415 l 1
 236 49 l 1
 176 49 l 1
 177 415 l 1
 54 415 l 1
 54 476 l 1
 178 476 l 1
 178 570 l 2
 178 578 180 585 186 591 c 2
 243 650 l 2
 249 656 256 659 265 659 c 2
 420 659 l 1
 420 599 l 1
 278 599 l 1
EndSplineSet
EndChar

StartChar: g
Encoding: 131 103 134
Width: 536
VWidth: 0
Flags: HW
HStem: -72 60<219 380> 109 60<219 315> 171 60<400 422> 417 60<219 377>
VStem: 55 60<272 313> 422 60<30 171 231 375>
LayerCount: 2
Back
Fore
SplineSet
407 231 m 5
 407 375 l 5
 362 417 l 5
 219 415 l 1
 115 313 l 1
 115 272 l 1
 219 169 l 1
 300 171 l 5
 351 222 l 6
 357 228 364 231 372 231 c 6
 407 231 l 5
407 171 m 5
 385 171 l 5
 334 120 l 6
 329 114 322 111 313 111 c 6
 207 109 l 2
 199 109 192 112 186 118 c 2
 64 238 l 2
 58 244 55 251 55 259 c 2
 55 326 l 2
 55 335 58 342 64 347 c 2
 186 466 l 2
 192 472 199 475 207 475 c 2
 374 477 l 6
 382 477 389 474 395 469 c 6
 458 410 l 6
 464 404 467 397 467 388 c 6
 466 18 l 6
 466 10 463 3 458 -3 c 6
 400 -63 l 6
 394 -69 387 -72 378 -72 c 6
 207 -72 l 2
 199 -72 192 -69 186 -63 c 2
 125 -3 l 1
 167 39 l 1
 219 -12 l 1
 365 -12 l 5
 406 30 l 5
 407 171 l 5
EndSplineSet
EndChar

StartChar: h
Encoding: 132 104 135
Width: 536
VWidth: 0
Flags: HW
HStem: 48 21G<359 419> 416 60<217 314>
VStem: 52 60<50 315 398 666> 359 60<48 372>
LayerCount: 2
Back
Fore
SplineSet
53 50 m 1
 52 666 l 1
 112 666 l 1
 112 398 l 1
 184 468 l 2
 190 473 197 476 205 476 c 2
 326 475 l 2
 334 475 341 472 347 467 c 2
 410 407 l 2
 416 401 419 394 419 385 c 2
 419 48 l 1
 359 48 l 1
 359 372 l 1
 314 415 l 1
 217 416 l 1
 112 315 l 1
 113 50 l 1
 53 50 l 1
EndSplineSet
EndChar

StartChar: i
Encoding: 133 105 136
Width: 536
VWidth: 0
Flags: HW
HStem: 49 21G<237 298> 456 20G<237 298> 598 61<237 298>
VStem: 237 61<49 476 598 659>
LayerCount: 2
Back
Fore
SplineSet
237 659 m 1
 298 659 l 1
 298 598 l 1
 237 598 l 1
 237 659 l 1
237 476 m 1
 298 476 l 1
 298 49 l 1
 237 49 l 1
 237 476 l 1
EndSplineSet
EndChar

StartChar: j
Encoding: 134 106 137
Width: 536
VWidth: 0
Flags: HW
HStem: -73 60<217.672 316.528> 456 20G<359.956 420> 598 61<359 421>
VStem: 359 62<29.3086 475.935 598 659>
LayerCount: 2
Back
Fore
SplineSet
419 17 m 2
 419 9 416 2 410 -4 c 2
 350 -65 l 2
 344 -71 338 -74 329 -74 c 2
 205 -73 l 2
 197 -73 190 -70 184 -64 c 2
 124 -3 l 1
 166 39 l 1
 218 -13 l 1
 317 -14 l 1
 359 29 l 1
 360 476 l 1
 420 476 l 1
 419 17 l 2
359 659 m 1
 421 659 l 1
 421 598 l 1
 359 598 l 1
 359 659 l 1
EndSplineSet
EndChar

StartChar: k
Encoding: 135 107 138
Width: 536
VWidth: 0
Flags: HW
HStem: 49 21G<115 177> 233 60<177 198> 456 20G<359.328 399> 639 20G<115 177>
VStem: 115 62<49 233 293 659>
LayerCount: 2
Back
Fore
SplineSet
252 262 m 1
 418 91 l 1
 375 50 l 1
 198 233 l 1
 177 233 l 1
 177 49 l 1
 115 49 l 1
 115 659 l 1
 177 659 l 1
 177 293 l 1
 199 293 l 1
 379 476 l 1
 421 434 l 1
 252 262 l 1
EndSplineSet
EndChar

StartChar: l
Encoding: 136 108 139
Width: 536
VWidth: 0
Flags: HW
HStem: 49 60<310 359> 639 20G<237 297>
VStem: 237 60<123 659>
LayerCount: 2
Back
Fore
SplineSet
297 123 m 1
 310 109 l 1
 359 109 l 1
 359 49 l 1
 298 49 l 2
 290 49 283 52 277 58 c 2
 246 89 l 2
 240 95 237 102 237 110 c 2
 237 659 l 1
 297 659 l 1
 297 123 l 1
EndSplineSet
EndChar

StartChar: m
Encoding: 137 109 140
Width: 536
VWidth: 0
Flags: HW
HStem: 49 21G<55 115 237 298 420 480> 415 60<159 196 339 379>
VStem: 55 60<49 372 458 475> 237 61<49 373> 420 60<49 374>
CounterMasks: 1 38
LayerCount: 2
Back
Fore
SplineSet
298 373 m 1
 298 49 l 1
 237 49 l 1
 237 373 l 1
 196 416 l 1
 159 416 l 1
 115 372 l 1
 115 49 l 1
 55 49 l 1
 55 475 l 1
 116 475 l 1
 116 458 l 1
 125 467 l 2
 131 473 138 476 146 476 c 2
 209 476 l 2
 218 476 225 473 231 467 c 2
 267 428 l 1
 305 466 l 2
 311 472 318 475 326 475 c 2
 391 475 l 2
 399 475 406 472 412 466 c 2
 471 407 l 2
 477 401 480 394 480 386 c 2
 480 49 l 1
 420 49 l 1
 420 374 l 1
 379 415 l 1
 339 415 l 1
 298 373 l 1
EndSplineSet
EndChar

StartChar: n
Encoding: 138 110 141
Width: 536
VWidth: 0
Flags: HW
HStem: 417 58<55 104 220 381>
VStem: 118 59<50 373> 424 58<51 376>
LayerCount: 2
Back
Fore
SplineSet
163 442 m 1
 187 466 l 2
 190 469 198 475 208 475 c 2
 329 475 l 6
 334 475 342 474 349 467 c 6
 408 409 l 6
 411 406 417 398 417 388 c 6
 418 51 l 5
 360 50 l 5
 358 376 l 5
 317 417 l 5
 220 417 l 1
 178 373 l 1
 177 50 l 1
 118 50 l 1
 119 385 l 2
 119 388 120 392 122 397 c 1
 104 417 l 1
 55 417 l 1
 55 476 l 1
 116 476 l 2
 126 476 134 471 137 467 c 2
 163 442 l 1
EndSplineSet
EndChar

StartChar: o
Encoding: 139 111 142
Width: 536
VWidth: 0
Flags: HW
HStem: 53 58<157 318> 418 59<157 319>
VStem: 54 58<152 374> 358 59<152 374>
LayerCount: 2
Back
Fore
SplineSet
114 374 m 1
 112 152 l 1
 157 111 l 1
 318 110 l 1
 358 152 l 1
 359 374 l 1
 319 418 l 1
 157 418 l 1
 114 374 l 1
64 407 m 2
 125 468 l 2
 132 475 141 477 145 477 c 2
 332 477 l 2
 342 477 350 471 354 467 c 2
 410 404 l 2
 416 398 418 390 418 385 c 2
 417 140 l 2
 417 130 412 122 409 119 c 2
 351 60 l 2
 344 52 335 51 330 51 c 2
 145 53 l 2
 136 53 129 57 125 60 c 2
 63 118 l 2
 55 125 54 134 54 140 c 2
 56 387 l 2
 56 397 61 404 64 407 c 2
EndSplineSet
EndChar

StartChar: p
Encoding: 140 112 143
Width: 536
VWidth: 0
Flags: HW
HStem: -134 21G<54 114> 50 59<114 257> 416 57<114 254>
VStem: 54 60<-134 50 109 416> 360 59<213 312>
LayerCount: 2
Back
Fore
SplineSet
54 473 m 1
 266 474 l 2
 270 474 280 473 287 466 c 2
 410 345 l 2
 413 342 419 334 419 324 c 2
 419 201 l 2
 419 196 417 187 410 180 c 2
 290 59 l 2
 287 56 280 50 270 50 c 2
 114 50 l 1
 114 -134 l 1
 54 -134 l 1
 54 473 l 1
114 416 m 1
 114 109 l 1
 257 109 l 1
 360 213 l 1
 360 312 l 1
 254 416 l 1
 114 416 l 1
EndSplineSet
EndChar

StartChar: q
Encoding: 141 113 144
Width: 536
VWidth: 0
Flags: HW
HStem: -72 62<419 480> 109 59<216 359> 416 58<219 359>
VStem: 54 59<272 312> 358 122<-72 -10> 359 60<-10 109 168 416>
LayerCount: 2
Back
Fore
SplineSet
419 473 m 1xf4
 419 -65 l 1xf4
 480 -65 l 1
 480 -127 l 1
 358 -127 l 1xf8
 359 54 l 1
 203 54 l 2
 193 54 186 60 183 63 c 2
 63 184 l 2
 56 191 54 200 54 205 c 2
 54 324 l 2
 54 334 60 342 63 345 c 2
 186 466 l 2
 193 473 203 474 207 474 c 2
 419 473 l 1xf4
359 416 m 1
 219 416 l 1
 113 312 l 1
 113 217 l 1
 216 113 l 1
 359 113 l 1
 359 416 l 1
EndSplineSet
EndChar

StartChar: r
Encoding: 142 114 145
Width: 536
VWidth: 0
Flags: HW
HStem: 49 21G<115.06 175> 415 60<55 106.673 278 377>
VStem: 115 60<50 313> 422 60<354 372>
LayerCount: 2
Back
Fore
SplineSet
163 313 m 1
 163 50 l 1
 103 49 l 1
 104 384 l 2
 104 393 101 399 95 406 c 1
 88 412 82 415 72 415 c 2
 55 415 l 1
 54 475 l 1
 103 476 l 2
 120 476 162 446 163 414 c 1
 163 396 l 1
 232 466 l 2
 238 472 245 475 253 475 c 2
 343 476 l 2
 352 476 359 473 364 467 c 2
 427 406 l 2
 433 400 436 393 436 384 c 2
 436 354 l 1
 376 354 l 1
 376 372 l 1
 331 415 l 1
 266 415 l 1
 163 313 l 1
EndSplineSet
EndChar

StartChar: s
Encoding: 143 115 146
Width: 536
VWidth: 0
Flags: HW
HStem: 50 60<158.208 316.782> 416 60<157.857 314.716>
VStem: 359 60<353 372.431>
LayerCount: 2
Back
Fore
SplineSet
359 372 m 1
 315 416 l 1
 158 416 l 1
 129 386 l 1
 411 165 l 2
 418 159 422 152 422 143 c 0
 422 134 419 126 413 120 c 2
 350 58 l 2
 344 52 337 49 329 49 c 2
 146 50 l 2
 138 50 131 52 125 58 c 2
 63 118 l 2
 57 124 54 131 54 140 c 2
 54 168 l 1
 114 168 l 1
 114 153 l 1
 158 110 l 1
 317 109 l 1
 347 139 l 1
 66 359 l 2
 59 364 56 372 55 381 c 0
 54 390 57 398 63 404 c 2
 123 467 l 2
 129 473 136 476 145 476 c 2
 327 476 l 2
 335 476 342 473 348 467 c 2
 410 406 l 2
 416 400 419 393 419 385 c 2
 419 353 l 1
 359 353 l 1
 359 372 l 1
EndSplineSet
EndChar

StartChar: t
Encoding: 144 116 147
Width: 536
VWidth: 0
Flags: HW
HStem: 49 60<310 359> 415 61<114 237 297 420> 639 20G<237 297>
VStem: 237 60<123 415 476 659>
LayerCount: 2
Back
Fore
SplineSet
297 123 m 1
 310 109 l 1
 359 109 l 1
 359 49 l 1
 298 49 l 2
 290 49 283 52 277 58 c 2
 246 89 l 2
 240 95 237 102 237 110 c 2
 237 415 l 1
 114 415 l 1
 114 476 l 1
 237 476 l 1
 237 659 l 1
 297 659 l 1
 297 476 l 1
 420 476 l 1
 420 415 l 1
 297 415 l 1
 297 123 l 1
EndSplineSet
EndChar

StartChar: u
Encoding: 145 117 148
Width: 536
VWidth: 0
Flags: HW
HStem: 51 58<156 317 433 482> 456 20G<55 113.123 359.938 419>
VStem: 56 59<150 475> 359 59<153 476>
LayerCount: 2
Back
Fore
SplineSet
374 84 m 1
 350 60 l 2
 347 57 339 51 329 51 c 2
 144 51 l 2
 139 51 131 52 124 59 c 2
 65 117 l 2
 62 120 56 128 56 138 c 2
 55 475 l 1
 113 476 l 1
 115 150 l 1
 156 109 l 1
 317 109 l 1
 359 153 l 1
 360 476 l 1
 419 476 l 1
 418 141 l 2
 418 138 417 134 415 129 c 1
 433 109 l 1
 482 109 l 1
 482 50 l 1
 421 50 l 2
 411 50 403 55 400 59 c 2
 374 84 l 1
EndSplineSet
EndChar

StartChar: v
Encoding: 146 118 149
Width: 536
VWidth: 0
Flags: HW
HStem: 455 20G<55 115 420 480>
VStem: 55 60<391.231 475> 420 60<394.278 475>
LayerCount: 2
Back
Fore
SplineSet
115 391 m 1
 266 137 l 1
 420 394 l 1
 420 475 l 1
 480 475 l 1
 480 386 l 2
 480 380 479 376 476 371 c 2
 292 63 l 2
 286 53 277 48 266 48 c 0
 255 48 246 53 240 63 c 2
 59 368 l 2
 56 373 55 377 55 383 c 2
 55 475 l 1
 115 475 l 1
 115 391 l 1
EndSplineSet
EndChar

StartChar: w
Encoding: 147 119 150
Width: 536
VWidth: 0
Flags: HW
HStem: 457 19G<54 114 422 482>
VStem: 54 60<151 476> 237 61<211 293> 422 60<154 477>
LayerCount: 2
Back
Fore
SplineSet
298 211 m 1
 388 122 l 1
 422 154 l 1
 422 477 l 1
 482 477 l 1
 482 141 l 2
 482 132 479 125 473 119 c 2
 409 58 l 2
 403 53 395 50 388 50 c 0
 381 50 373 53 367 59 c 2
 267 158 l 1
 166 56 l 2
 160 50 153 46 145 46 c 0
 137 46 130 50 124 56 c 2
 63 118 l 2
 57 124 54 131 54 139 c 2
 54 476 l 1
 114 476 l 1
 114 151 l 1
 145 120 l 1
 237 211 l 1
 237 293 l 1
 298 293 l 1
 298 211 l 1
EndSplineSet
EndChar

StartChar: x
Encoding: 148 120 151
Width: 536
VWidth: 0
Flags: HW
HStem: 48 21G<52.5 112.5 420.5 480.5> 456 20G<52.5 112.5 420.5 480.5>
VStem: 53 60<48.5 67.0254 457.975 475.5> 421 60<48.5 67.0254 457.975 475.5>
LayerCount: 2
Back
Fore
SplineSet
267 220 m 1
 113 67 l 1
 113 48 l 1
 53 48 l 1
 53 80 l 2
 53 88 55 95 61 101 c 2
 224 262 l 1
 61 424 l 2
 55 430 53 438 53 446 c 2
 53 476 l 1
 113 476 l 1
 113 458 l 1
 267 305 l 1
 421 458 l 1
 421 476 l 1
 481 476 l 1
 481 446 l 2
 481 438 478 430 472 424 c 2
 309 263 l 1
 472 101 l 2
 478 95 481 88 481 80 c 2
 481 48 l 1
 421 48 l 1
 421 67 l 1
 267 220 l 1
EndSplineSet
EndChar

StartChar: y
Encoding: 149 121 152
Width: 536
VWidth: 0
Flags: HW
HStem: 456 20G<55 115 359 419>
VStem: 55 60<274 476> 359 60<212 476>
LayerCount: 2
Back
Fore
SplineSet
225 78 m 1
 64 241 l 2
 58 247 55 254 55 262 c 2
 55 476 l 1
 115 476 l 1
 115 274 l 1
 268 121 l 1
 359 212 l 1
 359 476 l 1
 419 476 l 1
 419 200 l 2
 419 192 416 185 410 179 c 2
 103 -128 l 1
 61 -86 l 1
 225 78 l 1
EndSplineSet
EndChar

StartChar: z
Encoding: 150 122 153
Width: 536
VWidth: 0
Flags: HW
HStem: 49 60<177 481> 415 61<54 359>
LayerCount: 2
Back
Fore
SplineSet
54 476 m 1
 481 476 l 1
 177 109 l 1
 481 109 l 1
 481 49 l 1
 54 49 l 1
 359 415 l 1
 54 415 l 1
 54 476 l 1
EndSplineSet
EndChar

StartChar: ae
Encoding: 151 230 154
Width: 536
VWidth: 0
Flags: HW
HStem: 49 60<158 195 341 480> 231 62<298 423> 294 60<220 238> 415 60<54 194 340 379>
VStem: 54 60<151 190> 238 60<153 231 293 294 354 372> 423 60<293 373>
LayerCount: 2
Back
Fore
SplineSet
238 294 m 1
 220 294 l 1
 114 190 l 1
 114 151 l 1
 158 109 l 1
 195 109 l 1
 238 153 l 1
 238 294 l 1
238 354 m 1
 238 372 l 1
 194 415 l 1
 54 415 l 1
 54 475 l 1
 206 475 l 2
 216 475 224 470 227 467 c 2
 267 428 l 1
 307 467 l 2
 310 470 318 475 328 475 c 2
 392 475 l 2
 396 475 406 474 413 467 c 2
 474 407 l 2
 478 403 483 395 483 385 c 2
 483 232 l 1
 298 231 l 1
 298 152 l 1
 341 109 l 1
 480 109 l 1
 480 49 l 1
 328 49 l 2
 323 49 314 51 307 58 c 2
 268 98 l 1
 229 58 l 2
 222 50 213 49 208 49 c 2
 146 49 l 2
 136 49 128 54 125 57 c 2
 63 117 l 2
 56 124 54 134 54 139 c 2
 54 203 l 2
 54 213 60 221 63 224 c 2
 187 345 l 2
 194 352 203 354 208 354 c 2
 238 354 l 1
298 293 m 1
 423 293 l 1
 423 373 l 1
 379 415 l 1
 340 415 l 1
 298 375 l 1
 298 293 l 1
EndSplineSet
EndChar

StartChar: oslash
Encoding: 152 248 155
Width: 536
VWidth: 0
Flags: HW
HStem: 52 60<217.48 317.624> 416 60<218.525 318.091>
VStem: 115 60<210.438 372.522> 359 60<152.33 311.271>
LayerCount: 2
Back
Fore
SplineSet
348 385 m 1
 318 417 l 1
 219 416 l 1
 175 373 l 1
 174 210 l 1
 348 385 l 1
360 311 m 1
 189 141 l 1
 217 112 l 1
 318 110 l 1
 359 152 l 1
 360 311 l 1
420 371 m 1
 419 140 l 2
 419 132 416 125 410 119 c 2
 351 59 l 2
 345 53 339 50 330 50 c 2
 205 52 l 2
 197 52 190 55 184 61 c 2
 146 98 l 1
 105 57 l 1
 63 99 l 1
 115 151 l 1
 115 385 l 2
 115 393 118 400 124 406 c 2
 185 467 l 2
 191 473 198 476 206 476 c 2
 331 477 l 2
 340 477 347 474 353 468 c 2
 391 427 l 1
 432 468 l 1
 474 426 l 1
 420 371 l 1
EndSplineSet
EndChar

StartChar: division
Encoding: 154 -1 157
Width: 536
VWidth: 0
Flags: HW
HStem: 79 122<207 329> 293 61<54 481> 445 122<207 329>
VStem: 207 122<79 201 445 567>
LayerCount: 2
Back
Fore
SplineSet
207 567 m 1
 329 567 l 1
 329 445 l 1
 207 445 l 1
 207 567 l 1
54 354 m 1
 481 354 l 1
 481 293 l 1
 54 293 l 1
 54 354 l 1
207 201 m 1
 329 201 l 1
 329 79 l 1
 207 79 l 1
 207 201 l 1
EndSplineSet
EndChar

StartChar: fm
Encoding: 155 -1 158
Width: 536
VWidth: 0
Flags: HW
HStem: 354 122<237 359> 537 122<54 481>
VStem: 237 122<354 476>
LayerCount: 2
Back
Fore
SplineSet
54 659 m 1
 481 659 l 1
 481 537 l 1
 54 537 l 1
 54 659 l 1
237 476 m 1
 359 476 l 1
 359 354 l 1
 237 354 l 1
 237 476 l 1
237 231 m 1
 359 231 l 1
 336 79 264 10 115 -13 c 1
 237 231 l 1
EndSplineSet
EndChar

StartChar: dup
Encoding: 156 -1 159
Width: 536
VWidth: 0
Flags: HW
HStem: 49 21G<237 298> 457 20G<237 298> 537 122<54 481>
VStem: 237 61<49 233 293 477>
LayerCount: 2
Back
Fore
SplineSet
237 233 m 1
 298 233 l 1
 298 49 l 1
 237 49 l 1
 237 233 l 1
237 477 m 1
 298 477 l 1
 298 293 l 1
 237 293 l 1
 237 477 l 1
431 407 m 1
 474 365 l 1
 375 265 l 1
 476 161 l 1
 433 119 l 1
 290 265 l 1
 431 407 l 1
105 407 m 1
 246 265 l 1
 103 119 l 1
 61 161 l 1
 162 265 l 1
 63 365 l 1
 105 407 l 1
54 659 m 1
 481 659 l 1
 481 537 l 1
 54 537 l 1
 54 659 l 1
EndSplineSet
EndChar

StartChar: A
Encoding: 157 65 160
Width: 536
VWidth: 0
Flags: HW
HStem: 49 21G<53 113.328 420 480> 232 61<117 420> 577 20G<263 271>
VStem: 57 60<49 232 293 374> 420 60<49 232 293 373>
LayerCount: 2
Back
Fore
SplineSet
116 232 m 1
 113 49 l 1
 53 49 l 1
 57 387 l 2
 57 396 63 404 66 407 c 2
 246 588 l 2
 252 595 260 597 266 597 c 0
 276 597 284 593 289 588 c 2
 472 406 l 2
 479 399 480 390 480 385 c 2
 480 49 l 1
 420 49 l 1
 421 232 l 1
 116 232 l 1
117 293 m 1
 420 293 l 1
 420 373 l 1
 267 525 l 1
 117 374 l 1
 117 293 l 1
EndSplineSet
EndChar

StartChar: B
Encoding: 158 66 161
Width: 536
VWidth: 0
Flags: HW
HStem: 49 60<54 115 176 316> 293 61<176 316> 538 60<54 115 176 318>
VStem: 115 61<109 293 354 538>
CounterMasks: 1 e0
LayerCount: 2
Back
Fore
SplineSet
115 109 m 1
 115 538 l 1
 54 538 l 1
 54 598 l 1
 331 598 l 2
 341 598 349 592 353 589 c 2
 473 464 l 2
 479 458 481 451 481 444 c 0
 481 434 477 426 472 421 c 2
 371 324 l 1
 472 225 l 2
 478 219 481 211 481 205 c 0
 481 196 477 188 472 183 c 2
 350 58 l 2
 343 51 334 49 329 49 c 2
 54 49 l 1
 54 109 l 1
 115 109 l 1
317 293 m 1
 176 293 l 1
 176 109 l 1
 316 109 l 1
 409 203 l 1
 317 293 l 1
316 354 m 1
 409 444 l 1
 318 538 l 1
 176 538 l 1
 176 354 l 1
 316 354 l 1
EndSplineSet
EndChar

StartChar: C
Encoding: 159 67 162
Width: 536
VWidth: 0
Flags: HW
HStem: 50 60<280.384 377.25> 536 60<279.432 377.818>
VStem: 55 60<272.771 371.678>
LayerCount: 2
Back
Fore
SplineSet
473 527 m 1
 431 485 l 1
 378 537 l 1
 279 536 l 1
 113 372 l 1
 115 273 l 1
 280 110 l 1
 377 109 l 1
 429 164 l 1
 473 122 l 1
 412 58 l 2
 408 54 400 49 390 49 c 2
 268 50 l 2
 263 50 254 52 247 59 c 2
 64 239 l 2
 61 242 55 250 55 260 c 2
 53 384 l 2
 53 389 55 398 62 405 c 2
 246 587 l 2
 249 590 257 596 267 596 c 2
 390 597 l 2
 395 597 404 595 411 588 c 2
 473 527 l 1
EndSplineSet
EndChar

StartChar: D
Encoding: 160 68 163
Width: 536
VWidth: 0
Flags: HW
HStem: 49 60<54.4062 115.088 176.131 316.592> 538 60<54.406 115.088 176.043 317.065>
VStem: 115 61<109.629 537.704> 420 60<213.108 433.018>
LayerCount: 2
Back
Fore
SplineSet
176 110 m 1
 317 110 l 1
 420 213 l 1
 420 433 l 1
 317 537 l 1
 176 538 l 1
 176 110 l 1
115 538 m 1
 54 538 l 1
 54 598 l 1
 330 597 l 2
 340 597 348 591 351 588 c 2
 471 466 l 2
 478 459 480 450 480 445 c 2
 480 201 l 2
 480 191 474 182 471 179 c 2
 350 59 l 2
 343 52 334 50 329 50 c 2
 54 49 l 1
 54 109 l 1
 115 109 l 1
 115 538 l 1
EndSplineSet
EndChar

StartChar: E
Encoding: 161 69 164
Width: 536
VWidth: 0
Flags: HW
HStem: 49 60<115 481> 293 61<115 359> 537 61<115 481>
VStem: 54 61<109 293 354 537>
LayerCount: 2
Back
Fore
SplineSet
54 598 m 1
 481 598 l 1
 481 537 l 1
 115 537 l 1
 115 354 l 1
 359 354 l 1
 359 293 l 1
 115 293 l 1
 115 109 l 1
 481 109 l 1
 481 49 l 1
 54 49 l 1
 54 598 l 1
EndSplineSet
EndChar

StartChar: F
Encoding: 162 70 165
Width: 536
VWidth: 0
Flags: HW
HStem: 49 21G<54 115> 293 61<115 421> 537 61<115 481>
VStem: 54 61<49 293 354 537>
LayerCount: 2
Back
Fore
SplineSet
54 598 m 1
 481 598 l 1
 481 537 l 1
 115 537 l 1
 115 354 l 1
 421 354 l 1
 421 293 l 1
 115 293 l 1
 115 49 l 1
 54 49 l 1
 54 598 l 1
EndSplineSet
EndChar

StartChar: G
Encoding: 163 71 166
Width: 536
VWidth: 0
Flags: HW
HStem: 51 60<218 359> 232 61<237 359 419 482> 538 60<218 318>
VStem: 56 60<212 435> 359 59<111 232>
LayerCount: 2
Back
Fore
SplineSet
237 293 m 1
 482 293 l 1
 482 233 l 1
 419 232 l 1
 418 80 l 2
 418 69 409 51 388 51 c 2
 206 51 l 2
 201 51 192 52 185 59 c 2
 65 178 l 2
 62 181 56 189 56 199 c 2
 56 447 l 2
 56 452 57 461 64 468 c 2
 184 589 l 2
 187 593 195 598 205 598 c 2
 330 598 l 2
 335 598 345 596 352 589 c 2
 412 528 l 1
 369 486 l 1
 318 538 l 1
 218 538 l 1
 116 435 l 1
 116 212 l 1
 218 111 l 1
 359 111 l 1
 359 232 l 1
 237 231 l 1
 237 293 l 1
EndSplineSet
EndChar

StartChar: H
Encoding: 164 72 167
Width: 536
VWidth: 0
Flags: HW
HStem: 49 21G<54 115 421 481> 293 61<115 421> 578 20G<54 115 421 481>
VStem: 54 61<49 293 354 598> 421 60<49 293 354 598>
LayerCount: 2
Back
Fore
SplineSet
54 598 m 1
 115 598 l 1
 115 354 l 1
 421 354 l 1
 421 598 l 1
 481 598 l 1
 481 49 l 1
 421 49 l 1
 421 293 l 1
 115 293 l 1
 115 49 l 1
 54 49 l 1
 54 598 l 1
EndSplineSet
EndChar

StartChar: I
Encoding: 165 73 168
Width: 536
VWidth: 0
Flags: HW
HStem: 49 61<176.333 237.333 298.333 359> 537 61<176.667 237 298.333 359>
VStem: 176 183<48.6667 109 537 597.667>
LayerCount: 2
Back
Fore
SplineSet
177 598 m 1
 359 598 l 1
 359 537 l 1
 298 537 l 1
 298 109 l 1
 359 109 l 1
 359 48 l 1
 176 49 l 1
 176 110 l 1
 237 109 l 1
 237 537 l 1
 176 537 l 1
 177 598 l 1
EndSplineSet
EndChar

StartChar: J
Encoding: 166 74 169
Width: 536
VWidth: 0
Flags: HW
HStem: 50 60<157.13 256.28> 537 61<237.286 298 358 420.143>
VStem: 55 60<150.989 230.355> 298 60<153.135 537.143>
LayerCount: 2
Back
Fore
SplineSet
53 230 m 1
 113 232 l 1
 115 151 l 1
 157 110 l 1
 256 110 l 1
 298 153 l 1
 298 537 l 1
 237 537 l 1
 237 598 l 1
 420 598 l 1
 420 537 l 1
 358 537 l 1
 358 141 l 2
 358 137 357 127 350 120 c 2
 291 59 l 2
 287 55 279 50 269 50 c 2
 145 50 l 2
 141 50 131 51 124 58 c 2
 64 116 l 2
 61 119 55 127 55 137 c 2
 53 230 l 1
EndSplineSet
EndChar

StartChar: K
Encoding: 167 75 170
Width: 536
VWidth: 0
Flags: HW
HStem: 49 21G<53 116 421 481> 578 20G<53 116 420 480>
VStem: 53 63<49 187.845 274.155 598> 421 60<49 67.5732 578.402 597>
LayerCount: 2
Back
Fore
SplineSet
116 188 m 1
 116 49 l 1
 53 49 l 1
 53 598 l 1
 116 598 l 1
 116 274 l 1
 420 578 l 1
 420 597 l 1
 480 597 l 1
 480 566 l 2
 480 558 477 551 471 545 c 2
 250 323 l 1
 472 101 l 2
 478 95 481 88 481 80 c 2
 481 49 l 1
 421 49 l 1
 421 68 l 1
 208 281 l 1
 116 188 l 1
EndSplineSet
EndChar

StartChar: L
Encoding: 168 76 171
Width: 536
VWidth: 0
Flags: HW
HStem: 49 60<115 481> 578 20G<54 115>
VStem: 54 61<109 598>
LayerCount: 2
Back
Fore
SplineSet
54 598 m 1
 115 598 l 1
 115 109 l 1
 481 109 l 1
 481 49 l 1
 54 49 l 1
 54 598 l 1
EndSplineSet
EndChar

StartChar: M
Encoding: 169 77 172
Width: 536
VWidth: 0
Flags: HW
HStem: 49 21G<54 114> 578 20G<446.5 452>
VStem: 54 60<49 494> 237 61<294 370> 420 60<47 496>
LayerCount: 2
Back
Fore
SplineSet
298 370 m 1
 298 294 l 1
 237 294 l 1
 237 370 l 1
 114 494 l 1
 114 49 l 1
 54 49 l 1
 54 566 l 2
 54 579 61 589 73 594 c 0
 77 596 80 596 84 596 c 0
 91 596 99 593 105 587 c 2
 266 426 l 1
 429 589 l 2
 435 595 443 598 450 598 c 0
 454 598 457 598 461 596 c 0
 473 591 480 581 480 568 c 2
 480 47 l 1
 420 47 l 1
 420 496 l 1
 298 370 l 1
EndSplineSet
EndChar

StartChar: N
Encoding: 170 78 173
Width: 536
VWidth: 0
Flags: HW
HStem: 48 21G<54 115> 578 20G<54 135 421 481>
VStem: 54 61<49 508> 421 60<50 200 292 598>
LayerCount: 2
Back
Fore
SplineSet
54 49 m 1
 54 598 l 1
 115 598 l 1
 421 292 l 1
 421 598 l 1
 481 598 l 1
 481 50 l 1
 421 50 l 1
 421 200 l 1
 115 508 l 1
 115 48 l 1
 54 49 l 1
EndSplineSet
EndChar

StartChar: O
Encoding: 171 79 174
Width: 536
VWidth: 0
Flags: HW
HStem: 50 60<156.125 377.719> 538 60<157.122 378.235>
VStem: 55 60<149.664 494.236> 421 60<152.572 492.861>
LayerCount: 2
Back
Fore
SplineSet
117 494 m 1
 115 150 l 1
 156 110 l 1
 378 110 l 1
 421 153 l 1
 421 493 l 1
 378 537 l 1
 157 538 l 1
 117 494 l 1
65 526 m 2
 122 588 l 2
 129 596 138 598 144 598 c 2
 391 597 l 2
 401 597 410 592 413 588 c 2
 473 526 l 2
 480 519 481 510 481 505 c 2
 481 140 l 2
 481 130 476 122 472 119 c 2
 411 59 l 2
 404 52 395 50 390 50 c 2
 144 50 l 2
 134 50 126 55 123 58 c 2
 64 115 l 2
 57 122 55 132 55 137 c 2
 57 506 l 2
 57 515 61 522 65 526 c 2
EndSplineSet
EndChar

StartChar: P
Encoding: 172 80 175
Width: 536
VWidth: 0
Flags: HW
HStem: 48 21G<53 115> 231 62<115 317.372> 537 61<115 317.604>
VStem: 53 62<48 231.167 292.667 536.999> 421 60<398.087 437.233>
LayerCount: 2
Back
Fore
SplineSet
115 293 m 1
 317 293 l 1
 421 398 l 1
 420 437 l 1
 318 538 l 1
 115 537 l 1
 115 293 l 1
115 231 m 1
 115 48 l 1
 53 48 l 1
 53 598 l 1
 330 598 l 2
 338 598 345 595 351 589 c 2
 471 471 l 2
 477 465 480 458 480 450 c 2
 481 386 l 2
 481 378 478 371 472 365 c 2
 351 242 l 2
 345 236 338 233 330 233 c 2
 115 231 l 1
EndSplineSet
EndChar

StartChar: Q
Encoding: 173 81 176
Width: 536
VWidth: 0
Flags: HW
HStem: 52 60<219 267> 536 60<219 317>
VStem: 56 60<214 434> 238 60<175 232> 418 60<213 432>
LayerCount: 2
Back
Fore
SplineSet
373 83 m 1
 474 -26 l 1
 430 -66 l 1
 322 53 l 1
 207 52 l 2
 199 52 192 55 186 61 c 2
 65 180 l 2
 59 186 56 193 56 201 c 2
 57 446 l 2
 57 454 60 461 66 467 c 2
 185 587 l 2
 191 593 198 596 206 596 c 2
 330 596 l 2
 338 596 345 593 351 587 c 2
 471 465 l 2
 477 459 480 452 480 444 c 2
 478 200 l 2
 478 191 475 185 469 179 c 2
 373 83 l 1
330 124 m 1
 418 213 l 1
 420 432 l 1
 317 536 l 1
 219 536 l 1
 117 434 l 1
 116 214 l 1
 219 112 l 1
 267 112 l 1
 242 152 l 2
 239 157 238 161 238 167 c 2
 238 232 l 1
 298 232 l 1
 298 175 l 1
 330 124 l 1
EndSplineSet
EndChar

StartChar: R
Encoding: 174 82 177
Width: 536
VWidth: 0
Flags: HW
HStem: 49 21G<54 115 420 480> 294 60<114 193 279 379> 537 60<114 378>
VStem: 54 60<49 294 354 537> 421 60<49 67 396 494>
LayerCount: 2
Back
Fore
SplineSet
279 294 m 1
 471 100 l 2
 477 94 480 87 480 79 c 2
 480 49 l 1
 420 49 l 1
 420 67 l 1
 193 294 l 1
 114 294 l 1
 115 49 l 1
 54 49 l 1
 54 597 l 1
 390 597 l 2
 398 597 405 594 411 588 c 2
 472 528 l 2
 478 522 481 515 481 507 c 2
 481 384 l 2
 481 376 478 369 472 363 c 2
 413 303 l 2
 407 297 400 294 392 294 c 2
 279 294 l 1
114 354 m 1
 379 354 l 1
 421 396 l 1
 421 494 l 1
 378 537 l 1
 114 537 l 1
 114 354 l 1
EndSplineSet
EndChar

StartChar: S
Encoding: 175 83 178
Width: 536
VWidth: 0
Flags: HW
HStem: 48 60<158.376 379.78> 476 21G<422 482> 536 60<161.427 381.573>
VStem: 58 60<151.427 170.5 460.921 492.573> 420 60<152.694 184.079 476 495.573>
LayerCount: 2
Back
Fore
SplineSet
422 496 m 1
 382 536 l 1
 161 536 l 1
 118 493 l 1
 118 461 l 1
 467 225 l 2
 476 219 480 210 480 200 c 2
 480 141 l 2
 480 133 477 127 472 121 c 2
 415 59 l 2
 409 53 402 49 393 49 c 2
 146 48 l 2
 138 48 131 51 125 57 c 2
 64 118 l 2
 58 124 55 131 55 139 c 2
 55 170 l 1
 115 170 l 1
 115 151 l 1
 158 108 l 1
 380 109 l 1
 420 153 l 1
 420 184 l 1
 71 420 l 2
 62 426 58 435 58 445 c 2
 58 505 l 2
 58 513 61 520 67 526 c 2
 128 587 l 2
 134 593 141 596 149 596 c 2
 394 596 l 2
 402 596 409 593 415 587 c 2
 473 529 l 2
 479 523 482 516 482 508 c 2
 482 476 l 1
 422 476 l 1
 422 496 l 1
EndSplineSet
EndChar

StartChar: T
Encoding: 176 84 179
Width: 536
VWidth: 0
Flags: HW
HStem: 49 21G<237 298> 537 61<54 237 298 481>
VStem: 237 61<49 537>
LayerCount: 2
Back
Fore
SplineSet
54 598 m 1
 481 598 l 1
 481 537 l 1
 298 537 l 1
 298 49 l 1
 237 49 l 1
 237 537 l 1
 54 537 l 1
 54 598 l 1
EndSplineSet
EndChar

StartChar: U
Encoding: 177 85 180
Width: 536
VWidth: 0
Flags: HW
HStem: 50 60<156.859 379.311> 577 20G<54.3335 114.391 420.304 480.333>
VStem: 56 60<151.697 597.246> 420 60<153.19 597.956>
LayerCount: 2
Back
Fore
SplineSet
54 597 m 1
 114 597 l 1
 116 152 l 1
 157 110 l 1
 379 110 l 1
 420 153 l 1
 420 598 l 1
 480 598 l 1
 480 141 l 2
 480 137 479 128 472 121 c 2
 414 60 l 2
 410 56 402 50 392 50 c 2
 144 50 l 2
 139 50 130 52 123 59 c 2
 64 118 l 2
 61 121 56 129 56 139 c 2
 54 597 l 1
EndSplineSet
EndChar

StartChar: V
Encoding: 178 86 181
Width: 536
VWidth: 0
Flags: HW
HStem: 48 21G<259.5 272.5> 578 20G<52 112.471 421 481>
VStem: 54 60<513 596> 421 60<512 598>
LayerCount: 2
Back
Fore
SplineSet
114 513 m 1
 266 155 l 1
 421 512 l 1
 421 598 l 1
 481 598 l 1
 481 506 l 2
 481 502 480 498 479 494 c 2
 294 66 l 2
 289 55 279 48 266 48 c 0
 253 48 243 55 238 66 c 2
 56 495 l 2
 55 499 54 502 54 506 c 2
 52 596 l 1
 112 598 l 1
 114 513 l 1
EndSplineSet
EndChar

StartChar: W
Encoding: 179 87 182
Width: 536
VWidth: 0
Flags: HW
HStem: 48 21G<141 148.5 385.5 393> 577 20G<54 114.045 420 480>
VStem: 55 60<150 597> 237 60<213 352> 420 60<151 598>
LayerCount: 2
Back
Fore
SplineSet
266 157 m 1
 166 57 l 2
 160 51 152 48 145 48 c 0
 137 48 130 51 124 57 c 2
 64 117 l 2
 58 123 55 130 55 138 c 2
 54 597 l 1
 114 597 l 1
 115 150 l 1
 145 121 l 1
 237 213 l 1
 237 352 l 1
 297 352 l 1
 297 211 l 1
 389 121 l 1
 420 151 l 1
 420 598 l 1
 480 598 l 1
 480 138 l 2
 480 129 477 122 471 116 c 2
 410 57 l 2
 404 52 397 49 389 49 c 0
 382 49 374 52 368 58 c 2
 266 157 l 1
EndSplineSet
EndChar

StartChar: X
Encoding: 180 88 183
Width: 536
VWidth: 0
Flags: HW
HStem: 578 20G<55.9971 115.998 420.999 481>
VStem: 56 60<50 126.669 520.331 598.001> 421 60<50 126.669 520.331 598.001>
LayerCount: 2
Back
Fore
SplineSet
268 281 m 1
 116 127 l 1
 116 50 l 1
 56 50 l 1
 56 139 l 2
 56 147 59 154 65 160 c 2
 226 323 l 1
 65 487 l 2
 59 493 56 500 56 508 c 2
 56 598 l 1
 116 598 l 1
 116 520 l 1
 269 366 l 1
 421 520 l 1
 421 598 l 1
 481 598 l 1
 481 508 l 2
 481 500 478 493 472 487 c 2
 311 324 l 1
 472 160 l 2
 478 154 481 147 481 139 c 2
 481 50 l 1
 421 50 l 1
 421 127 l 1
 268 281 l 1
EndSplineSet
EndChar

StartChar: Y
Encoding: 181 89 184
Width: 536
VWidth: 0
Flags: HW
HStem: 49 21G<237.182 298.182> 578 20G<55.5 115.5 421.5 481.5>
VStem: 55 60<578.522 598> 237 61<48.7273 371> 421 60<579.854 598>
LayerCount: 2
Back
Fore
SplineSet
298 371 m 1
 298 49 l 1
 237 49 l 1
 237 371 l 1
 64 545 l 2
 58 551 55 558 55 566 c 2
 55 598 l 1
 115 598 l 1
 115 579 l 1
 269 426 l 1
 421 580 l 1
 421 598 l 1
 481 598 l 1
 481 568 l 2
 481 560 479 552 473 546 c 2
 298 371 l 1
EndSplineSet
EndChar

StartChar: Z
Encoding: 182 90 185
Width: 536
VWidth: 0
Flags: HW
HStem: 49 60<115 480.5> 537 61<54.25 420>
VStem: 55 60<109.5 128.573> 420 60<518.427 537>
LayerCount: 2
Back
Fore
SplineSet
480 506 m 2
 480 498 477 491 471 485 c 2
 115 129 l 1
 115 110 l 1
 481 110 l 1
 481 50 l 1
 55 49 l 1
 55 141 l 2
 55 149 58 156 64 162 c 2
 420 518 l 1
 420 537 l 1
 54 537 l 1
 54 598 l 1
 480 598 l 1
 480 506 l 2
EndSplineSet
EndChar

StartChar: AE
Encoding: 183 198 186
Width: 536
VWidth: 0
Flags: HW
HStem: 49 60<359 481> 231 62<115 298> 293 61<359 481> 537 61<359 481>
VStem: 53 62<49 231 293 374> 298 183<49 109 293 354> 298 61<109 231 354 537>
LayerCount: 2
Back
Fore
SplineSet
299 537 m 1xdc
 115 374 l 1
 115 293 l 1
 298 293 l 1
 299 537 l 1xdc
54 49 m 1
 54 121 53 191 53 256 c 0
 53 299 53 340 55 378 c 1
 55 406 67 420 87 438 c 2
 233 570 l 2
 249 584 259 593 273 598 c 1
 377 598 401 598 481 598 c 1
 481 537 l 1xdc
 359 537 l 1
 359 354 l 1xba
 481 354 l 1
 481 293 l 1xbc
 359 293 l 1
 359 109 l 1xba
 481 109 l 1
 481 49 l 1
 298 49 l 1xbc
 298 231 l 1xda
 115 231 l 1
 115 49 l 1
 54 49 l 1
EndSplineSet
EndChar

StartChar: Ooblique
Encoding: 184 216 187
Width: 536
VWidth: 0
Flags: HW
HStem: 50 60<156.125 377.719> 538 60<157.122 378.235>
VStem: 55 60<216.75 494.236> 421 60<152.572 432.25>
LayerCount: 2
Back
Fore
SplineSet
421 432 m 1
 125 140 l 1
 156 110 l 1
 378 110 l 1
 421 153 l 1
 421 432 l 1
408 506 m 1
 378 537 l 1
 157 538 l 1
 117 494 l 1
 115 217 l 1
 408 506 l 1
65 526 m 2
 122 588 l 2
 129 596 138 598 144 598 c 2
 391 597 l 2
 401 597 410 592 413 588 c 2
 473 526 l 2
 480 519 481 510 481 505 c 2
 481 140 l 2
 481 130 476 122 472 119 c 2
 411 59 l 2
 404 52 395 50 390 50 c 2
 144 50 l 2
 134 50 126 55 123 58 c 2
 64 115 l 2
 57 122 55 132 55 137 c 2
 57 506 l 2
 57 515 61 522 65 526 c 2
EndSplineSet
EndChar

StartChar: semicolon
Encoding: 187 59 190
Width: 536
VWidth: 0
Flags: HW
HStem: 293 122<237 359>
VStem: 237 122<107 171 293 415>
LayerCount: 2
Back
Fore
SplineSet
359 83 m 2
 359 78 358 73 357 68 c 0
 356 64 353 60 351 56 c 0
 349 52 346 47 343 44 c 2
 227 -71 l 1
 144 8 l 1
 237 107 l 1
 237 171 l 1
 358 171 l 1
 359 83 l 2
237 415 m 1
 359 415 l 1
 359 293 l 1
 237 293 l 1
 237 415 l 1
EndSplineSet
EndChar

StartChar: asterisk
Encoding: 188 42 191
Width: 536
VWidth: 0
Flags: HW
HStem: 578 20G<237 298>
VStem: 237 61<170 354 414 598>
LayerCount: 2
Back
Fore
SplineSet
237 354 m 1
 298 354 l 1
 298 170 l 1
 237 170 l 1
 237 354 l 1
237 598 m 1
 298 598 l 1
 298 414 l 1
 237 414 l 1
 237 598 l 1
431 528 m 1
 474 486 l 1
 375 386 l 1
 476 282 l 1
 433 240 l 1
 290 386 l 1
 431 528 l 1
105 528 m 1
 246 386 l 1
 103 240 l 1
 61 282 l 1
 162 386 l 1
 63 486 l 1
 105 528 l 1
EndSplineSet
EndChar

StartChar: copyright
Encoding: 205 169 208
Width: 536
VWidth: 0
Flags: HW
HStem: 50 60<190 348> 171 60<279 359> 415 60<279 359> 538 60<191 348>
VStem: 58 60<182 464> 177 60<274 372> 420 60<182 464>
LayerCount: 2
Back
Fore
SplineSet
359 475 m 1
 359 415 l 1
 279 415 l 1
 237 372 l 1
 237 274 l 1
 279 231 l 1
 359 231 l 1
 359 171 l 1
 267 171 l 2
 262 171 252 173 245 180 c 2
 185 241 l 2
 182 244 177 252 177 262 c 2
 177 384 l 2
 177 389 178 398 185 405 c 2
 245 466 l 2
 248 470 256 475 266 475 c 2
 359 475 l 1
67 498 m 2
 157 589 l 2
 164 596 173 598 178 598 c 2
 360 598 l 2
 370 598 379 593 382 589 c 2
 472 497 l 2
 479 490 480 481 480 476 c 2
 480 170 l 2
 480 160 475 152 472 149 c 2
 382 59 l 2
 375 52 365 50 360 50 c 2
 177 50 l 2
 167 50 159 56 156 59 c 2
 67 149 l 2
 60 156 58 165 58 170 c 2
 58 477 l 2
 58 487 64 495 67 498 c 2
118 464 m 1
 118 182 l 1
 190 110 l 1
 348 110 l 1
 420 182 l 1
 420 464 l 1
 348 538 l 1
 191 538 l 1
 118 464 l 1
EndSplineSet
EndChar

StartChar: registered
Encoding: 206 174 209
Width: 536
VWidth: 0
Flags: HW
HStem: 50 60<190 348> 293 60<236 262> 415 61<236 286> 538 60<191 348>
VStem: 58 60<182 464> 176 60<170 293 353 415> 298 60<171 226 367 402> 420 60<182 464>
LayerCount: 2
Back
Fore
SplineSet
67 498 m 2
 157 589 l 2
 164 596 173 598 178 598 c 2
 360 598 l 2
 370 598 378 593 382 589 c 2
 472 497 l 2
 479 490 480 481 480 476 c 2
 480 170 l 2
 480 160 475 152 472 149 c 2
 382 59 l 2
 374 52 365 50 360 50 c 2
 177 50 l 2
 167 50 159 55 156 59 c 2
 67 149 l 2
 60 156 58 165 58 170 c 2
 58 477 l 2
 58 487 64 494 67 498 c 2
118 464 m 1
 118 182 l 1
 190 110 l 1
 348 110 l 1
 420 182 l 1
 420 464 l 1
 348 538 l 1
 191 538 l 1
 118 464 l 1
176 476 m 1
 298 475 l 2
 308 475 316 470 319 467 c 2
 351 437 l 2
 358 430 360 421 360 415 c 2
 360 354 l 2
 360 344 355 336 351 332 c 2
 324 306 l 1
 355 247 l 2
 356 244 358 239 358 233 c 2
 358 171 l 1
 298 171 l 1
 298 226 l 1
 262 293 l 1
 236 293 l 1
 236 170 l 1
 176 170 l 1
 176 476 l 1
236 415 m 1
 236 353 l 1
 286 353 l 1
 300 367 l 1
 300 402 l 1
 286 415 l 1
 236 415 l 1
EndSplineSet
EndChar

StartChar: boxA
Encoding: 207 -1 210
Width: 536
VWidth: 0
Flags: HW
HStem: -13 62<54 481> 171 60<54 481> 415 60<54 237>
VStem: -7 61<49 171 293 415 475 556> 237 60<293 415 475 555> 481 61<49 171>
LayerCount: 2
Back
Fore
SplineSet
-7 231 m 1
 542 231 l 1
 542 -13 l 1
 -7 -13 l 1
 -7 231 l 1
54 171 m 1
 54 49 l 1
 481 49 l 1
 481 171 l 1
 54 171 l 1
53 293 m 1
 -7 293 l 1
 -5 569 l 2
 -5 579 1 587 4 590 c 2
 126 710 l 2
 132 716 139 718 145 718 c 0
 155 718 163 714 168 709 c 2
 289 588 l 2
 296 581 297 572 297 567 c 2
 297 293 l 1
 237 293 l 1
 237 415 l 1
 54 415 l 1
 53 293 l 1
54 475 m 1
 237 475 l 1
 237 555 l 1
 146 646 l 1
 55 556 l 1
 54 475 l 1
EndSplineSet
EndChar

StartChar: insert
Encoding: 208 -1 211
Width: 536
VWidth: 0
Flags: HW
HStem: 456 20G<246 286>
LayerCount: 2
Back
Fore
SplineSet
-7 18 m 1
 -7 202 l 1
 266 476 l 1
 541 199 l 1
 540 18 l 1
 266 291 l 1
 -7 18 l 1
EndSplineSet
EndChar

StartChar: boxB
Encoding: 209 -1 212
Width: 536
VWidth: 0
Flags: HW
HStem: -13 62<54 481> 171 60<54 481> 294 60<238 298 358 440> 476 59<358 437> 659 60<238 298 358 440>
VStem: -7 61<49 171> 297 61<354 476 536 659> 481 61<49 171 396 434 580 616>
LayerCount: 2
Back
Fore
SplineSet
-7 231 m 1
 542 231 l 1
 542 -13 l 1
 -7 -13 l 1
 -7 231 l 1
54 171 m 1
 54 49 l 1
 481 49 l 1
 481 171 l 1
 54 171 l 1
238 659 m 1
 238 719 l 1
 452 718 l 2
 462 718 470 713 473 710 c 2
 534 649 l 2
 541 642 543 633 543 628 c 2
 543 568 l 2
 543 558 538 549 534 546 c 2
 494 508 l 1
 533 466 l 2
 540 459 541 450 541 446 c 2
 541 384 l 2
 541 374 536 366 533 363 c 2
 473 303 l 2
 466 296 457 294 452 294 c 2
 238 294 l 1
 238 354 l 1
 297 354 l 1
 297 659 l 1
 238 659 l 1
359 354 m 1
 439 354 l 1
 481 396 l 1
 481 434 l 1
 441 476 l 1
 359 476 l 1
 359 354 l 1
359 659 m 1
 359 536 l 1
 437 536 l 1
 483 580 l 1
 483 616 l 1
 440 659 l 1
 359 659 l 1
EndSplineSet
EndChar

StartChar: box6
Encoding: 210 -1 213
Width: 536
VWidth: 0
Flags: HW
HStem: -73 60<54 481> 48 60<220 318> 172 60<176 195> 233 60<280 316> 537 61<54 481>
VStem: -7 61<-13 537> 117 60<151 172 232 372> 361 60<153 190> 481 61<-13 537>
LayerCount: 2
Back
Fore
SplineSet
177 232 m 1
 195 232 l 1
 246 284 l 2
 249 287 257 293 267 293 c 2
 329 293 l 2
 334 293 342 291 349 284 c 2
 411 224 l 2
 415 221 421 212 421 202 c 2
 421 140 l 2
 421 136 419 127 412 120 c 2
 353 58 l 2
 349 54 341 48 331 48 c 2
 207 48 l 2
 202 48 193 50 186 57 c 2
 125 118 l 2
 122 121 117 129 117 139 c 2
 117 384 l 2
 117 389 118 398 125 405 c 2
 185 467 l 1
 229 426 l 1
 177 372 l 1
 177 232 l 1
177 172 m 1
 177 151 l 1
 220 108 l 1
 318 108 l 1
 361 153 l 1
 361 190 l 1
 316 233 l 1
 280 233 l 1
 228 181 l 2
 221 174 212 172 207 172 c 2
 177 172 l 1
54 537 m 1
 54 -13 l 1
 481 -13 l 1
 481 537 l 1
 54 537 l 1
-7 598 m 1
 542 598 l 1
 542 -73 l 1
 -7 -73 l 1
 -7 598 l 1
EndSplineSet
EndChar

StartChar: plusminus
Encoding: 211 177 214
Width: 536
VWidth: 0
Flags: HW
HStem: 109 62<54 481> 415 61<54 237 298 481> 639 20G<237 298>
VStem: 237 61<231 415 476 659>
LayerCount: 2
Back
Fore
SplineSet
237 659 m 1
 298 659 l 1
 298 476 l 1
 481 476 l 1
 481 415 l 1
 298 415 l 1
 298 231 l 1
 237 231 l 1
 237 415 l 1
 54 415 l 1
 54 476 l 1
 237 476 l 1
 237 659 l 1
54 171 m 1
 481 171 l 1
 481 109 l 1
 54 109 l 1
 54 171 l 1
EndSplineSet
EndChar

StartChar: ETH
Encoding: 212 208 215
Width: 536
VWidth: 0
Flags: HW
HStem: 49 61<54 115 176 317> 298 54<55 115 176 299> 538 60<54 115 176 317>
VStem: 115 61<110 298 352 538> 420 60<213 433>
LayerCount: 2
Back
Fore
SplineSet
115 538 m 1
 54 538 l 1
 54 598 l 1
 330 597 l 2
 340 597 348 592 351 588 c 2
 471 466 l 2
 478 459 480 450 480 445 c 2
 480 201 l 2
 480 191 475 183 471 179 c 2
 350 59 l 2
 343 52 334 50 329 50 c 2
 54 49 l 1
 54 109 l 1
 115 109 l 1
 115 298 l 1
 55 298 l 1
 55 352 l 1
 115 352 l 1
 115 538 l 1
176 110 m 1
 317 110 l 1
 420 213 l 1
 420 433 l 1
 317 537 l 1
 176 538 l 1
 176 352 l 1
 299 352 l 1
 299 298 l 1
 176 298 l 1
 176 110 l 1
EndSplineSet
EndChar

StartChar: rightarrow
Encoding: 213 -1 216
Width: 536
VWidth: 0
Flags: HW
HStem: 293 61<-7 298> 456 20G<298 322>
LayerCount: 2
Back
Fore
SplineSet
298 476 m 1
 479 323 l 1
 298 171 l 1
 298 293 l 1
 -7 293 l 1
 -7 354 l 1
 298 354 l 1
 298 476 l 1
EndSplineSet
EndChar

StartChar: THORN
Encoding: 214 222 217
Width: 536
VWidth: 0
Flags: HW
HStem: 141 60<113 316.399> 447 60<113 316.574> 577 20G<55 113>
VStem: 55 58<50 141.319 201.319 446.666 506.666 597> 420 60<305.712 342.907>
LayerCount: 2
Back
Fore
SplineSet
55 597 m 1
 113 597 l 1
 113 507 l 1
 329 507 l 2
 339 507 347 501 350 498 c 2
 472 377 l 2
 479 370 480 360 480 355 c 2
 480 293 l 2
 480 283 475 275 472 272 c 2
 350 150 l 2
 343 143 334 141 329 141 c 2
 113 141 l 1
 113 50 l 1
 55 50 l 1
 55 597 l 1
113 447 m 1
 113 201 l 1
 316 201 l 1
 420 306 l 1
 420 343 l 1
 317 447 l 1
 113 447 l 1
EndSplineSet
EndChar

StartChar: upshift
Encoding: 215 -1 218
Width: 536
VWidth: 0
Flags: HW
HStem: -11 60<234 299> 315 60<140 174 359 392>
VStem: 174 60<49 315> 299 60<49 315>
LayerCount: 2
Back
Fore
SplineSet
174 -11 m 1
 174 315 l 1
 18 315 l 1
 266 637 l 1
 513 315 l 1
 359 315 l 1
 359 -11 l 1
 174 -11 l 1
234 49 m 1
 299 49 l 1
 299 375 l 1
 392 375 l 1
 266 539 l 1
 140 375 l 1
 234 375 l 1
 234 49 l 1
EndSplineSet
EndChar

StartChar: human
Encoding: 216 -1 219
Width: 536
VWidth: 0
Flags: HW
HStem: 354 61<54 237 298 481> 602 60<239 297>
VStem: 177 60<538 599> 237 61<245 354 415 492> 299 60<538 600>
LayerCount: 2
Back
Fore
SplineSet
104 57 m 1xd8
 66 104 l 1
 237 245 l 1
 237 354 l 1
 54 354 l 1
 54 415 l 1
 237 415 l 1
 237 481 l 1xd8
 200 494 177 530 177 568 c 0xe8
 177 621 220 662 268 662 c 0
 322 662 359 616 359 568 c 0
 359 526 332 493 297 481 c 1
 298 415 l 1
 481 415 l 1
 481 354 l 1
 298 354 l 1
 298 245 l 1
 471 101 l 1
 433 55 l 1
 267 193 l 1
 104 57 l 1xd8
237 568 m 0xe8
 237 550 251 536 268 536 c 0
 283 536 299 548 299 568 c 0
 299 586 285 602 268 602 c 0
 253 602 237 588 237 568 c 0xe8
EndSplineSet
EndChar

StartChar: underB
Encoding: 217 -1 220
Width: 536
VWidth: 0
Flags: HW
HStem: 171 60<-7 542> 294 60<117 177 238 319> 477 59<238 317> 659 60<118 177 238 319>
VStem: 177 61<354 477 536 659> 361 60<397 434 580 616>
LayerCount: 2
Back
Fore
SplineSet
117 659 m 1
 117 719 l 1
 331 719 l 2
 341 719 350 713 353 710 c 2
 414 650 l 2
 421 643 422 633 422 628 c 2
 422 568 l 2
 422 558 417 549 413 546 c 2
 374 508 l 1
 413 466 l 2
 420 459 421 450 421 446 c 2
 421 384 l 2
 421 374 415 366 412 363 c 2
 353 303 l 2
 346 296 336 294 331 294 c 2
 117 294 l 1
 117 354 l 1
 177 354 l 1
 177 659 l 1
 117 659 l 1
238 354 m 1
 319 354 l 1
 361 397 l 1
 361 434 l 1
 321 477 l 1
 238 477 l 1
 238 354 l 1
238 659 m 1
 238 536 l 1
 317 536 l 1
 362 580 l 1
 362 616 l 1
 319 659 l 1
 238 659 l 1
-7 231 m 1
 542 231 l 1
 542 171 l 1
 -7 171 l 1
 -7 231 l 1
EndSplineSet
EndChar

StartChar: downshift
Encoding: 218 -1 221
Width: 536
VWidth: 0
Flags: HW
HStem: 272 60<142 176 362 394> 598 60<236 302>
VStem: 176 60<332 598> 302 60<332 598>
LayerCount: 2
Back
Fore
SplineSet
176 658 m 1
 362 658 l 1
 362 332 l 1
 516 332 l 1
 268 10 l 1
 20 332 l 1
 176 332 l 1
 176 658 l 1
236 598 m 1
 236 272 l 1
 142 272 l 1
 268 108 l 1
 394 272 l 1
 302 272 l 1
 302 598 l 1
 236 598 l 1
EndSplineSet
EndChar

StartChar: boxquestion
Encoding: 219 -1 222
Width: 536
VWidth: 0
Flags: HW
HStem: -73 60<61 488> 49 60<244 305> 538 60<226.283 324.785> 659 61<61 488>
VStem: 0 61<-13 659> 122 60<415 494.429> 245 60<49 109 171.5 250.645> 368 60<398.855 493.361> 488 61<-13 659>
LayerCount: 2
Back
Fore
SplineSet
180 415 m 1
 120 415 l 1
 120 507 l 2
 120 517 125 525 129 528 c 2
 191 589 l 2
 198 596 207 598 212 598 c 2
 336 598 l 2
 346 598 353 592 357 588 c 2
 417 526 l 2
 424 519 426 511 426 506 c 2
 426 386 l 2
 426 376 420 368 417 365 c 2
 303 251 l 1
 303 172 l 1
 243 172 l 1
 243 263 l 2
 243 268 245 277 252 284 c 2
 366 399 l 1
 366 493 l 1
 323 538 l 1
 224 538 l 1
 180 494 l 1
 180 415 l 1
242 109 m 1
 303 109 l 1
 303 49 l 1
 242 49 l 1
 242 109 l 1
61 659 m 1
 61 -13 l 1
 475 -13 l 1
 475 659 l 1
 61 659 l 1
0 720 m 1
 536 720 l 1
 536 -73 l 1
 0 -73 l 1
 0 720 l 1
EndSplineSet
EndChar

StartChar: boxsolid
Encoding: 220 -1 223
Width: 536
VWidth: 0
Flags: HW
VStem: 0 549<-73 720>
LayerCount: 2
Back
Fore
SplineSet
0 720 m 1
 549 720 l 1
 549 -73 l 1
 0 -73 l 1
 0 720 l 1
EndSplineSet
Validated: 1
EndChar

StartChar: badcommhi
Encoding: 236 -1 240
Width: 536
VWidth: 0
Flags: HW
HStem: 293 62<0 149 391 549>
LayerCount: 2
Back
Fore
SplineSet
0 689 m 1
 336 355 l 1
 536 355 l 1
 536 294 l 1
 391 293 l 1
 536 152 l 1
 537 -31 l 1
 215 293 l 1
 0 293 l 1
 0 355 l 1
 149 355 l 1
 0 507 l 1
 0 689 l 1
EndSplineSet
EndChar

StartChar: commhi
Encoding: 237 -1 241
Width: 536
VWidth: 0
Flags: HW
HStem: 293 59<0 536>
LayerCount: 2
Back
Fore
SplineSet
0 352 m 1
 536 352 l 1
 536 293 l 1
 0 293 l 1
 0 352 l 1
EndSplineSet
Validated: 1
EndChar

StartChar: commjag
Encoding: 238 -1 242
Width: 536
VWidth: 0
Flags: HW
HStem: 49 60<165.595 549.333> 295 60<0 264.405>
LayerCount: 2
Back
Fore
SplineSet
0 295 m 1
 0 355 l 1
 408 355 l 1
 166 109 l 1
 549 109 l 1
 549 49 l 1
 22 49 l 1
 264 295 l 1
 0 295 l 1
EndSplineSet
Validated: 1
EndChar

StartChar: commlo
Encoding: 239 -1 243
Width: 536
VWidth: 0
Flags: HW
HStem: 48 62<0 548.667>
LayerCount: 2
Back
Fore
SplineSet
0 110 m 1
 549 110 l 1
 549 48 l 1
 0 48 l 1
 0 110 l 1
EndSplineSet
Validated: 1
EndChar

StartChar: clockleft
Encoding: 240 -1 244
Width: 536
VWidth: 0
Flags: W
HStem: -136 66<426.33 487.822> -75 66<243.905 305.962> 46 66<122.317 183.683> 230 66<60.3303 121.822> 414 66<122.028 183.972> 534 66<245.028 306.972> 594 66<425.028 486.972>
VStem: 58 66<232.178 293.67> 120 66<48.0382 110.095 416.028 477.972> 242 66<-72.6826 -11.3174 536.317 597.683> 424 66<-133.822 -72.3303 4 250 596.317 657.683>
LayerCount: 2
Back
Fore
SplineSet
423 627 m 0x3a60
 423 645 438 660 456 660 c 0
 474 660 489 645 489 627 c 0
 489 609 474 594 456 594 c 0
 438 594 423 609 423 627 c 0x3a60
243 567 m 0
 243 585 258 600 276 600 c 0
 294 600 309 585 309 567 c 0
 309 549 294 534 276 534 c 0x3c60
 258 534 243 549 243 567 c 0
120 447 m 0x38e0
 120 465 135 480 153 480 c 0
 171 480 186 465 186 447 c 0
 186 429 171 414 153 414 c 0
 135 414 120 429 120 447 c 0x38e0
58 262 m 0x3960
 58 281 73 296 92 296 c 0
 110 296 124 281 124 262 c 0
 124 244 110 230 92 230 c 0
 73 230 58 244 58 262 c 0x3960
120 80 m 0x38e0
 120 98 135 112 153 112 c 0
 171 112 186 98 186 80 c 0
 186 61 171 46 153 46 c 0
 135 46 120 61 120 80 c 0x38e0
242 -42 m 0
 242 -24 256 -9 274 -9 c 0
 293 -9 308 -24 308 -42 c 0
 308 -60 293 -75 274 -75 c 0x7860
 256 -75 242 -60 242 -42 c 0
424 -104 m 0
 424 -85 439 -70 458 -70 c 0
 476 -70 490 -85 490 -104 c 0
 490 -122 476 -136 458 -136 c 0xb860
 439 -136 424 -122 424 -104 c 0
536 385 m 1
 536 300 l 1
 488 250 l 1
 488 4 l 1
 428 4 l 1
 428 262 l 2
 428 267 429 276 436 284 c 2
 536 385 l 1
EndSplineSet
Validated: 1
EndChar

StartChar: clockright
Encoding: 241 -1 245
Width: 536
VWidth: 0
Flags: W
HStem: -14 66<124.178 185.544> 108 66<243.905 305.85> 291 66<303.905 365.85> 476 66<245.317 306.683> 594 66<122.028 183.972>
VStem: 122 66<-11.5435 49.8216 596.95 657.05> 242 66<110.317 171.683 478.178 539.544> 302 66<293.317 354.683>
LayerCount: 2
Back
Fore
SplineSet
120 627 m 0xfc
 120 645 135 660 153 660 c 0
 171 660 186 645 186 627 c 0
 186 609 171 594 153 594 c 0
 135 594 120 609 120 627 c 0xfc
243 508 m 0
 243 526 258 542 276 542 c 0
 294 542 309 526 309 508 c 0
 309 490 294 476 276 476 c 0
 258 476 243 490 243 508 c 0
302 324 m 0xfd
 302 342 316 357 334 357 c 0
 352 357 368 342 368 324 c 0
 368 306 352 291 334 291 c 0
 316 291 302 306 302 324 c 0xfd
242 141 m 0xfe
 242 159 256 174 274 174 c 0
 292 174 308 159 308 141 c 0
 308 123 292 108 274 108 c 0
 256 108 242 123 242 141 c 0xfe
122 20 m 0
 122 38 136 52 154 52 c 0
 172 52 188 38 188 20 c 0
 188 2 172 -14 154 -14 c 0
 136 -14 122 2 122 20 c 0
138 537 m 1
 180 495 l 1
 -0 311 l 1
 0 340 0 368 -0 397 c 1
 138 537 l 1
EndSplineSet
Validated: 1
EndChar

StartChar: lock
Encoding: 242 -1 246
Width: 536
VWidth: 0
Flags: HW
LayerCount: 2
Back
Fore
SplineSet
547 754 m 1
 547 480 l 1
 424 356 l 1
 549 230 l 1
 548 -44 l 1
 287 219 l 1
 -1 -71 l 1
 -2 203 l 1
 150 356 l 1
 0 507 l 1
 0 780 l 1
 287 493 l 1
 547 754 l 1
EndSplineSet
Validated: 1
EndChar

StartChar: leftarrow
Encoding: 244 -1 248
Width: 536
VWidth: 0
Flags: HW
HStem: 293 61<230 535> 456 20G<206.34 230>
LayerCount: 2
Back
Fore
SplineSet
230 476 m 1
 230 354 l 1
 535 354 l 1
 535 293 l 1
 230 293 l 1
 230 171 l 1
 49 323 l 1
 230 476 l 1
EndSplineSet
Validated: 1
EndChar

StartChar: thorn
Encoding: 245 254 249
Width: 536
VWidth: 0
Flags: HW
HStem: 48 60<122 262.538> 414 60<122 264.037> 638 20G<60 122>
VStem: 60 62<-132 48.5 108.5 414 474 658> 367 60<213.39 310.61>
LayerCount: 2
Back
Fore
SplineSet
60 658 m 1
 122 658 l 1
 122 474 l 1
 276 474 l 2
 286 474 295 468 298 465 c 2
 418 344 l 2
 425 337 427 328 427 323 c 2
 427 201 l 2
 427 191 421 183 418 180 c 2
 296 57 l 2
 289 50 280 48 275 48 c 2
 122 48 l 1
 122 -132 l 1
 60 -132 l 1
 60 658 l 1
122 414 m 1
 122 108 l 1
 263 108 l 1
 367 213 l 1
 367 311 l 1
 264 414 l 1
 122 414 l 1
EndSplineSet
Validated: 1
EndChar

StartChar: keyleft
Encoding: 246 -1 250
Width: 536
VWidth: 0
Flags: HW
HStem: 226 60<276.99 399.67> 354 61<492.925 536> 490 60<275.791 399.445>
VStem: 176 60<325.791 449.01> 440 96<354.722 412.994>
LayerCount: 2
Back
Fore
SplineSet
236 388 m 0
 236 333 280 286 338 286 c 0
 393 286 440 330 440 388 c 0
 440 443 396 490 338 490 c 0
 283 490 236 446 236 388 c 0
176 388 m 0
 176 480 251 550 338 550 c 0
 420 550 485 490 498 415 c 1
 536 415 l 1
 536 354 l 1
 496 354 l 1
 480 279 414 226 338 226 c 0
 246 226 176 301 176 388 c 0
EndSplineSet
Validated: 1
EndChar

StartChar: keyright
Encoding: 247 -1 251
Width: 536
VWidth: 0
Flags: HW
HStem: 232 183<183.333 366> 354 61<0 183.333 366 427.333>
VStem: 183 183<232 354> 427 122<171.333 354.667>
LayerCount: 2
Back
Fore
SplineSet
0 415 m 1
 549 415 l 1
 549 171 l 1
 427 171 l 1
 427 355 l 1
 366 355 l 1
 366 232 l 1
 183 232 l 1
 183 354 l 1
 0 354 l 1
 0 415 l 1
EndSplineSet
Validated: 1
EndChar

StartChar: box4
Encoding: 248 -1 252
Width: 536
VWidth: 0
Flags: HW
HStem: -74 61<59 488> 49 21G<307 367> 171 60<183 307 367 427> 455 20G<330.5 342.5> 538 58<59 488>
VStem: 0 59<-13 538> 123 60<231 249> 307 60<49 171 231 373> 488 59<-13 538>
LayerCount: 2
Back
Fore
SplineSet
367 231 m 1
 427 231 l 1
 427 171 l 1
 367 171 l 1
 367 49 l 1
 307 49 l 1
 307 171 l 1
 153 171 l 2
 142 171 123 180 123 201 c 2
 123 261 l 2
 123 266 125 275 132 283 c 2
 315 467 l 2
 316 467 324 475 337 475 c 0
 348 475 367 467 367 445 c 2
 367 231 l 1
307 231 m 1
 307 373 l 1
 183 249 l 1
 183 231 l 1
 307 231 l 1
59 538 m 1
 59 -13 l 1
 488 -13 l 1
 488 538 l 1
 59 538 l 1
0 596 m 1
 547 596 l 1
 547 -74 l 1
 0 -74 l 1
 0 596 l 1
EndSplineSet
Validated: 1
EndChar

StartChar: underA
Encoding: 249 -1 253
Width: 536
VWidth: 0
Flags: HW
HStem: 172 58<0 544> 418 60<183 366>
VStem: 122 61<297 418 478 560> 366 60<296 418 478 558>
LayerCount: 2
Back
Fore
SplineSet
0 230 m 1
 544 230 l 1
 544 172 l 1
 0 172 l 1
 0 230 l 1
182 296 m 1
 122 297 l 1
 124 573 l 2
 124 583 130 590 133 594 c 2
 255 713 l 2
 261 719 268 721 275 721 c 0
 284 721 292 718 297 713 c 2
 418 592 l 2
 425 584 426 575 426 570 c 2
 426 296 l 1
 366 296 l 1
 366 418 l 1
 183 418 l 1
 182 296 l 1
183 478 m 1
 366 478 l 1
 366 558 l 1
 275 649 l 1
 184 560 l 1
 183 478 l 1
EndSplineSet
Validated: 1
EndChar

StartChar: magcard
Encoding: 250 -1 254
Width: 536
VWidth: 0
Flags: HW
HStem: 108 66<60 492> 232 62<60 488> 474 64<60 488>
VStem: 0 60<174 232 294 474> 488 60<174 232 294 474>
LayerCount: 2
Back
Fore
SplineSet
60 232 m 1
 60 174 l 1
 492 174 l 1
 492 232 l 1
 60 232 l 1
60 474 m 1
 60 294 l 1
 488 294 l 1
 488 474 l 1
 60 474 l 1
0 538 m 1
 548 538 l 1
 548 108 l 1
 0 108 l 1
 0 538 l 1
EndSplineSet
Validated: 1
EndChar

StartChar: boxhuman
Encoding: 251 -1 255
Width: 536
VWidth: 0
Flags: W
HStem: -70 54<98 448> 294 61<62 244 305 490> 542 60<246.403 303.642> 660 60<62 490>
VStem: 0 62<32 294 355 660> 184 60<477.973 539.451> 244 61<185 294 355 431.593> 306 60<477.913 539.579> 490 58<27 294 355 660>
LayerCount: 2
Back
Fore
SplineSet
244 508 m 0xfd80
 244 490 258 476 275 476 c 0
 290 476 306 488 306 508 c 0
 306 526 292 542 275 542 c 0
 260 542 244 528 244 508 c 0xfd80
0 720 m 1
 548 720 l 1
 548 -70 l 1
 0 -70 l 1
 0 720 l 1
490 27 m 1
 490 294 l 1
 305 294 l 1
 305 185 l 1xfb80
 490 27 l 1
490 355 m 1
 490 660 l 1
 62 660 l 1
 62 355 l 1
 244 355 l 1
 244 421 l 1xfb80
 207 434 184 470 184 508 c 0xfd80
 184 561 227 602 275 602 c 0
 329 602 366 556 366 508 c 0
 366 466 339 433 304 421 c 1
 305 355 l 1
 490 355 l 1
98 -16 m 1
 448 -16 l 1
 274 133 l 1
 98 -16 l 1
62 294 m 1
 62 32 l 1
 244 185 l 1
 244 294 l 1
 62 294 l 1
EndSplineSet
Validated: 1
EndChar

StartChar: apl_bracketright
Encoding: 253 -1 257
Width: 536
VWidth: 0
Flags: W
HStem: -13 62<184 305> 598 61<184 305>
VStem: 184 182<-13 49 598 659> 305 61<49 598>
LayerCount: 2
Back
Fore
SplineSet
184 659 m 1xe0
 366 659 l 1
 366 -13 l 1
 184 -13 l 1
 184 49 l 1xe0
 305 49 l 1
 305 598 l 1xd0
 184 598 l 1
 184 659 l 1xe0
EndSplineSet
Validated: 1
EndChar

StartChar: apl_bracketleft
Encoding: 254 -1 258
Width: 536
VWidth: 0
Flags: HW
HStem: -13 62<244 366> 598 61<244 366>
VStem: 184 182<-13 49 598 659> 184 60<49 598>
LayerCount: 2
Back
Fore
SplineSet
184 659 m 1
 366 659 l 1
 366 598 l 1
 244 598 l 1
 244 49 l 1
 366 49 l 1
 366 -13 l 1
 184 -13 l 1
 184 659 l 1
EndSplineSet
Validated: 1
EndChar

StartChar: apl_stile
Encoding: 255 -1 259
Width: 536
VWidth: 0
Flags: HW
VStem: 244 61<-195 781>
LayerCount: 2
Back
Fore
SplineSet
244 781 m 1
 305 781 l 1
 305 -195 l 1
 244 -195 l 1
 244 781 l 1
EndSplineSet
Validated: 1
EndChar

StartChar: apl_2vertical
Encoding: 256 -1 260
Width: 536
VWidth: 0
Flags: HW
VStem: 92 60<-195 781> 396 62<-195 781>
LayerCount: 2
Back
Fore
SplineSet
396 781 m 1
 458 781 l 1
 458 -195 l 1
 396 -195 l 1
 396 781 l 1
92 781 m 1
 152 781 l 1
 152 -195 l 1
 92 -195 l 1
 92 781 l 1
EndSplineSet
Validated: 1
EndChar

StartChar: apl_2horizontal
Encoding: 257 -1 261
Width: 536
VWidth: 0
Flags: HW
HStem: -104 61<0 549> 629 60<0 549>
LayerCount: 2
Back
Fore
SplineSet
0 -43 m 1
 549 -43 l 1
 549 -104 l 1
 0 -104 l 1
 0 -43 l 1
0 689 m 1
 549 689 l 1
 549 629 l 1
 0 629 l 1
 0 689 l 1
EndSplineSet
Validated: 1
EndChar

StartChar: apl_leftvbar
Encoding: 258 -1 262
Width: 536
VWidth: 0
Flags: HW
VStem: 92 60<-195 781>
LayerCount: 2
Back
Fore
SplineSet
92 781 m 1
 152 781 l 1
 152 -195 l 1
 92 -195 l 1
 92 781 l 1
EndSplineSet
Validated: 1
EndChar

StartChar: apl_rightvbar
Encoding: 259 -1 263
Width: 536
VWidth: 0
Flags: HW
VStem: 396 62<-195 781>
LayerCount: 2
Back
Fore
SplineSet
396 781 m 1
 458 781 l 1
 458 -195 l 1
 396 -195 l 1
 396 781 l 1
EndSplineSet
Validated: 1
EndChar

StartChar: apl_midvbar
Encoding: 260 -1 264
Width: 536
VWidth: 0
Flags: HW
VStem: 244 61<-195 781>
LayerCount: 2
Back
Fore
SplineSet
244 781 m 1
 305 781 l 1
 305 -195 l 1
 244 -195 l 1
 244 781 l 1
EndSplineSet
Validated: 1
EndChar

StartChar: apl_leftsolid
Encoding: 261 -1 265
Width: 536
VWidth: 0
Flags: HW
VStem: 0 274<-195 781>
LayerCount: 2
Back
Fore
SplineSet
0 781 m 1
 274 781 l 1
 274 -195 l 1
 0 -195 l 1
 0 781 l 1
EndSplineSet
Validated: 1
EndChar

StartChar: apl_rightsolid
Encoding: 262 -1 266
Width: 536
VWidth: 0
Flags: HW
VStem: 274 275<-195 781>
LayerCount: 2
Back
Fore
SplineSet
274 781 m 1
 549 781 l 1
 549 -195 l 1
 274 -195 l 1
 274 781 l 1
EndSplineSet
Validated: 1
EndChar

StartChar: apl_topsolid
Encoding: 263 -1 267
Width: 536
VWidth: 0
Flags: HW
HStem: 293 488<0 549>
VStem: 0 549<293 781>
LayerCount: 2
Back
Fore
SplineSet
0 781 m 1
 549 781 l 1
 549 293 l 1
 0 293 l 1
 0 781 l 1
EndSplineSet
Validated: 1
EndChar

StartChar: apl_bottomsolid
Encoding: 264 -1 268
Width: 536
VWidth: 0
Flags: HW
HStem: -195 488<0 549>
VStem: 0 549<-195 293>
LayerCount: 2
Back
Fore
SplineSet
0 293 m 1
 549 293 l 1
 549 -195 l 1
 0 -195 l 1
 0 293 l 1
EndSplineSet
Validated: 1
EndChar

StartChar: apl_solid
Encoding: 265 -1 269
Width: 536
VWidth: 0
Flags: HW
VStem: 0 549<-195 781>
LayerCount: 2
Back
Fore
SplineSet
0 781 m 1
 549 781 l 1
 549 -195 l 1
 0 -195 l 1
 0 781 l 1
EndSplineSet
Validated: 1
EndChar

StartChar: apl_midhbar
Encoding: 266 -1 270
Width: 536
VWidth: 0
Flags: HW
HStem: 293 61<0 549>
LayerCount: 2
Back
Fore
SplineSet
0 354 m 1
 549 354 l 1
 549 293 l 1
 0 293 l 1
 0 354 l 1
EndSplineSet
Validated: 1
EndChar

StartChar: apl_lowerleft
Encoding: 267 -1 271
Width: 536
VWidth: 0
Flags: HW
HStem: 293 61<436.419 549>
VStem: 242 62<485.474 781>
LayerCount: 2
Back
Fore
SplineSet
244 781 m 1
 305 781 l 1
 305 740 304 700 304 661 c 0
 304 492 325 361 549 354 c 1
 549 293 l 1
 272 293 242 405 242 600 c 0
 242 654 244 715 244 781 c 1
EndSplineSet
Validated: 1
EndChar

StartChar: apl_upperleft
Encoding: 268 -1 272
Width: 536
VWidth: 0
Flags: HW
HStem: 293 61<437.492 549>
VStem: 238 63<-195 154.973>
LayerCount: 2
Back
Fore
SplineSet
244 -195 m 1
 244 -109 238 -28 238 43 c 0
 238 230 276 354 549 354 c 1
 549 293 l 1
 330 286 301 152 301 -11 c 0
 301 -70 305 -133 305 -195 c 1
 244 -195 l 1
EndSplineSet
Validated: 1
EndChar

StartChar: apl_leftjoin
Encoding: 269 -1 273
Width: 536
VWidth: 0
Flags: HW
HStem: 293 61<305 549>
VStem: 244 61<-195 293 354 781>
LayerCount: 2
Back
Fore
SplineSet
244 781 m 1
 305 781 l 1
 305 354 l 1
 549 354 l 1
 549 293 l 1
 305 293 l 1
 305 -195 l 1
 244 -195 l 1
 244 781 l 1
EndSplineSet
Validated: 1
EndChar

StartChar: apl_bottomjoin
Encoding: 270 -1 274
Width: 536
VWidth: 0
Flags: HW
HStem: 293 61<0 244 305 549>
VStem: 244 61<354 781>
LayerCount: 2
Back
Fore
SplineSet
244 781 m 1
 305 781 l 1
 305 354 l 1
 549 354 l 1
 549 293 l 1
 0 293 l 1
 0 354 l 1
 244 354 l 1
 244 781 l 1
EndSplineSet
Validated: 1
EndChar

StartChar: apl_intersect
Encoding: 271 -1 275
Width: 536
VWidth: 0
Flags: HW
HStem: 293 61<0 244 305 549>
VStem: 244 61<-195 293 354 781>
LayerCount: 2
Back
Fore
SplineSet
244 781 m 1
 305 781 l 1
 305 354 l 1
 549 354 l 1
 549 293 l 1
 305 293 l 1
 305 -195 l 1
 244 -195 l 1
 244 293 l 1
 0 293 l 1
 0 354 l 1
 244 354 l 1
 244 781 l 1
EndSplineSet
Validated: 1
EndChar

StartChar: apl_lowerright
Encoding: 272 -1 276
Width: 536
VWidth: 0
Flags: HW
HStem: 293 61<0 112.581>
VStem: 245 62<486.588 781>
LayerCount: 2
Back
Fore
SplineSet
244 781 m 1
 305 781 l 1
 305 715 307 654 307 600 c 0
 307 405 277 293 0 293 c 1
 0 354 l 1
 225 361 245 493 245 664 c 0
 245 701 244 741 244 781 c 1
EndSplineSet
Validated: 1
EndChar

StartChar: apl_upperright
Encoding: 273 -1 277
Width: 536
VWidth: 0
Flags: HW
HStem: 293 61<0 111.508>
VStem: 248 63<-195 154.973>
LayerCount: 2
Back
Fore
SplineSet
0 354 m 1
 273 354 311 230 311 43 c 0
 311 -28 305 -109 305 -195 c 1
 244 -195 l 1
 244 -133 248 -70 248 -11 c 0
 248 152 219 286 0 293 c 1
 0 354 l 1
EndSplineSet
Validated: 1
EndChar

StartChar: apl_rightjoin
Encoding: 274 -1 278
Width: 536
VWidth: 0
Flags: HW
HStem: 293 61<0 244>
VStem: 244 61<-195 293 354 781>
LayerCount: 2
Back
Fore
SplineSet
244 781 m 1
 305 781 l 1
 305 -195 l 1
 244 -195 l 1
 244 293 l 1
 0 293 l 1
 0 354 l 1
 244 354 l 1
 244 781 l 1
EndSplineSet
Validated: 1
EndChar

StartChar: apl_topjoin
Encoding: 275 -1 279
Width: 536
VWidth: 0
Flags: HW
HStem: 293 61<0 244 305 549>
VStem: 244 61<-195 293>
LayerCount: 2
Back
Fore
SplineSet
0 354 m 1
 549 354 l 1
 549 293 l 1
 305 293 l 1
 305 -195 l 1
 244 -195 l 1
 244 293 l 1
 0 293 l 1
 0 354 l 1
EndSplineSet
Validated: 1
EndChar

StartChar: dec_solid
Encoding: 276 -1 280
Width: 536
VWidth: 0
Flags: HW
VStem: 152 244<-195 781>
LayerCount: 2
Back
Fore
SplineSet
152 781 m 1
 396 781 l 1
 396 -195 l 1
 152 -195 l 1
 152 781 l 1
EndSplineSet
Validated: 1
EndChar

StartChar: dec_filled_circle
Encoding: 277 -1 281
Width: 536
VWidth: 0
Flags: HW
HStem: 218 207<219.361 330.078>
VStem: 174 201<263.467 379.863>
LayerCount: 2
Back
Fore
SplineSet
224 412 m 0
 241 421 257 425 272 425 c 0
 330 425 375 369 375 314 c 0
 375 283 361 252 326 231 c 1
 309 222 293 218 277 218 c 0
 220 218 174 274 174 329 c 0
 174 361 189 392 224 412 c 0
EndSplineSet
Validated: 1
EndChar

StartChar: dec_ht
Encoding: 279 -1 283
Width: 536
VWidth: 0
Flags: HW
HStem: 262 61<244 305 366 428> 507 60<152 214>
VStem: 92 60<385 507 567 689> 214 60<385 507 567 689> 305 61<19 262>
LayerCount: 2
Back
Fore
SplineSet
92 689 m 1
 152 689 l 1
 152 567 l 1
 214 567 l 1
 214 689 l 1
 274 689 l 1
 274 385 l 1
 214 385 l 1
 214 507 l 1
 152 507 l 1
 152 385 l 1
 92 385 l 1
 92 689 l 1
244 323 m 1
 428 323 l 1
 428 262 l 1
 366 262 l 1
 366 19 l 1
 305 19 l 1
 305 262 l 1
 244 263 l 1
 244 323 l 1
EndSplineSet
Validated: 1
EndChar

StartChar: dec_ff
Encoding: 280 -1 284
Width: 536
VWidth: 0
Flags: HW
HStem: 143 61<304.308 395.69> 266 60<304 426> 506 61<152.308 243.69> 629 60<152 274>
VStem: 92 60<385 506.462 567.231 629> 244 60<22 143.462 204.23 266>
LayerCount: 2
Back
Fore
SplineSet
244 326 m 1
 426 326 l 1
 426 266 l 1
 304 266 l 1
 304 204 l 1
 396 204 l 1
 396 143 l 1
 304 143 l 1
 304 22 l 1
 244 22 l 1
 244 326 l 1
92 689 m 1
 274 689 l 1
 274 629 l 1
 152 629 l 1
 152 567 l 1
 244 567 l 1
 244 506 l 1
 152 506 l 1
 152 385 l 1
 92 385 l 1
 92 689 l 1
EndSplineSet
Validated: 1
EndChar

StartChar: dec_cr
Encoding: 281 -1 285
Width: 536
VWidth: 0
Flags: W
HStem: 262 60<305 355> 386 90<213 249.562> 386 60<162 204> 628 60<160 202>
VStem: 92 60<458 620> 213 60<456 476> 245 60<19 142 201 262> 366 60<18 43 243 251>
LayerCount: 2
Back
Fore
SplineSet
273 597 m 1xbd
 213 599 l 1
 214 617 l 1
 202 628 l 1
 160 628 l 1
 152 620 l 1
 152 458 l 1
 162 446 l 1
 204 446 l 1xbd
 213 456 l 1
 213 476 l 1
 273 476 l 1
 273 445 l 2
 273 440 271 432 265 425 c 2
 239 396 l 2
 235 392 228 386 217 386 c 2xdd
 149 386 l 2
 143 386 134 388 127 396 c 2
 100 426 l 2
 96 430 92 437 92 446 c 2
 92 632 l 2
 92 637 94 646 101 653 c 2
 127 679 l 2
 130 682 138 688 148 688 c 2
 214 688 l 2
 218 688 227 687 234 680 c 2
 264 652 l 2
 268 648 274 640 274 629 c 2
 273 597 l 1xbd
244 19 m 1
 245 322 l 1
 368 322 l 2
 378 322 385 317 389 313 c 2
 418 283 l 2
 425 276 426 266 426 262 c 2
 426 231 l 2
 426 221 421 213 418 210 c 2
 373 164 l 1
 423 63 l 2
 426 58 426 53 426 50 c 2
 426 18 l 1
 366 18 l 1
 366 43 l 1
 318 142 l 1
 305 142 l 1x9b
 304 18 l 1
 244 19 l 1
305 201 m 1
 325 201 l 1
 366 243 l 1
 366 251 l 1
 355 263 l 1
 305 262 l 1
 305 201 l 1
EndSplineSet
Validated: 1
EndChar

StartChar: dec_lf
Encoding: 282 -1 286
Width: 536
VWidth: 0
Flags: HW
HStem: 143 61<304.308 395.69> 266 60<304 426> 385 60<152 274>
VStem: 92 60<445 689> 244 60<22 143.462 204.23 266>
LayerCount: 2
Back
Fore
SplineSet
244 326 m 1
 426 326 l 1
 426 266 l 1
 304 266 l 1
 304 204 l 1
 396 204 l 1
 396 143 l 1
 304 143 l 1
 304 22 l 1
 244 22 l 1
 244 326 l 1
92 689 m 1
 152 689 l 1
 152 445 l 1
 274 445 l 1
 274 385 l 1
 92 385 l 1
 92 689 l 1
EndSplineSet
Validated: 1
EndChar

StartChar: dec_degree
Encoding: 283 -1 287
Width: 536
VWidth: 0
Flags: HW
HStem: 432 44<214 274> 598 41<214 274>
VStem: 143 41<507 567> 305 40<507 567>
LayerCount: 2
Back
Fore
SplineSet
214 598 m 1
 184 567 l 1
 184 507 l 1
 214 476 l 1
 274 476 l 1
 305 507 l 1
 305 567 l 1
 274 598 l 1
 214 598 l 1
192 626 m 0
 209 635 225 639 241 639 c 0
 298 639 345 583 345 527 c 0
 345 496 331 466 296 445 c 1
 279 436 263 432 247 432 c 0
 189 432 143 488 143 544 c 0
 143 575 157 606 192 626 c 0
EndSplineSet
Validated: 1
EndChar

StartChar: dec_plusminus
Encoding: 284 -1 288
Width: 536
VWidth: 0
Flags: HW
HStem: 109 62<61 488> 415 61<61 244 305 488> 639 20G<244 305>
VStem: 244 61<231 415 476 659>
LayerCount: 2
Back
Fore
SplineSet
244 659 m 1
 305 659 l 1
 305 476 l 1
 488 476 l 1
 488 415 l 1
 305 415 l 1
 305 231 l 1
 244 231 l 1
 244 415 l 1
 61 415 l 1
 61 476 l 1
 244 476 l 1
 244 659 l 1
61 171 m 1
 488 171 l 1
 488 109 l 1
 61 109 l 1
 61 171 l 1
EndSplineSet
Validated: 1
EndChar

StartChar: dec_nl
Encoding: 285 -1 289
Width: 536
VWidth: 0
Flags: HW
HStem: 19 60<305 428>
VStem: 92 60<385 537> 244 61<79 323 537 689>
LayerCount: 2
Back
Fore
SplineSet
92 689 m 1
 152 689 l 1
 244 537 l 1
 244 689 l 1
 305 689 l 1
 305 385 l 1
 246 386 l 1
 152 537 l 1
 152 385 l 1
 92 385 l 1
 92 689 l 1
244 323 m 1
 305 323 l 1
 305 79 l 1
 428 79 l 1
 428 19 l 1
 244 19 l 1
 244 323 l 1
EndSplineSet
Validated: 1
EndChar

StartChar: dec_vt
Encoding: 286 -1 290
Width: 536
VWidth: 0
Flags: HMW
LayerCount: 2
Back
Fore
SplineSet
91 690 m 1
 151 690 l 1
 151 517 l 1
 198 462 l 1
 244 517 l 1
 244 690 l 1
 304 690 l 1
 304 506 l 2
 304 501 303 494 297 487 c 2
 220 396 l 1
 220 396 223 398 217 393 c 0
 212 389 205 385 197 385 c 0
 189 385 181 388 175 396 c 2
 98 487 l 2
 95 490 91 497 91 506 c 2
 91 690 l 1
244 323 m 1
 428 323 l 1
 428 262 l 1
 366 262 l 1
 366 19 l 1
 305 19 l 1
 305 262 l 1
 244 263 l 1
 244 323 l 1
EndSplineSet
Validated: 1
EndChar

StartChar: dec_lowerright
Encoding: 287 -1 291
Width: 536
VWidth: 0
Flags: HW
HStem: 293 61<0 112.581>
VStem: 245 62<486.588 781>
LayerCount: 2
Back
Fore
SplineSet
244 781 m 1
 305 781 l 1
 305 715 307 654 307 600 c 0
 307 405 277 293 0 293 c 1
 0 354 l 1
 225 361 245 493 245 664 c 0
 245 701 244 741 244 781 c 1
EndSplineSet
Validated: 1
EndChar

StartChar: dec_upperright
Encoding: 288 -1 292
Width: 536
VWidth: 0
Flags: HW
HStem: 293 61<0 111.508>
VStem: 248 63<-195 154.973>
LayerCount: 2
Back
Fore
SplineSet
0 354 m 1
 273 354 311 230 311 43 c 0
 311 -28 305 -109 305 -195 c 1
 244 -195 l 1
 244 -133 248 -70 248 -11 c 0
 248 152 219 286 0 293 c 1
 0 354 l 1
EndSplineSet
Validated: 1
EndChar

StartChar: dec_upperleft
Encoding: 289 -1 293
Width: 536
VWidth: 0
Flags: HW
HStem: 293 61<437.492 549>
VStem: 238 63<-195 154.973>
LayerCount: 2
Back
Fore
SplineSet
244 -195 m 1
 244 -109 238 -28 238 43 c 0
 238 230 276 354 549 354 c 1
 549 293 l 1
 330 286 301 152 301 -11 c 0
 301 -70 305 -133 305 -195 c 1
 244 -195 l 1
EndSplineSet
Validated: 1
EndChar

StartChar: dec_lowerleft
Encoding: 290 -1 294
Width: 536
VWidth: 0
Flags: HW
HStem: 293 61<436.419 549>
VStem: 242 62<485.474 781>
LayerCount: 2
Back
Fore
SplineSet
244 781 m 1
 305 781 l 1
 305 740 304 700 304 661 c 0
 304 492 325 361 549 354 c 1
 549 293 l 1
 272 293 242 405 242 600 c 0
 242 654 244 715 244 781 c 1
EndSplineSet
Validated: 1
EndChar

StartChar: dec_intersect
Encoding: 291 -1 295
Width: 536
VWidth: 0
Flags: HW
HStem: 293 61<0 244 305 536.002>
VStem: 244 61<-199.998 293 354 799.999>
LayerCount: 2
Back
Fore
SplineSet
244 800 m 5
 305 800 l 5
 305 354 l 5
 536 354 l 5
 536 293 l 5
 305 293 l 5
 305 -200 l 5
 244 -200 l 5
 244 293 l 5
 0 293 l 5
 0 354 l 5
 244 354 l 5
 244 800 l 5
EndSplineSet
EndChar

StartChar: dec_hbar1
Encoding: 292 -1 296
Width: 536
VWidth: 0
Flags: HW
HStem: 659 61<0 549>
LayerCount: 2
Back
Fore
SplineSet
0 720 m 1
 549 720 l 1
 549 659 l 1
 0 659 l 1
 0 720 l 1
EndSplineSet
Validated: 1
EndChar

StartChar: dec_hbar2
Encoding: 293 -1 297
Width: 536
VWidth: 0
Flags: HW
HStem: 476 61<0 549>
LayerCount: 2
Back
Fore
SplineSet
0 537 m 1
 549 537 l 1
 549 476 l 1
 0 476 l 1
 0 537 l 1
EndSplineSet
Validated: 1
EndChar

StartChar: dec_hbar3
Encoding: 294 -1 298
Width: 536
VWidth: 0
Flags: HW
HStem: 293 61<0 535.995>
LayerCount: 2
Back
Fore
SplineSet
0 354 m 1
 536 354 l 1
 536 293 l 1
 0 293 l 1
 0 354 l 1
EndSplineSet
Validated: 1
EndChar

StartChar: dec_hbar4
Encoding: 295 -1 299
Width: 536
VWidth: 0
Flags: HW
HStem: 109 62<0 549>
LayerCount: 2
Back
Fore
SplineSet
0 171 m 1
 549 171 l 1
 549 109 l 1
 0 109 l 1
 0 171 l 1
EndSplineSet
Validated: 1
EndChar

StartChar: dec_hbar5
Encoding: 296 -1 300
Width: 536
VWidth: 0
Flags: HW
HStem: -73 60<0 549>
LayerCount: 2
Back
Fore
SplineSet
0 -13 m 1
 549 -13 l 1
 549 -73 l 1
 0 -73 l 1
 0 -13 l 1
EndSplineSet
Validated: 1
EndChar

StartChar: dec_leftjoin
Encoding: 297 -1 301
Width: 536
VWidth: 0
Flags: HW
HStem: 293 61<305 549>
VStem: 244 61<-195 293 354 781>
LayerCount: 2
Back
Fore
SplineSet
244 800 m 1
 305 800 l 1
 305 354 l 1
 536 354 l 1
 536 293 l 1
 305 293 l 1
 305 -200 l 5
 244 -200 l 5
 244 800 l 1
EndSplineSet
EndChar

StartChar: dec_rightjoin
Encoding: 298 -1 302
Width: 536
VWidth: 0
Flags: HW
HStem: 293 61<0 244>
VStem: 244 61<-195 293 354 781>
LayerCount: 2
Back
Fore
SplineSet
244 800 m 1
 305 800 l 1
 305 -200 l 5
 244 -200 l 5
 244 293 l 1
 0 293 l 1
 0 354 l 1
 244 354 l 1
 244 800 l 1
EndSplineSet
EndChar

StartChar: dec_bottomjoin
Encoding: 299 -1 303
Width: 536
VWidth: 0
Flags: HW
HStem: 293 61<0 244 305 549>
VStem: 244 61<354 781>
LayerCount: 2
Back
Fore
SplineSet
244 781 m 1
 305 781 l 1
 305 354 l 1
 549 354 l 1
 549 293 l 1
 0 293 l 1
 0 354 l 1
 244 354 l 1
 244 781 l 1
EndSplineSet
Validated: 1
EndChar

StartChar: dec_topjoin
Encoding: 300 -1 304
Width: 536
VWidth: 0
Flags: HW
HStem: 293 61<0 244 305 549>
VStem: 244 61<-195 293>
LayerCount: 2
Back
Fore
SplineSet
0 354 m 1
 549 354 l 1
 549 293 l 1
 305 293 l 1
 305 -195 l 1
 244 -195 l 1
 244 293 l 1
 0 293 l 1
 0 354 l 1
EndSplineSet
Validated: 1
EndChar

StartChar: dec_vbar
Encoding: 301 -1 305
Width: 536
VWidth: 0
Flags: HW
VStem: 244 61<-195 781>
LayerCount: 2
Back
Fore
SplineSet
244 800 m 1
 305 800 l 1
 305 -200 l 5
 244 -200 l 5
 244 800 l 1
EndSplineSet
EndChar

StartChar: dec_notgreater
Encoding: 302 -1 306
Width: 536
VWidth: 0
Flags: HW
HStem: -73 60<92 458>
LayerCount: 2
Back
Fore
SplineSet
418 99 m 2
 423 93 426 85 426 77 c 0
 426 69 422 62 417 56 c 0
 412 50 404 47 396 46 c 0
 388 45 382 46 375 50 c 1
 132 295 l 1
 132 351 l 1
 374 600 l 1
 380 603 387 604 394 603 c 0
 401 602 407 599 412 594 c 0
 418 589 421 581 422 573 c 0
 423 565 422 558 418 551 c 1
 190 323 l 1
 418 99 l 2
92 -13 m 1
 458 -13 l 1
 458 -73 l 1
 92 -73 l 1
 92 -13 l 1
EndSplineSet
Validated: 1
EndChar

StartChar: dec_notless
Encoding: 303 -1 307
Width: 536
VWidth: 0
Flags: HW
HStem: -73 60<92 458>
LayerCount: 2
Back
Fore
SplineSet
138 549 m 2
 133 555 131 563 131 571 c 0
 131 579 135 586 140 592 c 0
 145 598 152 602 160 603 c 0
 168 604 175 602 182 598 c 1
 425 353 l 1
 425 298 l 1
 183 48 l 1
 177 45 170 45 163 46 c 0
 156 47 150 49 145 54 c 0
 139 59 135 67 134 75 c 0
 133 83 135 90 139 97 c 1
 366 325 l 1
 138 549 l 2
92 -13 m 1
 458 -13 l 1
 458 -73 l 1
 92 -73 l 1
 92 -13 l 1
EndSplineSet
Validated: 1
EndChar

StartChar: dec_pi
Encoding: 304 -1 308
Width: 536
VWidth: 0
Flags: HW
HStem: 49 21G<104.709 154.508 366 428> 477 60<62 123 183 366 427 488>
VStem: 123 60<148.883 476.602> 366 62<49 476>
LayerCount: 2
Back
Fore
SplineSet
61 537 m 1
 488 537 l 1
 488 476 l 1
 427 476 l 1
 428 49 l 1
 366 49 l 1
 366 476 l 1
 183 477 l 1
 183 142 l 2
 183 139 182 134 180 129 c 2
 146 49 l 1
 92 75 l 1
 123 149 l 1
 123 477 l 1
 62 477 l 1
 61 537 l 1
EndSplineSet
Validated: 1
EndChar

StartChar: dec_notequal
Encoding: 305 -1 309
Width: 536
VWidth: 0
Flags: HW
HStem: 231 62<61 141.37 287.947 488> 354 61<60 264.045 409.624 487>
LayerCount: 2
Back
Fore
SplineSet
107 112 m 1
 65 154 l 1
 141 231 l 1
 61 231 l 1
 61 293 l 1
 203 293 l 1
 264 354 l 1
 60 354 l 1
 60 415 l 1
 325 415 l 1
 442 532 l 1
 484 490 l 1
 410 415 l 1
 487 415 l 1
 487 354 l 1
 349 354 l 1
 288 293 l 1
 488 293 l 1
 488 231 l 1
 226 231 l 1
 107 112 l 1
EndSplineSet
Validated: 1
EndChar

StartChar: dec_sterling
Encoding: 306 -1 310
Width: 536
VWidth: 0
Flags: HW
HStem: 46 60<120 148.37 283.209 382.819> 112 60<120 148.465 468.281 487> 352 62<60 183.53 243.665 364> 597 60<286.986 324.305>
VStem: 183 60<162.987 352 414 556.102> 368 60<539 556.829>
LayerCount: 2
Back
Fore
SplineSet
155 110 m 1
 148 112 l 1
 120 112 l 1
 120 106 l 1
 148 106 l 1
 155 110 l 1
243 140 m 1
 254 136 l 2
 259 134 262 132 264 130 c 2
 283 111 l 1
 383 110 l 1
 435 161 l 2
 442 168 451 170 456 170 c 2
 487 170 l 1
 487 110 l 1
 468 110 l 1
 416 59 l 2
 413 56 405 50 395 50 c 2
 271 51 l 2
 267 51 257 52 250 59 c 2
 228 81 l 1
 227 81 l 1
 170 50 l 2
 165 47 160 46 156 46 c 2
 90 46 l 2
 69 46 60 65 60 76 c 2
 60 142 l 2
 60 163 79 172 90 172 c 2
 154 172 l 2
 159 172 163 171 165 170 c 2
 183 163 l 1
 184 352 l 1
 60 352 l 1
 60 414 l 1
 184 414 l 1
 184 569 l 2
 184 574 186 584 193 591 c 2
 254 649 l 2
 257 652 265 657 275 657 c 2
 336 657 l 2
 342 657 349 655 356 649 c 2
 418 592 l 2
 422 588 428 580 428 570 c 2
 428 539 l 1
 368 539 l 1
 368 557 l 1
 324 597 l 1
 287 597 l 1
 244 556 l 1
 244 414 l 1
 364 414 l 1
 364 352 l 1
 244 352 l 1
 243 140 l 1
EndSplineSet
Validated: 1
EndChar

StartChar: dec_periodcentered
Encoding: 307 -1 311
Width: 536
VWidth: 0
Flags: HW
HStem: 231 123<184 305>
VStem: 184 121<231 354>
LayerCount: 2
Back
Fore
SplineSet
184 354 m 1
 305 354 l 1
 305 231 l 1
 184 231 l 1
 184 354 l 1
EndSplineSet
Validated: 1
EndChar

StartChar: apostrophe
Encoding: 308 39 312
Width: 536
VWidth: 0
Flags: HW
HStem: 476 183<244 305>
VStem: 244 61<476 659>
LayerCount: 2
Fore
SplineSet
244 659 m 1
 305 659 l 1
 305 476 l 1
 244 476 l 1
 244 659 l 1
EndSplineSet
Validated: 1
EndChar

StartChar: uni00AD
Encoding: 309 173 313
Width: 536
VWidth: 0
Flags: HW
HStem: 293 61<122 428>
VStem: 122 306<293 354>
LayerCount: 2
Fore
SplineSet
122 354 m 1
 428 354 l 1
 428 293 l 1
 122 293 l 1
 122 354 l 1
EndSplineSet
Validated: 1
EndChar

StartChar: uni00B5
Encoding: 310 181 314
Width: 536
VWidth: 0
Flags: HW
HStem: -135 21G<55.9672 115> 51 58<156 317 433 482> 456 20G<55 113.123 359.938 419>
VStem: 56 59<-135 68 150 475> 359 59<153 476>
LayerCount: 2
Fore
SplineSet
55 475 m 1
 113 476 l 1
 115 150 l 1
 156 109 l 1
 317 109 l 1
 359 153 l 1
 360 476 l 1
 419 476 l 1
 418 141 l 2
 418 138 417 134 415 129 c 1
 433 109 l 1
 482 109 l 1
 482 50 l 1
 421 50 l 2
 411 50 403 55 400 59 c 2
 374 84 l 1
 350 60 l 2
 347 57 339 51 329 51 c 2
 144 51 l 2
 139 51 131 52 124 59 c 2
 115 68 l 1
 115 -135 l 1
 56 -135 l 1
 55 475 l 1
EndSplineSet
EndChar

StartChar: divide
Encoding: 311 247 315
Width: 536
VWidth: 0
Flags: HW
HStem: 79 122<207 329> 293 61<54 481> 445 122<207 329>
VStem: 207 122<79 201 445 567>
LayerCount: 2
Fore
SplineSet
207 567 m 1
 329 567 l 1
 329 445 l 1
 207 445 l 1
 207 567 l 1
54 354 m 1
 481 354 l 1
 481 293 l 1
 54 293 l 1
 54 354 l 1
207 201 m 1
 329 201 l 1
 329 79 l 1
 207 79 l 1
 207 201 l 1
EndSplineSet
EndChar

StartChar: ordmasculine
Encoding: 316 186 320
Width: 536
VWidth: 0
Flags: HW
HStem: 49 60<54 422> 174 58<157 318> 539 59<157 319>
VStem: 54 58<273 495> 358 59<273 495>
LayerCount: 2
Fore
SplineSet
114 495 m 1
 112 273 l 1
 157 232 l 1
 318 231 l 1
 358 273 l 1
 359 495 l 1
 319 539 l 1
 157 539 l 1
 114 495 l 1
64 528 m 2
 125 589 l 2
 132 596 141 598 145 598 c 2
 332 598 l 2
 342 598 350 592 354 588 c 2
 410 525 l 2
 416 519 418 511 418 506 c 2
 417 261 l 2
 417 251 412 243 409 240 c 2
 351 181 l 2
 344 173 335 172 330 172 c 2
 145 174 l 2
 136 174 129 178 125 181 c 2
 63 239 l 2
 55 246 54 255 54 261 c 2
 56 508 l 2
 56 518 61 525 64 528 c 2
54 109 m 1
 422 109 l 1
 422 49 l 1
 54 49 l 1
 54 109 l 1
EndSplineSet
EndChar

StartChar: Abreve
Encoding: 319 258 323
Width: 536
VWidth: 0
Flags: HW
HStem: 49 21G<53 113.328 420 480> 232 61<117 420> 597 21G<264.5 272.5>
VStem: 57 60<49 232 293 312> 420 60<49 232 293 312>
LayerCount: 2
Fore
SplineSet
186 710 m 0
 192 716 200 719 206 719 c 0
 215 719 223 715 228 710 c 2
 269 669 l 1
 311 710 l 2
 317 716 325 719 331 719 c 0
 348 719 362 704 362 688 c 0
 362 681 360 674 353 667 c 2
 290 605 l 2
 285 600 277 597 268 597 c 0
 261 597 254 599 248 605 c 2
 186 667 l 2
 181 672 177 680 177 689 c 0
 177 696 180 704 186 710 c 0
116 232 m 1
 113 49 l 1
 53 49 l 1
 57 325 l 2
 57 335 63 343 66 346 c 2
 246 527 l 2
 252 533 260 536 266 536 c 0
 275 536 283 532 288 527 c 2
 471 345 l 2
 478 338 480 329 480 324 c 2
 480 49 l 1
 420 49 l 1
 421 232 l 1
 116 232 l 1
117 293 m 1
 420 293 l 1
 420 312 l 1
 267 464 l 1
 117 312 l 1
 117 293 l 1
EndSplineSet
EndChar

StartChar: abreve
Encoding: 320 259 324
Width: 536
VWidth: 0
Flags: HW
HStem: 49 60<158 360 419 480> 234 59<159 360> 415 59<115 319> 639 20G<201 208.5 326 333.5>
VStem: 57 59<153 190> 360 59<109 233 292 373>
LayerCount: 2
Fore
SplineSet
184 650 m 0
 190 656 198 659 204 659 c 0
 213 659 221 655 226 650 c 2
 267 609 l 1
 309 650 l 2
 315 656 323 659 329 659 c 0
 338 659 346 655 351 650 c 0
 356 645 360 637 360 628 c 0
 360 622 357 614 351 608 c 2
 288 546 l 2
 283 541 275 537 266 537 c 0
 259 537 252 540 246 546 c 2
 184 608 l 2
 179 613 175 621 175 630 c 0
 175 636 178 644 184 650 c 0
360 109 m 1
 360 233 l 1
 159 234 l 1
 116 190 l 1
 116 153 l 1
 158 110 l 1
 360 109 l 1
419 108 m 1
 481 107 l 1
 480 49 l 1
 145 52 l 2
 135 52 127 58 124 61 c 2
 66 121 l 2
 59 128 57 138 57 142 c 2
 57 202 l 2
 57 212 63 220 66 223 c 2
 125 284 l 2
 132 291 141 293 146 293 c 2
 361 292 l 1
 361 373 l 1
 319 415 l 1
 115 418 l 1
 115 477 l 1
 331 474 l 2
 341 474 349 468 352 465 c 2
 411 405 l 2
 418 398 420 390 420 385 c 2
 419 108 l 1
EndSplineSet
EndChar

StartChar: Dcaron
Encoding: 323 270 327
Width: 536
VWidth: 0
Flags: HW
HStem: 49 61<47 108 169 310> 538 60<47 108 169 310>
VStem: 108 61<110 538> 413 60<213 433>
LayerCount: 2
Fore
SplineSet
240 667 m 2
 117 789 l 1
 158 829 l 1
 260 728 l 1
 363 830 l 1
 403 789 l 1
 280 667 l 2
 278 665 276 663 274 662 c 0
 272 661 270 660 267 659 c 0
 262 658 258 658 253 659 c 0
 250 660 248 661 246 662 c 0
 244 663 242 665 240 667 c 2
EndSplineSet
Refer: 163 68 N 1 0 0 1 -7 0 3
EndChar

StartChar: dcroat
Encoding: 325 273 329
Width: 536
VWidth: 0
Flags: HW
HStem: 51 58<220 360> 416 59<217 360> 530 61<215 360 420 467> 639 20G<360 420>
VStem: 55 59<213 312> 360 60<109 416 475 530 591 659>
LayerCount: 2
Fore
SplineSet
360 109 m 1
 360 416 l 1
 217 416 l 1
 114 312 l 1
 114 213 l 1
 220 109 l 1
 360 109 l 1
420 52 m 1
 208 51 l 2
 204 51 194 52 187 59 c 2
 64 180 l 2
 61 183 55 191 55 201 c 2
 55 324 l 2
 55 329 57 338 64 345 c 2
 184 466 l 2
 187 469 194 475 204 475 c 2
 360 475 l 1
 360 530 l 1
 215 530 l 1
 215 591 l 1
 360 591 l 1
 360 659 l 1
 420 659 l 1
 420 591 l 1
 467 591 l 1
 467 530 l 1
 420 530 l 1
 420 52 l 1
EndSplineSet
EndChar

StartChar: Dcroat
Encoding: 326 272 330
Width: 536
VWidth: 0
Flags: HW
HStem: 49 61<54 115 176 317> 297 61<55 115 176 237> 538 60<54 115 176 317>
VStem: 115 61<110 297 358 538> 420 60<213 433>
LayerCount: 2
Fore
SplineSet
115 538 m 1
 54 538 l 1
 54 598 l 1
 330 597 l 2
 340 597 348 592 351 588 c 2
 471 466 l 2
 478 459 480 450 480 445 c 2
 480 201 l 2
 480 191 475 183 471 179 c 2
 350 59 l 2
 343 52 334 50 329 50 c 2
 54 49 l 1
 54 109 l 1
 115 109 l 1
 115 297 l 1
 55 297 l 1
 55 358 l 1
 115 358 l 1
 115 538 l 1
176 110 m 1
 317 110 l 1
 420 213 l 1
 420 433 l 1
 317 537 l 1
 176 538 l 1
 176 358 l 1
 237 358 l 1
 237 297 l 1
 176 297 l 1
 176 110 l 1
EndSplineSet
EndChar

StartChar: Ebreve
Encoding: 329 276 333
Width: 536
VWidth: 0
Flags: HW
HStem: 49 60<115 481> 231 62<115 359> 476 61<115 481> 597 21G<264.5 272.5>
VStem: 54 61<109 231 293 476>
LayerCount: 2
Fore
SplineSet
186 710 m 0
 192 716 200 719 206 719 c 0
 215 719 223 715 228 710 c 2
 269 669 l 1
 311 710 l 2
 317 716 324 719 331 719 c 0
 340 719 348 715 353 709 c 0
 358 704 362 696 362 687 c 0
 362 681 359 673 353 667 c 2
 290 605 l 2
 285 600 277 597 268 597 c 0
 261 597 254 599 248 605 c 2
 186 667 l 2
 181 672 177 680 177 689 c 0
 177 696 180 704 186 710 c 0
54 537 m 1
 481 537 l 1
 481 476 l 1
 115 476 l 1
 115 293 l 1
 359 293 l 1
 359 231 l 1
 115 231 l 1
 115 109 l 1
 481 109 l 1
 481 49 l 1
 54 49 l 1
 54 537 l 1
EndSplineSet
EndChar

StartChar: ebreve
Encoding: 330 277 334
Width: 536
VWidth: 0
Flags: HW
HStem: 51 58<156 421> 231 62<113 361> 415 59<158 318> 639 20G<201 208.5 326 333.5>
VStem: 54 59<152 231 293 372> 361 59<293 373>
LayerCount: 2
Fore
SplineSet
184 650 m 0
 190 656 198 659 204 659 c 0
 213 659 221 655 226 650 c 2
 267 609 l 1
 309 650 l 2
 315 656 323 659 329 659 c 0
 338 659 346 655 351 650 c 0
 356 645 360 637 360 628 c 0
 360 622 357 614 351 608 c 2
 288 546 l 2
 283 541 275 537 266 537 c 0
 259 537 252 540 246 546 c 2
 184 608 l 2
 179 613 175 621 175 630 c 0
 175 636 178 644 184 650 c 0
113 231 m 1
 112 152 l 1
 156 109 l 1
 421 107 l 1
 421 49 l 1
 144 51 l 2
 135 51 127 56 124 59 c 2
 62 119 l 2
 55 126 54 135 54 140 c 2
 56 384 l 2
 56 394 61 401 64 404 c 2
 125 467 l 2
 132 474 142 476 147 476 c 2
 330 474 l 2
 340 474 348 468 351 465 c 2
 410 405 l 2
 417 398 419 390 419 385 c 2
 420 233 l 1
 113 231 l 1
113 293 m 1
 361 293 l 1
 360 373 l 1
 318 415 l 1
 158 417 l 1
 114 372 l 1
 113 293 l 1
EndSplineSet
EndChar

StartChar: Eogonek
Encoding: 333 280 337
Width: 536
VWidth: 0
Flags: HW
HStem: 49 60<115 481> 231 62<115 359> 476 61<115 481>
VStem: 54 61<109 231 293 476>
LayerCount: 2
Fore
SplineSet
54 537 m 1
 481 537 l 1
 481 476 l 1
 115 476 l 1
 115 293 l 1
 359 293 l 1
 359 231 l 1
 115 231 l 1
 115 109 l 1
 481 109 l 1
 481 49 l 1
 54 49 l 1
 54 537 l 1
EndSplineSet
EndChar

StartChar: eogonek
Encoding: 334 281 338
Width: 536
VWidth: 0
Flags: HW
HStem: 51 58<156 421> 231 62<113 361> 415 59<158 318>
VStem: 54 59<152 231 293 372> 361 59<293 373>
LayerCount: 2
Fore
SplineSet
113 231 m 1
 112 152 l 1
 156 109 l 1
 421 107 l 1
 421 49 l 1
 144 51 l 2
 135 51 127 56 124 59 c 2
 62 119 l 2
 55 126 54 135 54 140 c 2
 56 384 l 2
 56 394 61 401 64 404 c 2
 125 467 l 2
 132 474 142 476 147 476 c 2
 330 474 l 2
 340 474 348 468 351 465 c 2
 410 405 l 2
 417 398 419 390 419 385 c 2
 420 233 l 1
 113 231 l 1
113 293 m 1
 361 293 l 1
 360 373 l 1
 318 415 l 1
 158 417 l 1
 114 372 l 1
 113 293 l 1
EndSplineSet
EndChar

StartChar: Ecaron
Encoding: 335 282 339
Width: 536
VWidth: 0
Flags: HW
HStem: 49 60<108 474> 231 62<108 352> 476 61<108 474>
VStem: 47 61<109 231 293 476>
LayerCount: 2
Fore
SplineSet
240 667 m 2
 117 789 l 1
 158 829 l 1
 260 728 l 1
 363 830 l 1
 403 789 l 1
 280 667 l 2
 278 665 276 663 274 662 c 0
 272 661 270 660 267 659 c 0
 262 658 258 658 253 659 c 0
 250 660 248 661 246 662 c 0
 244 663 242 665 240 667 c 2
EndSplineSet
Refer: 164 69 N 1 0 0 1 -7 0 3
EndChar

StartChar: Gbreve
Encoding: 339 286 343
Width: 536
VWidth: 0
Flags: HW
HStem: 51 60<218 359> 232 61<237 359 419 482> 498 60<218 318> 597 21G<264.5 272.5>
VStem: 56 60<212 395> 359 59<111 232>
LayerCount: 2
Fore
SplineSet
186 710 m 0
 192 716 200 719 206 719 c 0
 215 719 223 715 228 710 c 2
 269 669 l 1
 311 710 l 2
 317 716 324 719 331 719 c 0
 340 719 348 715 353 709 c 0
 358 704 362 696 362 687 c 0
 362 681 359 673 353 667 c 2
 290 605 l 2
 285 600 277 597 268 597 c 0
 261 597 254 599 248 605 c 2
 186 667 l 2
 181 672 177 680 177 689 c 0
 177 696 180 704 186 710 c 0
237 293 m 1
 482 293 l 1
 482 233 l 1
 419 232 l 1
 418 80 l 2
 418 69 409 51 388 51 c 2
 206 51 l 2
 201 51 192 52 185 59 c 2
 65 178 l 2
 62 181 56 189 56 199 c 2
 56 407 l 2
 56 412 57 421 64 428 c 2
 184 549 l 2
 187 553 195 558 205 558 c 2
 330 558 l 2
 335 558 345 556 352 549 c 2
 412 488 l 1
 369 446 l 1
 318 498 l 1
 218 498 l 1
 116 395 l 1
 116 212 l 1
 218 111 l 1
 359 111 l 1
 359 232 l 1
 237 231 l 1
 237 293 l 1
EndSplineSet
EndChar

StartChar: gbreve
Encoding: 340 287 344
Width: 536
VWidth: 0
Flags: HW
HStem: -72 60<219 380> 109 60<219 315> 171 60<400 422> 417 60<219 377> 597 21G<264.5 272.5>
VStem: 55 60<272 313> 422 60<30 171 231 375>
LayerCount: 2
Fore
SplineSet
186 710 m 0
 192 716 200 719 206 719 c 0
 215 719 223 715 228 710 c 2
 269 669 l 1
 311 710 l 2
 317 716 324 719 331 719 c 0
 340 719 348 715 353 709 c 0
 358 704 362 696 362 687 c 0
 362 681 359 673 353 667 c 2
 290 605 l 2
 285 600 277 597 268 597 c 0
 261 597 254 599 248 605 c 2
 186 667 l 2
 181 672 177 680 177 689 c 0
 177 696 180 704 186 710 c 0
422 231 m 1
 422 375 l 1
 377 417 l 1
 219 415 l 1
 115 313 l 1
 115 272 l 1
 219 169 l 1
 315 171 l 1
 366 222 l 2
 372 228 379 231 387 231 c 2
 422 231 l 1
422 171 m 1
 400 171 l 1
 349 120 l 2
 344 114 337 111 328 111 c 2
 207 109 l 2
 199 109 192 112 186 118 c 2
 64 238 l 2
 58 244 55 251 55 259 c 2
 55 326 l 2
 55 335 58 342 64 347 c 2
 186 466 l 2
 192 472 199 475 207 475 c 2
 389 477 l 2
 397 477 404 474 410 469 c 2
 473 410 l 2
 479 404 482 397 482 388 c 2
 481 18 l 2
 481 10 478 3 473 -3 c 2
 415 -63 l 2
 409 -69 402 -72 393 -72 c 2
 207 -72 l 2
 199 -72 192 -69 186 -63 c 2
 125 -3 l 1
 167 39 l 1
 219 -12 l 1
 380 -12 l 1
 421 30 l 1
 422 171 l 1
EndSplineSet
EndChar

StartChar: gcommaaccent
Encoding: 344 291 348
Width: 536
VWidth: 0
Flags: HW
HStem: -181 57<113.329 193.713> -72 60<219 235.4 292.619 380> 109 60<219 315> 171 60<400 422> 417 60<219 377>
VStem: 55 60<272 313> 235 57<-80.9004 -72 -12 60.1055> 422 60<30 171 231 375>
LayerCount: 2
Fore
SplineSet
422 171 m 1
 400 171 l 1
 349 120 l 2
 344 114 337 111 328 111 c 2
 207 109 l 2
 199 109 192 112 186 118 c 2
 64 238 l 2
 58 244 55 251 55 259 c 2
 55 326 l 2
 55 335 58 342 64 347 c 2
 186 466 l 2
 192 472 199 475 207 475 c 2
 389 477 l 2
 397 477 404 474 410 469 c 2
 473 410 l 2
 479 404 482 397 482 388 c 2
 481 18 l 2
 481 10 478 3 473 -3 c 2
 415 -63 l 2
 409 -69 402 -72 393 -72 c 2
 293 -72 l 1
 293 -92 l 2
 293 -100 290 -106 285 -112 c 2
 226 -172 l 2
 220 -178 214 -181 206 -181 c 2
 113 -181 l 1
 113 -124 l 1
 194 -124 l 1
 235 -81 l 1
 235 -72 l 1
 207 -72 l 2
 199 -72 192 -69 186 -63 c 2
 125 -3 l 1
 167 39 l 1
 219 -12 l 1
 235 -12 l 1
 235 60 l 1
 293 60 l 1
 293 -12 l 1
 380 -12 l 1
 421 30 l 1
 422 171 l 1
422 231 m 1
 422 375 l 1
 377 417 l 1
 219 415 l 1
 115 313 l 1
 115 272 l 1
 219 169 l 1
 315 171 l 1
 366 222 l 2
 372 228 379 231 387 231 c 2
 422 231 l 1
EndSplineSet
EndChar

StartChar: Ccaron
Encoding: 419 268 423
Width: 536
VWidth: 0
Flags: HW
LayerCount: 2
Fore
SplineSet
363 667 m 2
 240 789 l 1
 281 829 l 1
 383 728 l 1
 486 830 l 1
 526 789 l 1
 403 667 l 2
 401 665 399 663 397 662 c 0
 395 661 393 660 390 659 c 0
 385 658 381 658 376 659 c 0
 373 660 371 661 369 662 c 0
 367 663 365 665 363 667 c 2
EndSplineSet
Refer: 162 67 N 1 0 0 1 -7 0 3
EndChar

StartChar: ccaron
Encoding: 420 269 424
Width: 536
VWidth: 0
Flags: HW
LayerCount: 2
Fore
SplineSet
285 546 m 2
 162 668 l 1
 203 708 l 1
 305 607 l 1
 408 709 l 1
 448 668 l 1
 325 546 l 2
 323 544 321 542 319 541 c 0
 317 540 315 539 312 538 c 0
 307 537 303 537 298 538 c 0
 295 539 293 540 291 541 c 0
 289 542 287 544 285 546 c 2
EndSplineSet
Refer: 130 99 N 1 0 0 1 -7 0 3
EndChar

StartChar: uniFFE9
Encoding: 655 65513 658
Width: 536
VWidth: 0
Flags: HW
HStem: 293 61<230 535> 456 20G<206.34 230>
LayerCount: 2
Fore
SplineSet
230 476 m 1
 230 354 l 1
 435 354 l 5
 435 293 l 5
 230 293 l 1
 230 171 l 1
 49 323 l 1
 230 476 l 1
EndSplineSet
Validated: 1
EndChar

StartChar: uniFFEA
Encoding: 656 65514 659
Width: 536
VWidth: 0
Flags: HW
HStem: 293 61<230 535> 456 20G<206.34 230>
LayerCount: 2
Fore
SplineSet
394.5 335.5 m 1
 272.5 335.5 l 1
 272.5 130.5 l 1
 211.5 130.5 l 1
 211.5 335.5 l 1
 89.5 335.5 l 1
 241.5 516.5 l 1
 394.5 335.5 l 1
EndSplineSet
Validated: 1
EndChar

StartChar: uniFFEB
Encoding: 657 65515 660
Width: 536
VWidth: 0
Flags: HW
HStem: 293 61<230 535> 456 20G<206.34 230>
LayerCount: 2
Fore
SplineSet
354 476 m 1
 354 354 l 1
 149 354 l 5
 149 293 l 5
 354 293 l 1
 354 171 l 1
 535 323 l 1
 354 476 l 1
EndSplineSet
Validated: 9
EndChar

StartChar: uniFFEC
Encoding: 658 65516 661
Width: 536
VWidth: 0
Flags: HW
HStem: 293 61<230 535> 456 20G<206.34 230>
LayerCount: 2
Fore
SplineSet
89.5 311.5 m 5
 211.5 311.5 l 5
 211.5 516.5 l 5
 272.5 516.5 l 5
 272.5 311.5 l 5
 394.5 311.5 l 5
 242.5 130.5 l 5
 89.5 311.5 l 5
EndSplineSet
Validated: 1
EndChar

StartChar: uniFFED
Encoding: 659 65517 662
Width: 536
VWidth: 0
Flags: HW
LayerCount: 2
Fore
SplineSet
162.5 510 m 5
 372.5 510 l 5
 372.5 294 l 5
 162.5 294 l 5
 162.5 510 l 5
EndSplineSet
EndChar

StartChar: uniFFEE
Encoding: 660 65518 663
Width: 536
VWidth: 0
Flags: HW
LayerCount: 2
Fore
SplineSet
163.5 402 m 0
 163.5 339.163 213.258 289 273.5 289 c 0
 333.742 289 383.5 339.163 383.5 402 c 0
 383.5 464.837 333.742 515 273.5 515 c 0
 213.258 515 163.5 464.837 163.5 402 c 0
113.5 402 m 0
 113.5 491.515 184.702 565 273.5 565 c 0
 362.298 565 433.5 491.515 433.5 402 c 0
 433.5 312.485 362.298 239 273.5 239 c 0
 184.702 239 113.5 312.485 113.5 402 c 0
EndSplineSet
EndChar

StartChar: uni2B60
Encoding: 678 11104 681
Width: 536
VWidth: 2048
Flags: HW
LayerCount: 2
Fore
SplineSet
114 315 m 1
 124 316 135 318 150 322 c 128
 165 326 182 331 200 338 c 128
 218 345 235 353 250 361 c 128
 265 369 278 379 288 390 c 128
 298 401 304 412 304 424 c 2
 304 494 l 1
 240 492 l 1
 332 663 l 1
 422 492 l 1
 358 494 l 1
 358 424 l 2
 358 409 356 395 350 381 c 128
 344 367 337 354 328 344 c 128
 319 334 310 324 300 314 c 128
 290 304 279 296 268 287 c 128
 257 278 247 270 238 262 c 128
 229 254 223 246 218 238 c 128
 213 230 208 220 208 212 c 2
 208 58 l 1
 114 58 l 1
 114 315 l 1
114 368 m 1
 114 750 l 1
 208 750 l 1
 208 395 l 1
 204 389 188 383 162 377 c 128
 136 371 120 368 114 368 c 1
EndSplineSet
EndChar

StartChar: uni2B61
Encoding: 679 11105 682
Width: 536
VWidth: 0
Flags: HW
HStem: 19 60<305 428>
VStem: 92 60<385 537> 244 61<79 323 537 689>
LayerCount: 2
Fore
SplineSet
244 323 m 1
 304 323 l 1
 396 171 l 1
 396 323 l 1
 457 323 l 1
 457 19 l 1
 398 20 l 1
 304 171 l 1
 304 19 l 1
 244 19 l 1
 244 323 l 1
92 691 m 1
 153 691 l 1
 153 447 l 1
 276 447 l 1
 276 387 l 1
 92 387 l 1
 92 691 l 1
EndSplineSet
Validated: 1
EndChar

StartChar: uni2B62
Encoding: 680 11106 683
Width: 536
VWidth: 2048
Flags: HW
LayerCount: 2
Fore
SplineSet
204 558 m 2
 378 558 l 1
 378 513 l 1
 204 513 l 1
 204 295 l 1
 260 295 l 1
 260 387 l 1
 350 387 l 1
 350 430 l 1
 260 430 l 1
 260 471 l 1
 378 471 l 1
 378 352 l 1
 375 349 370 347 364 345 c 128
 358 343 354 342 350 342 c 2
 304 342 l 1
 304 295 l 2
 304 283 301 272 292 263 c 128
 283 254 272 250 260 250 c 2
 204 250 l 2
 192 250 181 254 172 263 c 128
 163 272 158 283 158 295 c 2
 158 513 l 2
 158 525 163 536 172 545 c 128
 181 554 192 558 204 558 c 2
EndSplineSet
Validated: 1
EndChar

StartChar: NameMe.682
Encoding: 681 11107 684
Width: 536
VWidth: 2048
Flags: HW
LayerCount: 2
Fore
SplineSet
158 558 m 1
 332 558 l 2
 344 558 355 554 364 545 c 128
 373 536 378 525 378 513 c 2
 378 471 l 2
 378 459 373 448 364 439 c 128
 355 430 344 426 332 426 c 2
 306 426 l 1
 306 295 l 2
 306 283 301 272 292 263 c 128
 283 254 272 250 260 250 c 2
 204 250 l 2
 192 250 181 254 172 263 c 128
 163 272 158 283 158 295 c 2
 158 352 l 1
 158 352 l 1
 158 471 l 1
 204 471 l 1
 204 295 l 1
 260 295 l 1
 260 471 l 1
 332 471 l 1
 332 513 l 1
 158 513 l 1
 158 558 l 1
EndSplineSet
Validated: 1
EndChar

StartChar: uni2B64
Encoding: 682 11108 685
Width: 536
VWidth: 2048
Flags: HW
LayerCount: 2
Fore
SplineSet
268 593 m 128
 279 593 288 592 297 588 c 128
 306 584 313 580 319 574 c 128
 325 568 329 561 333 554 c 128
 337 547 340 540 342 533 c 128
 344 526 345 519 346 513 c 128
 347 507 348 503 348 499 c 1
 348 494 l 1
 348 433 l 1
 408 433 l 1
 408 373 l 2
 408 371 408 368 408 364 c 128
 408 360 407 353 405 342 c 128
 403 331 400 320 397 310 c 128
 394 300 389 289 382 277 c 128
 375 265 367 254 357 245 c 128
 347 236 335 229 320 223 c 128
 305 217 287 214 268 214 c 0
 253 214 239 215 226 219 c 128
 213 223 203 228 194 234 c 128
 185 240 177 247 170 255 c 128
 163 263 156 271 152 280 c 128
 148 289 143 298 140 307 c 128
 137 316 135 324 133 332 c 128
 131 340 131 347 130 353 c 128
 129 359 128 364 128 368 c 2
 128 373 l 1
 128 433 l 1
 188 433 l 1
 188 494 l 2
 188 495 188 497 188 499 c 128
 188 501 189 506 190 513 c 128
 191 520 192 527 194 533 c 128
 196 539 199 546 203 554 c 128
 207 562 212 568 217 574 c 128
 222 580 229 584 238 588 c 128
 247 592 257 593 268 593 c 128
268 553 m 128
 261 553 256 552 251 550 c 128
 246 548 243 545 240 539 c 128
 237 533 235 529 233 524 c 128
 231 519 231 511 230 499 c 128
 229 487 228 478 228 470 c 128
 228 462 228 450 228 433 c 1
 308 433 l 1
 308 449 308 462 308 470 c 128
 308 478 308 488 307 499 c 128
 306 510 305 519 303 524 c 128
 301 529 299 535 296 540 c 128
 293 545 289 548 285 550 c 128
 281 552 275 553 268 553 c 128
268 393 m 128
 262 393 257 391 252 386 c 128
 247 381 243 374 241 367 c 128
 239 360 238 352 238 343 c 128
 238 334 239 326 241 319 c 128
 243 312 247 306 252 301 c 128
 257 296 262 293 268 293 c 128
 274 293 279 296 284 301 c 128
 289 306 293 312 295 319 c 128
 297 326 298 334 298 343 c 128
 298 352 297 360 295 367 c 128
 293 374 289 381 284 386 c 128
 279 391 274 393 268 393 c 128
EndSplineSet
Validated: 1
EndChar

StartChar: uni2B80
Encoding: 683 11136 686
Width: 536
VWidth: 2048
Flags: HW
LayerCount: 2
Fore
SplineSet
-1 796 m 1
 457 299 l 1
 -1 -198 l 1
 -10 -198 l 1
 -10 796 l 1
 -1 796 l 1
EndSplineSet
EndChar

StartChar: uni2B81
Encoding: 684 11137 687
Width: 536
VWidth: 2048
Flags: HW
LayerCount: 2
Fore
SplineSet
8 789 m 0
 12 793 16 796 24 796 c 0
 30 796 36 794 40 788 c 2
 452 316 l 2
 456 312 458 307 458 299 c 0
 458 291 456 286 452 282 c 1
 40 -191 l 2
 36 -197 30 -198 24 -198 c 0
 16 -198 12 -196 8 -192 c 0
 4 -186 0 -180 0 -174 c 0
 0 -166 2 -161 6 -157 c 1
 403 299 l 1
 6 755 l 1
 2 759 0 766 0 774 c 0
 0 780 4 783 8 789 c 0
EndSplineSet
Validated: 1
EndChar

StartChar: uni2B82
Encoding: 685 11138 688
Width: 536
VWidth: 2048
Flags: HW
LayerCount: 2
Fore
SplineSet
536 796 m 1
 536 -198 l 1
 78 299 l 1
 536 796 l 1
EndSplineSet
Validated: 1
EndChar

StartChar: uni2B83
Encoding: 686 11139 689
Width: 536
VWidth: 2048
Flags: HW
LayerCount: 2
Fore
SplineSet
524 789 m 4
 528 785 532 780 532 774 c 4
 532 766 530 759 526 755 c 5
 129 299 l 5
 526 -157 l 5
 530 -161 532 -166 532 -174 c 4
 532 -182 528 -186 524 -192 c 4
 520 -196 515 -198 507 -198 c 4
 501 -198 497 -197 493 -191 c 6
 80 282 l 6
 76 286 74 291 74 299 c 4
 74 307 76 310 80 316 c 5
 493 788 l 6
 497 794 501 796 507 796 c 4
 515 796 520 793 524 789 c 4
EndSplineSet
Validated: 1
EndChar

StartChar: uni21E0
Encoding: 687 8672 690
Width: 536
VWidth: 0
Flags: HW
HStem: 293 61<230 535> 456 20G<206.34 230>
LayerCount: 2
Fore
SplineSet
230 476 m 1
 230 354 l 1
 251 354 l 1
 251 293 l 1
 230 293 l 1
 230 171 l 1
 49 323 l 1
 230 476 l 1
280 354 m 1
 342 354 l 1
 342 293 l 1
 280 293 l 1
 280 354 l 1
494 354 m 1
 535 354 l 1
 535 293 l 1
 494 293 l 1
 494 354 l 1
388 354 m 1
 450 354 l 1
 450 293 l 1
 388 293 l 1
 388 354 l 1
EndSplineSet
Validated: 1
EndChar

StartChar: uni21E1
Encoding: 688 8673 691
Width: 536
VWidth: 0
Flags: HW
HStem: 293 61<49 354> 171 20G<354 378>
LayerCount: 2
Fore
SplineSet
91 385 m 1
 213 385 l 1
 213 364 l 1
 274 364 l 1
 274 385 l 1
 396 385 l 1
 244 566 l 1
 91 385 l 1
213 335 m 1
 213 273 l 1
 274 273 l 1
 274 335 l 1
 213 335 l 1
213 121 m 1
 213 80 l 1
 274 80 l 1
 274 121 l 1
 213 121 l 1
213 227 m 1
 213 165 l 1
 274 165 l 1
 274 227 l 1
 213 227 l 1
EndSplineSet
Validated: 9
EndChar

StartChar: uni21E2
Encoding: 689 8674 692
Width: 536
VWidth: 0
Flags: HW
HStem: 293 61<181 486> 456 20G<157 181>
LayerCount: 2
Fore
SplineSet
305 476 m 1
 486 323 l 1
 305 171 l 1
 305 293 l 1
 284 293 l 1
 284 354 l 1
 305 354 l 1
 305 476 l 1
255 354 m 1
 193 354 l 1
 193 293 l 1
 255 293 l 1
 255 354 l 1
41 354 m 1
 0 354 l 1
 0 293 l 1
 41 293 l 1
 41 354 l 1
147 354 m 1
 85 354 l 1
 85 293 l 1
 147 293 l 1
 147 354 l 1
EndSplineSet
Validated: 9
EndChar

StartChar: uni21E3
Encoding: 690 8675 693
Width: 536
VWidth: 0
Flags: HW
HStem: 293 61<230 535> 456 20G<206.34 230>
LayerCount: 2
Fore
SplineSet
396 261 m 1
 243 80 l 1
 91 261 l 1
 213 261 l 1
 213 282 l 1
 274 282 l 1
 274 261 l 1
 396 261 l 1
274 311 m 1
 213 311 l 1
 213 373 l 1
 274 373 l 1
 274 311 l 1
274 525 m 1
 213 525 l 1
 213 566 l 1
 274 566 l 1
 274 525 l 1
274 419 m 1
 213 419 l 1
 213 481 l 1
 274 481 l 1
 274 419 l 1
EndSplineSet
Validated: 1
EndChar

StartChar: uni25B4
Encoding: 691 9652 694
Width: 536
VWidth: 0
Flags: HW
LayerCount: 2
Fore
SplineSet
474.5 272 m 5
 273 594 l 5
 60.5 272 l 5
 474.5 272 l 5
EndSplineSet
Validated: 9
EndChar

StartChar: uni25BE
Encoding: 692 9662 695
Width: 536
VWidth: 0
Flags: HW
LayerCount: 2
Fore
SplineSet
474.5 594 m 5
 273 272 l 5
 60.5 594 l 5
 474.5 594 l 5
EndSplineSet
Validated: 1
EndChar

StartChar: SF110000
Encoding: 693 9474 696
Width: 536
VWidth: 0
Flags: W
VStem: 244 61<-195 781>
LayerCount: 2
Fore
SplineSet
244 800 m 1
 305 800 l 1
 305 -200 l 1
 244 -200 l 1
 244 800 l 1
EndSplineSet
EndChar

StartChar: SF100000
Encoding: 694 9472 697
Width: 536
VWidth: 0
Flags: W
HStem: 293 61<0 535.995>
LayerCount: 2
Fore
SplineSet
0 354 m 1
 536 354 l 1
 536 293 l 1
 0 293 l 1
 0 354 l 1
EndSplineSet
EndChar

StartChar: SF050000
Encoding: 695 9532 698
Width: 536
VWidth: 0
Flags: HW
LayerCount: 2
Fore
SplineSet
244 800 m 1
 305 800 l 1
 305 354 l 1
 536 354 l 1
 536 293 l 1
 305 293 l 1
 305 -200 l 1
 244 -200 l 1
 244 293 l 1
 0 293 l 1
 0 354 l 1
 244 354 l 1
 244 800 l 1
EndSplineSet
EndChar

StartChar: uniE0B0
Encoding: 696 57520 699
Width: 536
VWidth: 2048
Flags: HW
LayerCount: 2
Fore
SplineSet
-1 796 m 1
 457 299 l 1
 -1 -198 l 1
 -10 -198 l 1
 -10 796 l 1
 -1 796 l 1
EndSplineSet
EndChar

StartChar: uniE0B1
Encoding: 697 57521 700
Width: 536
VWidth: 2048
Flags: HW
LayerCount: 2
Fore
SplineSet
8 789 m 0
 12 793 16 796 24 796 c 0
 30 796 36 794 40 788 c 2
 452 316 l 2
 456 312 458 307 458 299 c 0
 458 291 456 286 452 282 c 1
 40 -191 l 2
 36 -197 30 -198 24 -198 c 0
 16 -198 12 -196 8 -192 c 0
 4 -186 0 -180 0 -174 c 0
 0 -166 2 -161 6 -157 c 1
 403 299 l 1
 6 755 l 1
 2 759 0 766 0 774 c 0
 0 780 4 783 8 789 c 0
EndSplineSet
EndChar

StartChar: uniE0A2
Encoding: 698 57506 701
Width: 536
VWidth: 2048
Flags: HW
LayerCount: 2
Fore
SplineSet
268 687.75 m 128
 284.5 687.75 298 686.25 311.5 680.25 c 128
 325 674.25 335.5 668.25 344.5 659.25 c 128
 353.5 650.25 359.5 639.75 365.5 629.25 c 128
 371.5 618.75 376 608.25 379 597.75 c 128
 382 587.25 383.5 576.75 385 567.75 c 128
 386.5 558.75 388 552.75 388 546.75 c 1
 388 539.25 l 1
 388 447.75 l 1
 478 447.75 l 1
 478 357.75 l 2
 478 354.75 478 350.25 478 344.25 c 128
 478 338.25 476.5 327.75 473.5 311.25 c 128
 470.5 294.75 466 278.25 461.5 263.25 c 128
 457 248.25 449.5 231.75 439 213.75 c 128
 428.5 195.75 416.5 179.25 401.5 165.75 c 128
 386.5 152.25 368.5 141.75 346 132.75 c 128
 323.5 123.75 296.5 119.25 268 119.25 c 0
 245.5 119.25 224.5 120.75 205 126.75 c 128
 185.5 132.75 170.5 140.25 157 149.25 c 128
 143.5 158.25 131.5 168.75 121 180.75 c 128
 110.5 192.75 100 204.75 94 218.25 c 128
 88 231.75 80.5 245.25 76 258.75 c 128
 71.5 272.25 68.5 284.25 65.5 296.25 c 128
 62.5 308.25 62.5 318.75 61 327.75 c 128
 59.5 336.75 58 344.25 58 350.25 c 2
 58 357.75 l 1
 58 447.75 l 1
 148 447.75 l 1
 148 539.25 l 2
 148 540.75 148 543.75 148 546.75 c 128
 148 549.75 149.5 557.25 151 567.75 c 128
 152.5 578.25 154 588.75 157 597.75 c 128
 160 606.75 164.5 617.25 170.5 629.25 c 128
 176.5 641.25 184 650.25 191.5 659.25 c 128
 199 668.25 209.5 674.25 223 680.25 c 128
 236.5 686.25 251.5 687.75 268 687.75 c 128
268 627.75 m 128
 257.5 627.75 250 626.25 242.5 623.25 c 128
 235 620.25 230.5 615.75 226 606.75 c 128
 221.5 597.75 218.5 591.75 215.5 584.25 c 128
 212.5 576.75 212.5 564.75 211 546.75 c 128
 209.5 528.75 208 515.25 208 503.25 c 128
 208 491.25 208 473.25 208 447.75 c 1
 328 447.75 l 1
 328 471.75 328 491.25 328 503.25 c 128
 328 515.25 328 530.25 326.5 546.75 c 128
 325 563.25 323.5 576.75 320.5 584.25 c 128
 317.5 591.75 314.5 600.75 310 608.25 c 128
 305.5 615.75 299.5 620.25 293.5 623.25 c 128
 287.5 626.25 278.5 627.75 268 627.75 c 128
268 387.75 m 128
 259 387.75 251.5 384.75 244 377.25 c 128
 236.5 369.75 230.5 359.25 227.5 348.75 c 128
 224.5 338.25 223 326.25 223 312.75 c 128
 223 299.25 224.5 287.25 227.5 276.75 c 128
 230.5 266.25 236.5 257.25 244 249.75 c 128
 251.5 242.25 259 237.75 268 237.75 c 128
 277 237.75 284.5 242.25 292 249.75 c 128
 299.5 257.25 305.5 266.25 308.5 276.75 c 128
 311.5 287.25 313 299.25 313 312.75 c 128
 313 326.25 311.5 338.25 308.5 348.75 c 128
 305.5 359.25 299.5 369.75 292 377.25 c 128
 284.5 384.75 277 387.75 268 387.75 c 128
EndSplineSet
EndChar

StartChar: uniE0A0
Encoding: 699 57504 702
Width: 536
VWidth: 2048
Flags: HW
LayerCount: 2
Fore
SplineSet
114 315 m 1
 124 316 135 318 150 322 c 128
 165 326 182 331 200 338 c 128
 218 345 235 353 250 361 c 128
 265 369 278 379 288 390 c 128
 298 401 304 412 304 424 c 2
 304 494 l 1
 240 492 l 1
 332 663 l 1
 422 492 l 1
 358 494 l 1
 358 424 l 2
 358 409 356 395 350 381 c 128
 344 367 337 354 328 344 c 128
 319 334 310 324 300 314 c 128
 290 304 279 296 268 287 c 128
 257 278 247 270 238 262 c 128
 229 254 223 246 218 238 c 128
 213 230 208 220 208 212 c 2
 208 58 l 1
 114 58 l 1
 114 315 l 1
114 368 m 1
 114 750 l 1
 208 750 l 1
 208 395 l 1
 204 389 188 383 162 377 c 128
 136 371 120 368 114 368 c 1
EndSplineSet
EndChar

StartChar: uniE0A1
Encoding: 700 57505 703
Width: 536
VWidth: 0
Flags: W
HStem: 19 60<305 428>
VStem: 92 60<385 537> 244 61<79 323 537 689>
LayerCount: 2
Fore
SplineSet
244 323 m 1
 304 323 l 1
 396 171 l 1
 396 323 l 1
 457 323 l 1
 457 19 l 1
 398 20 l 1
 304 171 l 1
 304 19 l 1
 244 19 l 1
 244 323 l 1
92 691 m 1
 153 691 l 1
 153 447 l 1
 276 447 l 1
 276 387 l 1
 92 387 l 1
 92 691 l 1
EndSplineSet
EndChar

StartChar: block
Encoding: 701 9608 704
Width: 536
VWidth: 0
Flags: HW
VStem: 0 549<-195 781>
LayerCount: 2
Fore
SplineSet
0 800 m 1
 536 800 l 1
 536 -200 l 1
 0 -200 l 1
 0 800 l 1
EndSplineSet
EndChar

StartChar: NameMe.702
Encoding: 702 -1 705
Width: 536
VWidth: 0
Flags: HW
HStem: -73 60<54 481> 48 60<220 318> 172 60<176 195> 233 60<280 316> 537 61<54 481>
VStem: -7 61<-13 537> 117 60<151 172 232 372> 361 60<153 190> 481 61<-13 537>
LayerCount: 2
Fore
SplineSet
121 668 m 1
 121 118 l 1
 415 118 l 1
 415 668 l 1
 121 668 l 1
60 729 m 1
 476 729 l 1
 476 58 l 1
 60 58 l 1
 60 729 l 1
EndSplineSet
EndChar
